<svg width="16" height="16" viewBox="0 0 16 16" fill="none" xmlns="http://www.w3.org/2000/svg">
<g clip-path="url(#clip0_7_2457)">
<rect width="16" height="16" rx="8" fill="white"/>
<g clip-path="url(#clip1_7_2457)">
<path d="M2.0556 0H1.23912V0.456343H0.970165V0.912688H0.701209V1.36903H0.432252V1.82538H0.163295V2.28172H0.432252V2.73807H0.701209V3.19441H0.970165V3.65076H1.23912V4.1071H1.50808V4.56345H1.77704V4.1071H2.04599V3.65076H2.31495V3.19441H2.59351V2.73807H2.86247V2.28172H3.13142V1.82538H2.86247V1.36903H2.59351V0.912688H2.32455V0.456343H2.0556V0ZM1.78664 0.912688H1.51768V1.36903H1.23912V1.82538H0.970165V2.28172H1.23912V2.73807H1.50808V3.19441H1.77704V2.73807H2.04599V2.28172H2.31495V1.82538H2.0556V1.36903H1.78664V0.912688ZM1.78664 1.82538H1.51768V2.28172H1.78664V1.82538ZM3.13142 0.456343H2.86247V0.912688H3.13142V0.456343ZM3.13142 3.19441H2.86247V3.65076H3.13142V3.19441ZM0.163295 0H0V0.912688H0.163295V0ZM0.163295 3.19441H0V4.1071H0.163295V3.19441ZM2.59351 4.1071H2.32455V4.56345H2.0556V5.01979H1.78664V5.47613H2.0556V5.93248H2.32455V6.40512H2.59351V5.94878H2.86247V5.49243H3.13142V5.03609H2.86247V4.57974H2.59351V4.1071ZM2.59351 5.03609H2.32455V5.49243H2.59351V5.03609ZM0.970165 4.1071H0.701209V4.56345H0.432252V5.01979H0.163295V5.47613H0.432252V5.93248H0.701209V6.40512H0.970165V5.94878H1.23912V5.49243H1.50808V5.03609H1.23912V4.57974H0.970165V4.1071ZM0.970165 5.03609H0.701209V5.49243H0.970165V5.03609ZM3.13142 6.86147H2.86247V7.31781H3.13142V6.86147ZM0.163295 6.40512H0V7.31781H0.163295V6.40512Z" fill="#C8313E"/>
<path d="M3.13142 8.2305H2.86247V7.77416H2.59351V7.31781H2.32455V6.86147H2.0556V6.40512H1.78664V5.94878H1.51768V6.40512H1.23912V6.86147H0.970165V7.31781H0.701209V7.77416H0.432252V8.2305H0.163295V8.68684H0V10.5122H0.163295V10.9686H0.432252V11.4249H0.701209V11.8976H0.970165V12.3539H1.23912V12.8102H1.50808V14H2.04599V13.7229H2.31495V13.2666H2.59351V12.8102H2.86247V12.3539H3.13142V10.9849H2.86247V11.4412H2.59351V11.8976H2.32455V12.3539H2.0556V11.8976H1.78664V11.4412H1.51768V10.9849H1.23912V10.5285H0.970165V10.0722H0.701209V9.61583H0.970165V9.15949H1.23912V8.70314H2.04599V9.15949H1.51768V9.61583H1.78664V10.0722H2.0556V10.5285H2.32455V10.0722H2.59351V9.61583H2.86247V9.15949H3.13142V8.2305ZM3.13142 10.0722H2.86247V10.5285H3.13142V10.0722ZM0.163295 11.4412H0V11.8976H0.163295V11.4412ZM0.701209 12.3539H0.432252V12.8102H0.163295V13.2666H0V14H0.163295V13.7229H0.432252V13.2666H0.701209V12.3539ZM1.23912 13.7229H0.970165V14H1.23912V13.7229Z" fill="#C8313E"/>
</g>
<rect x="3" width="13" height="10" fill="#C8313E"/>
<rect x="3" y="10" width="13" height="6" fill="#299547"/>
</g>
<defs>
<clipPath id="clip0_7_2457">
<rect width="16" height="16" rx="8" fill="white"/>
</clipPath>
<clipPath id="clip1_7_2457">
<rect width="3" height="14" fill="white" transform="translate(0 1)"/>
</clipPath>
</defs>
</svg>
