<svg width="16" height="16" viewBox="0 0 16 16" fill="none" xmlns="http://www.w3.org/2000/svg">
<g clip-path="url(#clip0_8_51)">
<path d="M16.6896 14H-0.689641C-0.861028 14 -1 13.8586 -1 13.6842V2.3158C-1 2.14141 -0.861028 2 -0.689641 2H16.6896C16.861 2 17 2.14141 17 2.3158V13.6842C17 13.8586 16.861 14 16.6896 14Z" fill="#41479B"/>
<path d="M16.9999 2.3158C16.9999 2.14141 16.861 2 16.6896 2H15.3011L9.55165 5.83296V2H6.44821V5.83296L0.698814 2H-0.689642C-0.861028 2 -1 2.14141 -1 2.3158V3.13254L3.93272 6.42104H-1V9.57893H3.93272L-1 12.8675V13.6842C-1 13.8586 -0.861028 14 -0.689642 14H0.698849L6.44828 10.167V14H9.55172V10.167L15.3012 14H16.6896C16.861 14 17 13.8586 17 13.6842V12.8675L12.0673 9.57896H16.9999V6.42107H12.0672L16.9999 3.13254V2.3158Z" fill="#F5F5F5"/>
<g clip-path="url(#clip1_8_51)">
<path d="M17 7.05264H8.93102V2H7.06894V7.05264H-1V8.94736H7.06894V14H8.93102V8.94736H17V7.05264Z" fill="#FF4B55"/>
<path d="M5.29162 9.57898L-0.990723 13.7285C-0.96875 13.881 -0.845176 14.0001 -0.689188 14.0001H-0.261724L6.43166 9.57902H5.29162V9.57898Z" fill="#FF4B55"/>
<path d="M11.1776 9.57898H10.0376L16.7212 13.9935C16.877 13.9766 17 13.8472 17 13.6842V13.4246L11.1776 9.57898Z" fill="#FF4B55"/>
<path d="M-1 2.66449L4.68753 6.42115H5.82758L-0.819192 2.03088C-0.925363 2.08107 -1 2.18893 -1 2.31589V2.66449Z" fill="#FF4B55"/>
<path d="M10.6918 6.42103L16.9892 2.26146C16.9631 2.11401 16.8421 2 16.6897 2H16.245L9.55176 6.42103H10.6918Z" fill="#FF4B55"/>
</g>
</g>
<defs>
<clipPath id="clip0_8_51">
<rect y="2" width="16" height="12" rx="2" fill="white"/>
</clipPath>
<clipPath id="clip1_8_51">
<rect x="-1" y="2" width="18" height="12" fill="white"/>
</clipPath>
</defs>
</svg>
