<svg width="16" height="16" viewBox="0 0 16 16" fill="none" xmlns="http://www.w3.org/2000/svg">
<g clip-path="url(#clip0_8_50)">
<path d="M19.5861 16H-3.58619C-3.8147 16 -4 15.8115 -4 15.5789V0.421071C-4 0.188547 -3.8147 0 -3.58619 0H19.5862C19.8147 0 20 0.188547 20 0.421071V15.5789C20 15.8115 19.8147 16 19.5861 16Z" fill="#41479B"/>
<path d="M19.9999 0.421071C19.9999 0.188547 19.8146 0 19.5861 0H17.7348L10.0689 5.11062V0H5.93095V5.11062L-1.73492 0H-3.58619C-3.8147 0 -4 0.188547 -4 0.421071V1.51005L2.57696 5.89471H-4V10.1052H2.57696L-4 14.49V15.5789C-4 15.8115 -3.8147 16 -3.58619 16H-1.73487L5.93104 10.8894V16H10.069V10.8894L17.7349 16H19.5862C19.8147 16 20 15.8115 20 15.5789V14.49L13.423 10.1053H19.9999V5.89476H13.4229L19.9999 1.51005V0.421071Z" fill="#F5F5F5"/>
<path d="M20 6.73686H9.24139V0H6.75861V6.73686H-4V9.26314H6.75861V16H9.24139V9.26314H20V6.73686Z" fill="#FF4B55"/>
<path d="M4.46405 10L-4 15.6315C-3.9704 15.8385 -3.80391 16 -3.59375 16H-3.01784L6 10H4.46405V10Z" fill="#FF4B55"/>
<path d="M12.4737 10H11L19.6397 16C19.8411 15.9771 20 15.8011 20 15.5796V15.2267L12.4737 10Z" fill="#FF4B55"/>
<path d="M-4 0.865929L3.49721 6H5L-3.76166 0C-3.90162 0.0685918 -4 0.215993 -4 0.389502V0.865929Z" fill="#FF4B55"/>
<path d="M11.5328 6L20 0.354846C19.9648 0.154726 19.8022 0 19.5972 0H18.9994L10 6H11.5328Z" fill="#FF4B55"/>
</g>
<defs>
<clipPath id="clip0_8_50">
<rect width="16" height="16" rx="8" fill="white"/>
</clipPath>
</defs>
</svg>
