<svg width="16" height="16" viewBox="0 0 16 16" fill="none" xmlns="http://www.w3.org/2000/svg">
<g clip-path="url(#clip0_7_2456)">
<rect width="16" height="16" fill="#40B9D5"/>
<path d="M2.50001 14.5336C2.50001 14.5336 2.74043 14.7449 2.82144 14.6379C2.9521 14.465 2.419 13.6173 2.419 13.3155C2.419 12.8245 2.73259 12.69 3.11935 12.6214C3.37806 12.5748 3.80141 12.6406 3.80141 12.6406C3.72301 12.7531 3.67074 12.786 3.53486 12.7943C3.68381 12.8766 3.83538 13.0494 3.83538 13.3265C3.83538 13.749 3.66813 13.9246 3.66813 14.3992C3.66813 14.6653 3.87458 15 3.87458 15C3.50872 14.9616 3.32841 14.6049 3.43033 14.3224C3.37283 14.3141 3.32057 14.3279 3.27353 14.3717C3.2474 14.2922 3.28921 14.2017 3.3467 14.1248C3.29966 14.1001 3.26569 14.1139 3.19513 14.1303C3.20297 14.048 3.2474 13.963 3.36238 13.8807C3.03311 13.9685 2.83189 13.7298 2.83189 13.4774C2.83189 13.2881 2.95994 13.1509 3.08277 13.1509C3.12458 13.1509 3.18207 13.1701 3.21604 13.1948C3.23956 13.1427 3.22649 13.0714 3.20297 13.022C3.29444 13.0467 3.35193 13.1043 3.31012 13.2222C3.38067 13.2277 3.43555 13.2552 3.47214 13.3018C3.43555 13.3539 3.37545 13.3841 3.31012 13.3814C3.35977 13.4911 3.30489 13.5542 3.22127 13.6036C3.22127 13.6036 3.27353 13.3814 3.14026 13.3814C3.08015 13.3814 3.02266 13.4033 3.02266 13.4939C3.02266 13.5762 3.09061 13.6886 3.2474 13.6804C3.40419 13.6722 3.52963 13.5679 3.52963 13.3073C3.52963 13.0659 3.34409 12.9452 3.09844 12.9369C2.87893 12.9287 2.71169 13.0549 2.71169 13.2936C2.71169 13.6091 3.1481 14.3333 3.1481 14.6187C3.1481 14.8326 2.96778 14.9479 2.78747 14.9479C2.5575 14.9479 2.36151 14.7064 2.36151 14.7064L2.50001 14.5336Z" fill="#F5C832"/>
<path d="M2.49999 14.5336C2.49999 14.5336 2.25957 14.7449 2.17856 14.6379C2.0479 14.465 2.581 13.6173 2.581 13.3155C2.581 12.8245 2.26741 12.69 1.88065 12.6214C1.62194 12.5748 1.1986 12.6406 1.1986 12.6406C1.27961 12.7531 1.32926 12.786 1.46515 12.7943C1.31619 12.8766 1.16463 13.0494 1.16463 13.3265C1.16463 13.749 1.33187 13.9246 1.33187 14.3992C1.33187 14.6653 1.12543 15 1.12543 15C1.49128 14.9616 1.67159 14.6049 1.56968 14.3224C1.62717 14.3141 1.67943 14.3279 1.72647 14.3717C1.7526 14.2922 1.71079 14.2017 1.65592 14.1248C1.70034 14.1001 1.73431 14.1139 1.80748 14.1303C1.79964 14.048 1.75522 13.963 1.64024 13.8807C1.9695 13.9685 2.17072 13.7298 2.17072 13.4774C2.17072 13.2881 2.04529 13.1509 1.91985 13.1509C1.88065 13.1509 1.82055 13.1701 1.78658 13.1948C1.76306 13.1427 1.77612 13.0714 1.79964 13.022C1.70818 13.0467 1.65069 13.1043 1.6925 13.2222C1.62456 13.2277 1.56706 13.2552 1.53048 13.3018C1.56968 13.3539 1.62717 13.3841 1.6925 13.3814C1.64024 13.4911 1.69773 13.5542 1.78135 13.6036C1.78135 13.6036 1.72909 13.3814 1.86236 13.3814C1.92508 13.3814 1.97996 13.4033 1.97996 13.4939C1.97996 13.5762 1.91201 13.6886 1.75522 13.6804C1.59842 13.6722 1.47299 13.5679 1.47299 13.3073C1.47299 13.0659 1.65853 12.9452 1.90417 12.9369C2.1263 12.9287 2.29093 13.0549 2.29093 13.2936C2.29093 13.6091 1.85452 14.3333 1.85452 14.6187C1.85452 14.8326 2.03745 14.9479 2.21515 14.9479C2.44511 14.9479 2.64111 14.7064 2.64111 14.7064L2.49999 14.5336Z" fill="#F5C832"/>
<path d="M2.45034 8.80236C2.45034 8.27014 2.90766 7.99854 3.26306 7.99854C3.7439 7.99854 4 8.30031 4 8.69537C4 8.91759 3.9608 9.06025 3.86411 9.27423C3.86411 9.27423 3.06968 11.0053 2.76132 11.6747C2.72212 11.7598 2.70906 11.8531 2.70906 11.993C2.70906 12.207 2.90766 12.3825 3.11672 12.3908C3.30749 12.3963 3.51393 12.2042 3.51393 11.9875C3.51393 11.7241 3.38327 11.6062 3.25 11.6062C3.08536 11.6062 3.01742 11.6775 3.01742 11.7982C3.01742 11.8832 3.05662 11.9189 3.11411 11.9189C3.25522 11.9189 3.21602 11.7186 3.21602 11.7186C3.28658 11.7324 3.34407 11.8092 3.31271 11.9052C3.36237 11.9162 3.41202 11.9436 3.45122 11.9902C3.41202 12.0286 3.37021 12.0588 3.31271 12.0698C3.34669 12.185 3.30226 12.2399 3.20557 12.2646C3.22386 12.2207 3.22648 12.1795 3.21864 12.1411C3.06707 12.1878 2.83449 12.1137 2.83449 11.8421C2.83449 11.5705 3.0148 11.3428 3.35191 11.3977C3.2709 11.3592 3.2317 11.2742 3.22125 11.1837C3.28136 11.2084 3.35191 11.2138 3.35191 11.2138C3.31271 11.1398 3.25784 11.0767 3.26045 10.934C3.32317 10.9614 3.38066 11.0191 3.46167 10.9834C3.33623 10.7228 3.49041 10.3689 3.8824 10.2838C3.73867 10.4594 3.66811 10.6514 3.66811 10.8407C3.66811 11.4553 3.83014 11.5595 3.83014 11.9875C3.83014 12.1658 3.74129 12.3606 3.56881 12.4923V12.4868C3.68379 12.5197 3.75696 12.5773 3.80139 12.6596C3.53745 12.7364 3.15592 12.7364 2.94947 12.6514C2.71428 12.624 2.54965 12.4347 2.50261 12.3387C2.45296 12.2426 2.35888 11.8942 2.50261 11.5815C2.6594 11.2385 3.39634 9.60345 3.62369 9.08768C3.67334 8.97794 3.70209 8.86272 3.70209 8.73652C3.70209 8.42102 3.42508 8.31129 3.2709 8.31129C3.08275 8.31129 2.89198 8.45943 2.89198 8.64873C2.89198 8.7667 2.9547 8.83803 3.04094 8.83803C3.25261 8.83803 3.23954 8.64873 3.19773 8.53076C3.33101 8.59386 3.40679 8.7036 3.38588 8.82157C3.46167 8.83254 3.53223 8.87095 3.59756 8.94776C3.54529 9.01635 3.48257 9.06573 3.38588 9.07122C3.4277 9.25229 3.31271 9.32636 3.19773 9.37025C3.23432 9.23582 3.25784 9.08494 3.04094 9.08494C2.88414 9.08494 2.75871 9.0575 2.68554 8.95051C2.68292 9.09317 2.66724 9.65831 2.66724 9.65831C2.6594 9.8723 2.93902 9.86407 3.11672 9.80097C3.04878 10.0451 2.91289 10.1768 2.59407 10.1439C2.66986 10.1796 2.75348 10.2536 2.75348 10.4018C2.75348 10.6021 2.5993 10.8188 2.49738 10.8874L2.45034 8.80236Z" fill="#F5C832"/>
<path d="M2.54965 8.80236C2.54965 8.27014 2.09495 7.99854 1.73693 7.99854C1.2561 7.99854 1 8.30031 1 8.69537C1 8.91759 1.0392 9.06025 1.1385 9.27423C1.1385 9.27423 1.93293 11.0053 2.2439 11.6747C2.2831 11.7598 2.29355 11.8531 2.29355 11.993C2.29355 12.207 2.09495 12.3825 1.88589 12.3908C1.69512 12.3963 1.48868 12.2042 1.48868 11.9875C1.48868 11.7241 1.61934 11.6062 1.75261 11.6062C1.91986 11.6062 1.98519 11.6775 1.98519 11.7982C1.98519 11.8832 1.94599 11.9189 1.8885 11.9189C1.74739 11.9189 1.78659 11.7186 1.78659 11.7186C1.71603 11.7324 1.65854 11.8092 1.6899 11.9052C1.63763 11.9162 1.59059 11.9436 1.55139 11.9902C1.58798 12.0286 1.6324 12.0588 1.6899 12.0698C1.65854 12.185 1.70035 12.2399 1.79704 12.2646C1.77875 12.2207 1.77613 12.1795 1.78136 12.1411C1.93293 12.1878 2.16289 12.1137 2.16289 11.8421C2.16289 11.5705 1.98519 11.3428 1.64547 11.3977C1.72648 11.3592 1.76568 11.2742 1.77352 11.1837C1.71341 11.2084 1.64547 11.2138 1.64547 11.2138C1.68467 11.1398 1.73955 11.0767 1.73693 10.934C1.67422 10.9614 1.61672 11.0191 1.53571 10.9834C1.66115 10.7228 1.50697 10.3689 1.11498 10.2838C1.25871 10.4594 1.32927 10.6514 1.32927 10.8407C1.32927 11.4553 1.16725 11.5595 1.16725 11.9875C1.16725 12.1658 1.2561 12.3606 1.42857 12.4923V12.4868C1.31359 12.5197 1.24042 12.5773 1.19861 12.6596C1.46254 12.7364 1.84408 12.7364 2.05052 12.6514C2.28571 12.624 2.45035 12.4347 2.5 12.3387C2.54965 12.2426 2.64111 11.8942 2.5 11.5815C2.34321 11.2385 1.60627 9.60345 1.37631 9.08768C1.32665 8.97794 1.29791 8.86272 1.29791 8.73652C1.29791 8.42102 1.57491 8.31129 1.72909 8.31129C1.91725 8.31129 2.10801 8.45943 2.10801 8.64873C2.10801 8.7667 2.0453 8.83803 1.95645 8.83803C1.74477 8.83803 1.75784 8.64873 1.79965 8.53076C1.66638 8.59386 1.59059 8.7036 1.6115 8.82157C1.53833 8.83254 1.46516 8.87095 1.39983 8.94776C1.45209 9.01635 1.51481 9.06573 1.6115 9.07122C1.56969 9.25229 1.68467 9.32636 1.79965 9.37025C1.76307 9.23582 1.73955 9.08494 1.95645 9.08494C2.11324 9.08494 2.23868 9.0575 2.30923 8.95051C2.31446 9.09317 2.32753 9.65831 2.32753 9.65831C2.33798 9.8723 2.05575 9.86407 1.87805 9.80097C1.94599 10.0451 2.08188 10.1768 2.4007 10.1439C2.32491 10.1796 2.24129 10.2536 2.24129 10.4018C2.24129 10.6021 2.39547 10.8188 2.49739 10.8874L2.54965 8.80236Z" fill="#F5C832"/>
<path d="M2.54965 7.2111C2.54965 7.74332 2.09495 8.01492 1.73693 8.01492C1.2561 8.01492 1 7.71314 1 7.31809C1 7.09587 1.0392 6.95596 1.1385 6.73923C1.1385 6.73923 1.93293 5.00812 2.2439 4.33872C2.2831 4.25642 2.29355 4.1604 2.29355 4.02048C2.29355 3.80375 2.09495 3.63092 1.88589 3.62269C1.69512 3.6172 1.48868 3.80924 1.48868 4.02597C1.48868 4.28934 1.61934 4.40731 1.75261 4.40731C1.91986 4.40731 1.98519 4.33598 1.98519 4.21527C1.98519 4.13022 1.94599 4.09181 1.8885 4.09181C1.74739 4.09181 1.78659 4.29208 1.78659 4.29208C1.71603 4.27562 1.65854 4.20155 1.6899 4.10553C1.63763 4.09456 1.59059 4.06712 1.55139 4.02048C1.58798 3.98208 1.6324 3.9519 1.6899 3.94092C1.65854 3.8257 1.70035 3.76809 1.79704 3.74614C1.77875 3.79004 1.77613 3.83119 1.78136 3.8696C1.93293 3.82296 2.16289 3.89703 2.16289 4.16863C2.16289 4.44023 1.98519 4.67068 1.64547 4.61032C1.72648 4.65147 1.76568 4.73378 1.77352 4.82705C1.71341 4.80236 1.64547 4.79962 1.64547 4.79962C1.68467 4.87095 1.73955 4.93405 1.73693 5.07945C1.67422 5.04927 1.61672 4.9944 1.53571 5.02732C1.66115 5.28795 1.50697 5.6446 1.11498 5.72964C1.25871 5.55132 1.32927 5.36202 1.32927 5.17273C1.33188 4.5582 1.16986 4.45669 1.16986 4.02871C1.16986 3.85039 1.25871 3.65561 1.43118 3.52392V3.53215C1.3162 3.49923 1.24303 3.43888 1.20122 3.35932C1.46516 3.27976 1.84669 3.2825 2.05314 3.36755C2.28833 3.39498 2.45296 3.58702 2.50261 3.6803C2.55226 3.77632 2.64373 4.12473 2.50261 4.43749C2.34582 4.78041 1.60888 6.4155 1.37892 6.93127C1.32927 7.041 1.30052 7.15348 1.30052 7.27968C1.30052 7.59243 1.57753 7.70217 1.73171 7.70217C1.91986 7.70217 2.11063 7.55403 2.11063 7.36747C2.11063 7.2495 2.04791 7.17817 1.95906 7.17817C1.74739 7.17817 1.76045 7.36747 1.80226 7.48544C1.66899 7.42234 1.59321 7.3126 1.61411 7.19464C1.54094 7.18366 1.46777 7.14525 1.40244 7.06844C1.4547 6.99985 1.51742 6.95047 1.61411 6.94773C1.5723 6.76666 1.68728 6.68984 1.80226 6.64869C1.76568 6.78038 1.74216 6.93401 1.95906 6.93401C2.11585 6.93401 2.24129 6.96144 2.31185 7.07118C2.31707 6.92852 2.33014 6.36338 2.33014 6.36338C2.34059 6.15213 2.05836 6.15762 1.88066 6.22072C1.94861 5.97381 2.08449 5.84487 2.40331 5.87779C2.32753 5.84487 2.2439 5.76805 2.2439 5.6199C2.2439 5.42238 2.39808 5.2029 2.5 5.13706L2.54965 7.2111Z" fill="#F5C832"/>
<path d="M2.45034 7.21116C2.45034 7.74338 2.90766 8.01498 3.26306 8.01498C3.7439 8.01498 4 7.71321 4 7.31815C4 7.09593 3.9608 6.95602 3.86411 6.73929C3.86411 6.73929 3.06968 5.00818 2.76132 4.33878C2.72212 4.25648 2.70906 4.16046 2.70906 4.02054C2.70906 3.80381 2.90766 3.63097 3.11672 3.62274C3.30749 3.61726 3.51393 3.8093 3.51393 4.02603C3.51393 4.2894 3.38327 4.40737 3.25 4.40737C3.08536 4.40737 3.01742 4.33604 3.01742 4.21533C3.01742 4.13028 3.05662 4.09187 3.11411 4.09187C3.25522 4.09187 3.21602 4.29214 3.21602 4.29214C3.28658 4.27568 3.34407 4.20161 3.31271 4.10559C3.36237 4.09461 3.41202 4.06718 3.45122 4.02054C3.41202 3.98213 3.37021 3.95196 3.31271 3.94098C3.34669 3.82576 3.30226 3.76815 3.20557 3.7462C3.22386 3.79009 3.22648 3.83125 3.21864 3.86965C3.06707 3.82301 2.83449 3.89709 2.83449 4.16869C2.83449 4.44029 3.0148 4.67074 3.35191 4.61038C3.2709 4.65153 3.2317 4.73384 3.22125 4.82711C3.28136 4.80242 3.35191 4.79968 3.35191 4.79968C3.31271 4.87101 3.25784 4.93411 3.26045 5.07951C3.32317 5.04933 3.38066 4.99446 3.46167 5.02738C3.33623 5.28801 3.49041 5.64466 3.8824 5.7297C3.73867 5.55138 3.66811 5.36208 3.66811 5.17278C3.66811 4.55826 3.83014 4.454 3.83014 4.02603C3.83014 3.84771 3.74129 3.65292 3.56881 3.52124V3.52947C3.68379 3.49655 3.75696 3.43619 3.80139 3.35663C3.53745 3.27707 3.15592 3.27981 2.94947 3.36486C2.71428 3.3923 2.54965 3.58434 2.50261 3.67761C2.45296 3.77363 2.35888 4.12205 2.50261 4.4348C2.6594 4.77773 3.39634 6.41282 3.62369 6.92858C3.67334 7.03832 3.70209 7.1508 3.70209 7.277C3.70209 7.58975 3.42508 7.69949 3.2709 7.69949C3.08275 7.69949 2.89198 7.55134 2.89198 7.36479C2.89198 7.24682 2.9547 7.17549 3.04094 7.17549C3.25261 7.17549 3.23954 7.36479 3.19773 7.48276C3.33101 7.41966 3.40679 7.30992 3.38588 7.19195C3.46167 7.18098 3.53223 7.14257 3.59756 7.06575C3.54529 6.99717 3.48257 6.94779 3.38588 6.94504C3.4277 6.76398 3.31271 6.68716 3.19773 6.64601C3.23432 6.77769 3.25784 6.93133 3.04094 6.93133C2.88414 6.93133 2.75871 6.95876 2.68554 7.0685C2.68292 6.92584 2.66724 6.36069 2.66724 6.36069C2.6594 6.14945 2.93902 6.15493 3.11672 6.21803C3.04878 5.97112 2.91289 5.84218 2.59407 5.8751C2.66986 5.84218 2.75348 5.76537 2.75348 5.61722C2.75348 5.41969 2.5993 5.20022 2.49738 5.13438L2.45034 7.21116Z" fill="#F5C832"/>
<path d="M2.50001 1.46913C2.50001 1.46913 2.74043 1.25514 2.82144 1.36213C2.9521 1.53497 2.419 2.38269 2.419 2.68447C2.419 3.17554 2.73259 3.30997 3.11935 3.37856C3.37806 3.42794 3.80141 3.35935 3.80141 3.35935C3.72301 3.24687 3.67074 3.21395 3.53486 3.20572C3.68381 3.12616 3.83538 2.94784 3.83538 2.67349C3.83538 2.25101 3.66813 2.07817 3.66813 1.60081C3.66813 1.3347 3.87458 1 3.87458 1C3.50872 1.03841 3.32841 1.39231 3.43033 1.67763C3.37283 1.68586 3.32057 1.67214 3.27353 1.62825C3.2474 1.70781 3.28921 1.79834 3.3467 1.87516C3.29966 1.89985 3.26569 1.88613 3.19513 1.86967C3.20297 1.94923 3.2474 2.03702 3.36238 2.11658C3.03311 2.02879 2.83189 2.26747 2.83189 2.51986C2.83189 2.70916 2.95994 2.84633 3.08277 2.84633C3.12458 2.84633 3.18207 2.82713 3.21604 2.80244C3.23956 2.85456 3.22649 2.92589 3.20297 2.97802C3.29444 2.95333 3.35193 2.89571 3.31012 2.77775C3.38067 2.77226 3.43555 2.74482 3.47214 2.69819C3.43555 2.64606 3.37545 2.61588 3.31012 2.61863C3.35977 2.50889 3.30489 2.44579 3.22127 2.39641C3.22127 2.39641 3.27353 2.61863 3.14026 2.61863C3.08015 2.61863 3.02266 2.59668 3.02266 2.50615C3.02266 2.42384 3.09061 2.31411 3.2474 2.31959C3.40419 2.32782 3.52963 2.43207 3.52963 2.6927C3.52963 2.93686 3.34409 3.05483 3.09844 3.06306C2.87893 3.06855 2.71169 2.94509 2.71169 2.70642C2.71169 2.38818 3.1481 1.66391 3.1481 1.38134C3.1481 1.17009 2.96778 1.04938 2.78747 1.04938C2.5575 1.04938 2.36151 1.28806 2.36151 1.28806L2.50001 1.46913Z" fill="#F5C832"/>
<path d="M2.49999 1.46913C2.49999 1.46913 2.25957 1.25514 2.17856 1.36213C2.0479 1.53497 2.581 2.38269 2.581 2.68447C2.581 3.17554 2.26741 3.30997 1.88065 3.37856C1.62194 3.42794 1.1986 3.35935 1.1986 3.35935C1.27961 3.24687 1.32926 3.21395 1.46515 3.20572C1.31619 3.12616 1.16463 2.94784 1.16463 2.67349C1.16463 2.25101 1.33187 2.07817 1.33187 1.60081C1.33187 1.3347 1.12543 1 1.12543 1C1.49128 1.03841 1.67159 1.39231 1.56968 1.67763C1.62717 1.68586 1.67943 1.67214 1.72647 1.62825C1.7526 1.70781 1.71079 1.79834 1.65591 1.87516C1.70034 1.89985 1.73431 1.88613 1.80748 1.86967C1.79964 1.94923 1.75522 2.03702 1.64024 2.11658C1.9695 2.02879 2.17072 2.26747 2.17072 2.51986C2.17072 2.70916 2.04529 2.84633 1.91985 2.84633C1.88065 2.84633 1.82055 2.82713 1.78658 2.80244C1.76306 2.85456 1.77612 2.92589 1.79964 2.97802C1.70818 2.95333 1.65069 2.89571 1.6925 2.77775C1.62456 2.77226 1.56706 2.74482 1.53048 2.69819C1.56968 2.64606 1.62717 2.61588 1.6925 2.61863C1.64024 2.50889 1.69511 2.44853 1.77874 2.39915C1.77874 2.39915 1.72647 2.62137 1.85975 2.62137C1.92247 2.62137 1.97734 2.59942 1.97734 2.50889C1.97734 2.42659 1.9094 2.31685 1.7526 2.32234C1.59581 2.33057 1.47037 2.43482 1.47037 2.69544C1.47037 2.93961 1.65591 3.05758 1.90156 3.06581C2.12368 3.07129 2.28832 2.94784 2.28832 2.70916C2.28832 2.39092 1.85191 1.66665 1.85191 1.38408C1.85191 1.17284 2.03483 1.05213 2.21253 1.05213C2.4425 1.05213 2.63849 1.2908 2.63849 1.2908L2.49999 1.46913Z" fill="#F5C832"/>
<path d="M8.98983 9.92501C7.65337 9.92944 6.71404 8.77688 6.62864 7.62209C6.62864 7.62209 6.57617 7.60103 6.56897 7.65091C6.55251 7.77281 6.59984 8.1485 6.58234 8.12301C6.54942 8.07536 6.30559 7.37163 6.26135 7.44699C6.2027 7.55006 6.53399 8.3502 6.51547 8.37458C6.4486 8.45992 6.0669 7.59328 6.03603 7.65645C5.91977 7.89915 6.50827 8.68711 6.50312 8.72036C6.48975 8.82564 6.05558 8.2959 6.01957 8.35353C5.93829 8.48098 6.48769 8.94644 6.5165 8.9819C6.60086 9.08829 6.21505 8.79461 6.2027 8.89546C6.19344 8.97857 6.38995 9.14703 6.50724 9.21906C6.62453 9.2911 6.66259 9.26893 6.69655 9.33099C6.72227 9.37754 6.47535 9.30107 6.48255 9.35981C6.49592 9.47507 6.75313 9.45068 6.7912 9.50277C6.82927 9.55486 6.6163 9.51496 6.62453 9.55818C6.63893 9.63354 6.85705 9.64352 6.86013 9.67676C6.86425 9.71001 6.7233 9.68674 6.73256 9.7488C6.73976 9.802 6.95376 9.7898 7.0052 9.82749C7.05767 9.86517 6.81383 9.83192 7.00314 9.93388C7.19245 10.0358 7.4085 10.15 7.70481 10.212C8.00112 10.2752 8.15236 10.2043 8.16264 10.1843C8.17396 10.1633 8.02272 10.201 7.81284 10.16C7.60296 10.119 7.32208 9.97488 7.20685 9.90395C7.17084 9.88179 7.31899 9.83524 7.28813 9.79202C7.25726 9.7488 7.13792 9.79756 7.09265 9.7355C7.06281 9.6956 7.14924 9.6945 7.14615 9.66901C7.14409 9.64573 6.98256 9.60473 6.95376 9.56151C6.92392 9.51718 7.0268 9.52494 7.03092 9.49501C7.03401 9.47396 6.92906 9.43628 6.92186 9.40746C6.91466 9.37865 7.03915 9.38641 6.98051 9.35094C6.91775 9.31215 6.74902 9.26672 6.71712 9.20133C6.68626 9.13705 6.84676 9.2102 6.80457 9.14924C6.7768 9.10824 6.62144 9.0362 6.58852 8.93868C6.56588 8.87329 6.69757 8.92981 6.69963 8.88881C6.70272 8.82342 6.62144 8.86553 6.59572 8.67492C6.58749 8.61286 6.69963 8.65386 6.69963 8.65386L6.71507 8.62061C6.71507 8.62061 6.84676 8.6993 7.01652 8.91208C7.18627 9.12375 7.23463 9.32434 7.39513 9.46952C7.47229 9.53823 7.47332 9.44182 7.6472 9.55818C7.82107 9.67455 7.89309 9.75656 8.07416 9.92279C8.09886 9.94607 8.21717 9.89952 8.56698 9.97821C8.75423 10.0203 8.79332 10.1267 8.79332 10.1267C8.79435 10.1311 8.89827 10.058 8.94765 9.9771C8.9672 9.94496 8.98675 9.97599 8.99292 9.97045C9.01247 9.9505 8.98983 9.92501 8.98983 9.92501Z" fill="#F5C832"/>
<path d="M7.93218 10.2486C7.86222 10.2486 7.78609 10.2397 7.70481 10.2231C7.39719 10.1577 7.16878 10.0347 7.00108 9.94385C6.94244 9.91171 6.9198 9.89176 6.92186 9.87181C6.92392 9.85187 6.9517 9.84632 6.97845 9.84078C6.98771 9.83857 7.00314 9.83635 7.00623 9.83303C6.98051 9.82194 6.92804 9.81419 6.87659 9.80754C6.79737 9.79756 6.72947 9.78759 6.72432 9.74991L6.7233 9.74547L6.72947 9.71999C6.74387 9.69893 6.77885 9.69339 6.80869 9.68785C6.82309 9.68563 6.84779 9.6812 6.85087 9.67676C6.84676 9.67122 6.80766 9.66014 6.77885 9.65349C6.70992 9.63465 6.62556 9.61249 6.61527 9.5604C6.6307 9.52715 6.66157 9.52604 6.71095 9.52383C6.73667 9.52272 6.78091 9.5205 6.78606 9.51385C6.77062 9.4928 6.72124 9.48504 6.67391 9.47617C6.58337 9.45955 6.48152 9.44071 6.47226 9.36202C6.49695 9.30772 6.54942 9.32656 6.60909 9.33321C6.63173 9.33543 6.65436 9.33764 6.6698 9.33764C6.6698 9.3055 6.65231 9.29886 6.6163 9.28556C6.58852 9.27447 6.55251 9.26117 6.50107 9.22904C6.39098 9.16143 6.18007 8.98744 6.19139 8.89546C6.19241 8.88437 6.19962 8.86443 6.22945 8.86443C6.27678 8.86443 6.36526 8.9143 6.43728 8.95308C6.47329 8.97303 6.51444 8.99631 6.5237 8.99631C6.50312 8.98522 6.48255 8.96528 6.45168 8.93757C6.19756 8.70151 5.94549 8.44773 6.01031 8.34799C6.05969 8.3369 6.1348 8.41005 6.25517 8.52752C6.34468 8.61507 6.45683 8.72479 6.48975 8.72479C6.49078 8.7126 6.45477 8.65608 6.4167 8.59734C6.26032 8.35353 5.93417 7.84485 6.02677 7.65312C6.0669 7.64315 6.11114 7.72405 6.22637 7.93905C6.31896 8.11082 6.45991 8.37126 6.50312 8.37126C6.50724 8.35685 6.46711 8.24381 6.42905 8.1341C6.3097 7.79498 6.21402 7.50794 6.25209 7.44256C6.30353 7.42926 6.38378 7.60103 6.51547 7.93683C6.54325 8.00887 6.56897 8.07425 6.58234 8.10307C6.57514 8.07869 6.57206 8.02881 6.56794 7.98116C6.55971 7.86479 6.54839 7.72072 6.55868 7.6509C6.56177 7.6232 6.57926 7.60768 6.60395 7.60768C6.61835 7.60768 6.6307 7.61322 6.63173 7.61322C6.72124 8.74917 7.61942 9.91504 8.98057 9.91504C8.99806 9.91947 9.01144 9.93498 9.01041 9.95382V9.95826L8.99806 9.97821L8.98263 9.96823L8.9672 9.97377C8.9065 10.0635 8.80464 10.1378 8.7923 10.1378C8.77892 10.1212 8.73468 10.027 8.56389 9.98818C8.3715 9.94496 8.25112 9.94052 8.17808 9.94052L8.11429 9.94163C8.0896 9.94163 8.07519 9.94052 8.06593 9.93166L7.96202 9.83413C7.84988 9.72774 7.7758 9.65792 7.63999 9.56705C7.55974 9.51385 7.51756 9.5061 7.48978 9.5061L7.45583 9.5072C7.43525 9.5072 7.41571 9.50277 7.38793 9.47728C7.29739 9.39638 7.24183 9.29553 7.18216 9.18914C7.1338 9.10159 7.08339 9.01182 7.00828 8.91762C6.84161 8.71038 6.71095 8.62948 6.70992 8.62837L6.70889 8.65719C6.69552 8.66273 6.66157 8.64943 6.63379 8.64943C6.62144 8.64943 6.61321 8.65164 6.60909 8.65719C6.62144 8.78352 6.65539 8.81123 6.68008 8.83118C6.69655 8.84448 6.71198 8.85667 6.70992 8.8877C6.70889 8.9143 6.67803 8.9143 6.66465 8.9143L6.62556 8.91319C6.60498 8.91319 6.59881 8.91651 6.59675 8.91873C6.61835 8.99187 6.6914 9.04396 6.7449 9.08275C6.7768 9.10602 6.80252 9.12375 6.81281 9.14038L6.81692 9.14481L6.82104 9.17141C6.81589 9.18249 6.80252 9.1836 6.7912 9.1836L6.74182 9.18138C6.74799 9.23458 6.83235 9.27004 6.90026 9.29885C6.93524 9.31326 6.96713 9.32656 6.98668 9.33875C6.99697 9.3454 7.00931 9.35427 7.00726 9.36646C7.0052 9.38086 6.98771 9.38641 6.9661 9.39195C6.95581 9.39416 6.93524 9.3997 6.93318 9.40414C6.93627 9.413 6.96816 9.43074 6.98874 9.44293C7.02269 9.46287 7.04532 9.47617 7.04327 9.4939C7.04121 9.51385 7.01857 9.5205 6.99594 9.52715C6.98359 9.53159 6.96404 9.53713 6.96199 9.54378C6.97948 9.5737 7.03401 9.59586 7.07722 9.6147C7.1338 9.63798 7.1585 9.64906 7.16055 9.66679C7.16158 9.68563 7.14306 9.69339 7.1266 9.70115C7.11734 9.70558 7.10191 9.71223 7.10088 9.71777C7.1266 9.75767 7.16981 9.75767 7.21097 9.75877C7.248 9.75988 7.28299 9.75988 7.30048 9.78426L7.30665 9.80864C7.30253 9.83192 7.27475 9.84965 7.24903 9.86849C7.23669 9.87735 7.21817 9.88955 7.21611 9.89509C7.32002 9.95826 7.60398 10.1057 7.81901 10.1489C7.88794 10.1622 7.95893 10.1688 8.0361 10.1688C8.06593 10.1688 8.09165 10.1677 8.11223 10.1666L8.14721 10.1655C8.1647 10.1655 8.17293 10.1666 8.17705 10.1744C8.16264 10.2098 8.08137 10.2486 7.93218 10.2486ZM6.53399 9.34762C6.50415 9.34762 6.49695 9.35316 6.49489 9.35537C6.50107 9.42187 6.59983 9.4396 6.67906 9.45401C6.7377 9.46398 6.784 9.47285 6.80149 9.49612L6.8056 9.50166L6.80663 9.52272C6.7984 9.54156 6.76651 9.54378 6.71404 9.54488C6.68832 9.54599 6.64202 9.54821 6.63687 9.55597C6.64408 9.59475 6.72638 9.61581 6.78606 9.63243C6.84367 9.64795 6.87042 9.65571 6.87248 9.67455C6.87556 9.69893 6.8447 9.70336 6.81383 9.7089C6.78811 9.71334 6.75622 9.71777 6.74696 9.73218C6.74799 9.76764 6.82412 9.77761 6.87968 9.78537C6.93524 9.79313 6.98874 9.79978 7.01343 9.81751L7.02475 9.83857C7.02166 9.85187 7.00623 9.85519 6.98256 9.85962C6.97125 9.86184 6.9445 9.86738 6.94244 9.87403C6.94244 9.87403 6.94347 9.88733 7.01034 9.9239C7.17702 10.0137 7.40439 10.1367 7.70995 10.201C7.78918 10.2176 7.86428 10.2264 7.93321 10.2264C8.07828 10.2264 8.15133 10.1888 8.1575 10.1788L8.1112 10.1888C8.09063 10.1899 8.06388 10.191 8.03404 10.191C7.95688 10.191 7.88486 10.1843 7.81387 10.1699C7.59575 10.1278 7.30974 9.9782 7.20479 9.91171C7.19348 9.87846 7.212 9.86738 7.23669 9.84965C7.25624 9.83635 7.28299 9.81751 7.28504 9.80421C7.27167 9.78094 7.2408 9.77983 7.20891 9.77983C7.16467 9.77872 7.11528 9.77761 7.08751 9.73993L7.0803 9.71223C7.08442 9.6956 7.10088 9.68785 7.11837 9.68009C7.12557 9.67676 7.13895 9.67122 7.13998 9.66679C7.13586 9.66125 7.09779 9.64573 7.07002 9.63354C7.01857 9.61249 6.9661 9.59032 6.94861 9.56372L6.94244 9.53491C6.94758 9.51829 6.96816 9.51164 6.98977 9.50499C7.00005 9.50166 7.02269 9.49501 7.02269 9.48947C7.02063 9.48504 6.99491 9.46952 6.97845 9.46066C6.94244 9.4396 6.91775 9.42519 6.91363 9.40746C6.92186 9.37976 6.94141 9.37532 6.96096 9.36978C6.97125 9.36757 6.98565 9.36313 6.98874 9.36092C6.95787 9.3454 6.92701 9.3321 6.89305 9.3188C6.81795 9.28666 6.73256 9.2512 6.70992 9.20355L6.70786 9.19801V9.17252C6.71918 9.15257 6.74593 9.15811 6.76857 9.16032L6.7912 9.16143C6.78914 9.13927 6.76342 9.12154 6.73461 9.10048C6.67597 9.05726 6.60189 9.00517 6.58029 8.93868C6.57617 8.92538 6.57617 8.91319 6.58132 8.90543C6.59058 8.89102 6.60909 8.88992 6.62658 8.88992L6.66465 8.89324C6.67597 8.89324 6.69037 8.89213 6.69037 8.88659C6.6914 8.86664 6.68317 8.85999 6.66774 8.8478C6.64202 8.82675 6.60292 8.79571 6.58646 8.67492C6.5844 8.66162 6.58749 8.65164 6.59366 8.64278C6.61527 8.61618 6.70066 8.64056 6.70272 8.64167L6.70581 8.61396C6.70581 8.61396 6.70581 8.61396 6.70683 8.61396C6.72741 8.61396 6.85602 8.69265 7.02372 8.90321C7.09985 8.99852 7.15026 9.0894 7.19965 9.17695C7.25829 9.28223 7.31282 9.37976 7.40027 9.45955C7.42394 9.48061 7.43834 9.48504 7.45583 9.48504L7.48978 9.48393C7.52271 9.48393 7.56695 9.49169 7.65028 9.54821C7.78815 9.64019 7.86222 9.71001 7.97437 9.8164L8.07828 9.91393C8.08342 9.91836 8.104 9.91836 8.11429 9.91836L8.17808 9.91725C8.25318 9.91725 8.37459 9.92168 8.56801 9.96491C8.75834 10.007 8.7995 10.1156 8.80155 10.1201C8.80155 10.109 8.89415 10.0403 8.93839 9.96823C8.94662 9.95493 8.95588 9.94828 8.9672 9.94828L8.98778 9.95493L8.9888 9.92279L8.97954 9.93388C7.61016 9.93388 6.70375 8.76136 6.61835 7.62763C6.61527 7.62652 6.61012 7.62652 6.60395 7.62652C6.58852 7.62652 6.58029 7.63428 6.57823 7.6509C6.56897 7.7174 6.58029 7.86701 6.58852 7.97673C6.59778 8.10307 6.59778 8.12191 6.5916 8.12966C6.56383 8.11304 6.54016 8.05209 6.49695 7.94348C6.43419 7.785 6.30456 7.45475 6.26855 7.45142C6.23254 7.51459 6.36732 7.89583 6.44757 8.12412C6.52267 8.3369 6.53193 8.36794 6.52267 8.38013L6.50312 8.3901C6.45168 8.3901 6.35291 8.215 6.20888 7.9468C6.13891 7.81603 6.05969 7.66864 6.03912 7.66199C5.95784 7.83931 6.27884 8.34023 6.43316 8.58183C6.50107 8.68822 6.51444 8.70927 6.51238 8.72036L6.51135 8.72922L6.48975 8.74363C6.45168 8.74363 6.37143 8.66716 6.2418 8.54082C6.15435 8.45549 6.05558 8.35796 6.0278 8.35796C5.96504 8.45438 6.3416 8.80347 6.46506 8.91873C6.49695 8.94754 6.51753 8.96749 6.52267 8.97414C6.53399 8.98855 6.54016 8.99852 6.53605 9.00739C6.51033 9.01515 6.48255 8.99963 6.42905 8.97082C6.3632 8.93535 6.27266 8.88437 6.23048 8.88437C6.21402 8.88437 6.21299 8.89324 6.21196 8.89767C6.20373 8.96971 6.38378 9.13151 6.51238 9.20909C6.56177 9.24012 6.59675 9.25342 6.6235 9.26339C6.65951 9.2778 6.6842 9.28666 6.70478 9.32545C6.69552 9.38973 6.65231 9.35759 6.60704 9.35316C6.58337 9.35094 6.55559 9.34762 6.53399 9.34762Z" fill="#F5C832"/>
<path d="M9.88801 10.3539C9.83966 10.3439 9.84583 10.386 9.84583 10.386C9.84994 10.4381 9.81394 10.4935 9.77484 10.5046C9.74397 10.5135 9.75941 10.5379 9.74912 10.5611L9.61948 10.5534C9.41372 10.6742 9.15445 10.7163 8.84477 10.6797C8.84477 10.6797 8.77995 10.7329 8.7213 10.7872C8.66266 10.8426 8.62254 10.8548 8.61122 10.8992C8.59887 10.9435 8.64208 10.9668 8.69558 10.969C8.74908 10.9712 8.81905 10.9169 8.81905 10.9169C8.81905 10.9169 8.8283 10.9612 8.87666 10.9656C8.92604 10.9701 9.01555 10.9335 9.01555 10.9335C9.01555 10.9335 9.09066 10.9701 9.14827 10.9623C9.20589 10.9546 9.25424 10.9158 9.25424 10.9158C9.25424 10.9158 9.26968 10.9878 9.32626 10.99C9.38285 10.9922 9.47236 10.9136 9.47236 10.9136C9.47236 10.9136 9.51454 10.9656 9.56701 10.959C9.61948 10.9523 9.6843 10.8859 9.6843 10.8859C9.6843 10.8859 9.74912 10.9158 9.81085 10.8958C9.87258 10.877 9.93122 10.8083 9.93122 10.8083C9.93122 10.8083 9.98575 10.857 10.0351 10.8393C10.0845 10.8227 10.1174 10.7473 10.1174 10.7473C10.1174 10.7473 10.2491 10.8038 10.3366 10.7584C10.3993 10.7263 10.3819 10.6221 10.3819 10.6221C10.3819 10.6221 10.745 10.6786 10.7286 10.4237C10.7255 10.3971 10.1442 10.4049 9.88801 10.3539Z" fill="#F5C832"/>
<path d="M9.33038 11H9.32729C9.27379 10.9967 9.25322 10.9424 9.24807 10.9235C9.24293 10.9379 9.19972 10.9656 9.15136 10.9723C9.08243 10.969 9.01658 10.9446 9.0135 10.9424C9.01658 10.9446 8.93839 10.9756 8.88695 10.9756C8.83756 10.9712 8.81699 10.9413 8.81184 10.9224C8.8067 10.9379 8.74805 10.9789 8.6997 10.9789C8.65546 10.9778 8.62459 10.9645 8.61019 10.9435C8.60093 10.9302 8.59887 10.9136 8.60402 10.8958C8.61328 10.8626 8.63488 10.846 8.66472 10.8238C8.68015 10.8116 8.69764 10.7983 8.71719 10.7795C8.77583 10.7252 8.84065 10.6709 8.84065 10.6709C8.91987 10.6775 8.98983 10.6819 9.05671 10.6819C9.27276 10.6819 9.46104 10.6354 9.61743 10.5445L9.7522 10.5501C9.74706 10.5223 9.74809 10.5024 9.77587 10.4946C9.81188 10.4847 9.84274 10.4326 9.83966 10.3871C9.83966 10.386 9.8376 10.3694 9.84789 10.355C9.85509 10.3461 9.86538 10.3417 9.87875 10.3417C10.0362 10.3716 10.2738 10.3816 10.4652 10.3894C10.7224 10.4004 10.7399 10.4038 10.7419 10.4226C10.745 10.478 10.7317 10.5246 10.7008 10.5589C10.6442 10.6243 10.5424 10.6376 10.4662 10.6376C10.4271 10.6376 10.3963 10.6332 10.387 10.6321C10.3983 10.642 10.4065 10.7351 10.3438 10.7673C10.2728 10.8038 10.136 10.7639 10.1185 10.7573C10.1226 10.7651 10.0907 10.8315 10.0413 10.8482C9.99604 10.8637 9.93842 10.8238 9.92917 10.816C9.93122 10.8249 9.87669 10.8859 9.81702 10.9047C9.76352 10.9213 9.6915 10.8969 9.6843 10.8947C9.68739 10.8992 9.62566 10.9612 9.57216 10.969C9.57113 10.969 9.57113 10.969 9.57113 10.969C9.51351 10.969 9.47647 10.928 9.4703 10.9213C9.46824 10.9302 9.38697 11 9.33038 11ZM9.2491 10.9058C9.26556 10.9147 9.27894 10.9756 9.32729 10.9778L9.32935 10.9889V10.9789C9.38182 10.9789 9.46516 10.9058 9.46619 10.9036C9.48059 10.9058 9.51454 10.9479 9.55672 10.9479C9.61434 10.9402 9.67504 10.877 9.67607 10.877C9.68533 10.877 9.7234 10.8914 9.76455 10.8914C9.77998 10.8914 9.79336 10.8892 9.80673 10.8847C9.86435 10.867 9.92196 10.8016 9.92196 10.8005C9.92917 10.8027 9.97238 10.8327 10.0104 10.8327C10.0742 10.8138 10.1051 10.744 10.1061 10.744C10.1205 10.7385 10.1853 10.7662 10.2532 10.7662C10.2831 10.7662 10.3098 10.7606 10.3304 10.7495C10.3849 10.7218 10.3705 10.6254 10.3705 10.6243C10.3819 10.6121 10.4158 10.6165 10.4611 10.6165C10.5331 10.6165 10.6298 10.6044 10.6812 10.5445C10.708 10.5135 10.7193 10.4736 10.7162 10.4237C10.7059 10.4215 10.5804 10.416 10.459 10.4115C10.2666 10.4027 10.0279 10.3927 9.88493 10.3639L9.85715 10.3683C9.85817 10.4403 9.82114 10.5013 9.77587 10.5135C9.76249 10.5168 9.76249 10.5224 9.76249 10.5356C9.76146 10.5434 9.76146 10.5534 9.75632 10.5634L9.61743 10.5622C9.4168 10.6819 9.15445 10.724 8.84271 10.6886C8.84374 10.6908 8.78201 10.7418 8.72748 10.7939C8.7069 10.8127 8.68838 10.8271 8.67398 10.8393C8.64517 10.8615 8.62768 10.8748 8.62048 10.9014C8.61739 10.9124 8.61842 10.9224 8.62357 10.9302C8.63488 10.9457 8.66163 10.9568 8.69558 10.9579C8.74703 10.9579 8.81184 10.908 8.81287 10.9069C8.8283 10.9147 8.83654 10.9501 8.87769 10.9535H8.87872C8.93427 10.9535 9.01247 10.9224 9.0135 10.9224C9.02173 10.9235 9.0814 10.9512 9.13284 10.9512C9.20177 10.9435 9.2491 10.9069 9.2491 10.9058Z" fill="#F5C832"/>
<path d="M9.11741 10.0835C9.11741 10.0835 9.22132 10.0403 9.40857 9.99926C9.75838 9.92168 9.87875 9.94717 9.90447 9.92279C10.1812 9.59143 10.3849 9.56483 10.5866 9.4795C10.7471 9.33543 10.7985 9.12819 10.9693 8.91651C11.1391 8.70484 11.2389 8.68711 11.2389 8.68711L11.2615 8.73476C11.2615 8.73476 11.3521 8.66051 11.3479 8.72368C11.3407 8.81788 11.2687 8.90765 11.2718 8.97303C11.2739 9.01515 11.3963 8.95419 11.385 8.99298C11.3572 9.09161 11.2584 9.15257 11.2306 9.19246C11.1885 9.25453 11.3418 9.17141 11.3109 9.23458C11.279 9.29996 11.1247 9.36535 11.064 9.40635C11.0269 9.43184 11.1041 9.43739 11.0969 9.4662C11.0897 9.49501 10.9292 9.55929 10.9313 9.58035C10.9354 9.61027 10.9745 9.61359 10.9559 9.63576C10.922 9.67566 10.7903 9.6812 10.7882 9.70558C10.7862 9.73107 10.816 9.75545 10.7862 9.79535C10.7399 9.85852 10.7039 9.79535 10.6843 9.84632C10.674 9.87514 10.7605 9.93498 10.7018 9.94607C10.6216 9.96158 10.5609 9.99815 10.4919 10.0458C10.4662 10.0635 10.3479 10.0868 10.28 10.1057C10.2358 10.119 9.98781 10.1511 9.9981 10.1733C10.0084 10.1943 10.1648 10.191 10.494 10.13C10.637 10.1034 10.7193 10.0846 10.9426 10.0092C11.1977 9.92169 10.8778 9.91614 10.9292 9.87846C10.9817 9.84078 11.2039 9.85852 11.2111 9.80643C11.2193 9.74437 11.0876 9.76321 11.0918 9.72996C11.0959 9.69782 11.3613 9.69893 11.3767 9.62357C11.385 9.58035 11.2245 9.61027 11.2636 9.55929C11.3016 9.5072 11.5146 9.49612 11.5218 9.39749C11.5259 9.33875 11.349 9.40968 11.3716 9.36202C11.3809 9.34208 11.4529 9.32102 11.5239 9.26782C11.635 9.18471 11.8119 9.03953 11.8017 8.95752C11.7903 8.85556 11.4344 9.19357 11.4652 9.06502C11.4755 9.01847 12.0455 8.53417 11.9519 8.41559C11.8881 8.3358 11.4827 8.85778 11.4693 8.7536C11.4652 8.72036 12.1021 7.94348 11.9858 7.70078C11.956 7.6365 11.4765 8.62726 11.4086 8.54193C11.3901 8.51866 11.8171 7.56446 11.7492 7.46805C11.7163 7.4215 11.6494 7.57998 11.5763 7.75508C11.5033 7.93129 11.423 8.12523 11.4066 8.1485C11.3891 8.17399 11.4251 7.77614 11.4086 7.65312C11.4014 7.60214 11.349 7.62431 11.349 7.62431C11.2749 8.86664 10.1668 9.7887 9.28408 9.92501C9.05465 9.96047 8.9816 10.0768 8.73159 10.2287C8.64723 10.2796 8.51759 10.304 8.40545 10.3716C8.29331 10.4392 8.21306 10.5412 8.17602 10.6055C8.15853 10.6354 8.18425 10.7263 8.20791 10.7362C8.23158 10.7473 8.22952 10.6697 8.25627 10.6553C8.28302 10.642 8.28302 10.683 8.31388 10.6819C8.34475 10.6797 8.37973 10.6487 8.37973 10.6487C8.37973 10.6487 9.00321 10.6476 9.26968 10.6398C9.317 10.6376 9.39725 10.6177 9.43121 10.5778C9.42092 10.5456 9.3489 10.5634 9.30363 10.5667C9.11535 10.5523 8.86843 10.5645 8.69353 10.5534C8.69353 10.5534 8.66472 10.5512 8.66678 10.5212C8.66781 10.5079 8.77892 10.3783 8.77892 10.3783H8.69044C8.69044 10.3783 8.63797 10.4115 8.61122 10.4137C8.58447 10.416 8.57521 10.3982 8.58447 10.3905C8.71719 10.2774 9.11741 10.0835 9.11741 10.0835Z" fill="#F5C832"/>
<path d="M8.211 10.7451L8.20277 10.744C8.18425 10.7351 8.1719 10.7008 8.16779 10.6875C8.15853 10.6576 8.15338 10.6188 8.16573 10.5966C8.20894 10.5246 8.29228 10.4237 8.39928 10.3605C8.45998 10.324 8.52274 10.3007 8.58447 10.2785C8.63694 10.2586 8.68632 10.2409 8.72542 10.2165C8.80567 10.1677 8.8674 10.1223 8.92193 10.0824C9.03922 9.99815 9.12358 9.93609 9.28099 9.91171C10.2172 9.76764 11.2667 8.81234 11.3376 7.62098C11.3572 7.59439 11.4117 7.60658 11.4169 7.6498C11.4261 7.71629 11.4189 7.86258 11.4148 7.97894C11.4117 8.0532 11.4086 8.13077 11.4117 8.14186C11.4117 8.11969 11.4786 7.959 11.5424 7.80384L11.5661 7.74732C11.6514 7.5423 11.6957 7.44477 11.7348 7.44477H11.7399L11.7564 7.45807C11.8006 7.52124 11.6741 7.86036 11.5156 8.26487C11.4642 8.39564 11.4158 8.51866 11.4169 8.53528C11.4652 8.53306 11.6329 8.24049 11.7554 8.0266C11.8984 7.77835 11.9539 7.68415 11.9807 7.68415C12.0856 7.88474 11.7317 8.38567 11.5619 8.62615C11.5198 8.68489 11.4807 8.74141 11.4776 8.75139C11.5064 8.74584 11.5928 8.67048 11.6689 8.59734C11.7718 8.4976 11.8798 8.39343 11.9323 8.39343H11.9364L11.958 8.40562C12.0249 8.48984 11.813 8.71481 11.5907 8.93868C11.5352 8.9952 11.4776 9.05283 11.4735 9.06391C11.4981 9.08053 11.5568 9.04396 11.6113 9.0085C11.7121 8.94311 11.8037 8.89767 11.8109 8.95309C11.8181 9.01958 11.7235 9.12819 11.529 9.27447C11.492 9.30218 11.4539 9.32102 11.4251 9.33654C11.4056 9.34651 11.3829 9.35759 11.3798 9.36424C11.4025 9.36535 11.4158 9.36535 11.4302 9.36313C11.4714 9.3587 11.5105 9.35759 11.5249 9.37311L11.5321 9.39527C11.527 9.46287 11.4426 9.49058 11.3685 9.51607C11.3253 9.53048 11.2852 9.54488 11.2718 9.56262C11.2708 9.57591 11.3006 9.57924 11.3171 9.58146C11.3469 9.58478 11.3737 9.58921 11.3839 9.60362C11.3767 9.67566 11.278 9.69339 11.1905 9.7089C11.1535 9.71555 11.1092 9.72331 11.102 9.73107C11.1051 9.73439 11.1278 9.73883 11.1422 9.74215C11.1782 9.74991 11.2286 9.76099 11.2224 9.80643C11.2173 9.84411 11.1473 9.85187 11.066 9.85962C11.0125 9.86406 10.957 9.87071 10.9364 9.88511C10.9385 9.88733 10.9621 9.89398 10.9786 9.89952C11.0166 9.91171 11.0537 9.92279 11.0537 9.94828C11.0537 9.96491 11.0413 9.98486 10.9467 10.017C10.7214 10.0935 10.6401 10.1123 10.4971 10.1389C10.2409 10.1866 10.1174 10.1943 10.066 10.1943C10.0074 10.1943 9.99501 10.1854 9.99089 10.1766C9.9981 10.1489 10.0393 10.1378 10.1936 10.1112C10.2327 10.1045 10.2656 10.0979 10.279 10.0946C10.3006 10.089 10.3263 10.0824 10.3541 10.0757C10.4096 10.0613 10.4724 10.0469 10.4889 10.0358C10.5547 9.9904 10.6175 9.95161 10.7018 9.93498C10.7162 9.9239 10.7039 9.90728 10.6977 9.8973C10.6843 9.87846 10.671 9.85852 10.6782 9.84078C10.6854 9.82084 10.6967 9.81197 10.7142 9.81197L10.7378 9.82416V9.81308C10.7502 9.81308 10.7646 9.80975 10.781 9.78648C10.7975 9.76432 10.7924 9.7488 10.7862 9.73218C10.7831 9.7222 10.78 9.71223 10.781 9.70225C10.7821 9.68341 10.8088 9.67676 10.8531 9.66568C10.8901 9.65682 10.9354 9.64573 10.9518 9.62689C10.9385 9.60805 10.9271 9.59808 10.9251 9.58035C10.923 9.56372 10.9436 9.55153 11.0064 9.51718C11.0362 9.50056 11.0876 9.47285 11.0907 9.46177C11.0918 9.45733 11.0804 9.44958 11.0722 9.44514C11.0609 9.43849 11.0485 9.43074 11.0475 9.41855V9.413L11.0629 9.39638C11.0804 9.38419 11.1072 9.36978 11.136 9.35316C11.2029 9.31659 11.2852 9.27115 11.3068 9.22793C11.2924 9.21795 11.2821 9.22017 11.2708 9.22128C11.2595 9.2235 11.2492 9.22571 11.2409 9.22571L11.2193 9.21463C11.2142 9.20466 11.2214 9.19357 11.2265 9.18471C11.2358 9.1703 11.2523 9.15589 11.2708 9.13816C11.3109 9.09937 11.3613 9.05172 11.3798 8.98744C11.3665 8.98855 11.3541 8.98966 11.3428 8.99187C11.2955 9.00074 11.2677 8.98744 11.2656 8.97082C11.2636 8.93535 11.2811 8.89546 11.3006 8.85334C11.3191 8.81012 11.3387 8.76468 11.3418 8.72036C11.3202 8.70706 11.2872 8.72811 11.2718 8.74141L11.2348 8.69154C11.2348 8.69819 11.1381 8.72479 10.9806 8.92205C10.9055 9.01625 10.8541 9.10713 10.8047 9.19579C10.744 9.30329 10.6874 9.40525 10.5979 9.48726C10.5598 9.50388 10.5238 9.51718 10.4878 9.53048C10.3181 9.59365 10.1432 9.65792 9.91682 9.92944C9.90344 9.94274 9.87978 9.94385 9.82937 9.94717C9.75426 9.95272 9.62874 9.96158 9.41577 10.0092C9.23161 10.0502 9.12667 10.0935 9.12667 10.0935C9.12255 10.0957 8.72645 10.2874 8.59476 10.396C8.63385 10.3971 8.67604 10.375 8.68941 10.3661L8.78201 10.3639C8.7388 10.4414 8.68324 10.5091 8.67912 10.5201L8.69558 10.5501L8.69661 10.5401C8.87254 10.5512 9.11947 10.5379 9.30774 10.5534L9.33964 10.5501C9.37873 10.5456 9.4312 10.5301 9.44458 10.5722C9.40548 10.6243 9.32112 10.6465 9.27379 10.6476C9.01041 10.6564 8.40031 10.6576 8.38385 10.6576C8.3859 10.6576 8.35092 10.6886 8.318 10.6908C8.29742 10.6908 8.28816 10.6797 8.28096 10.6709C8.25936 10.6675 8.2501 10.6875 8.24495 10.7041C8.23363 10.7252 8.22746 10.7451 8.211 10.7451ZM11.3726 7.62874C11.3623 7.62874 11.3521 7.63207 11.3521 7.63207C11.2872 8.82453 10.2286 9.78759 9.28511 9.93277C9.13181 9.95604 9.04848 10.017 8.93427 10.1001C8.87872 10.14 8.81699 10.1866 8.73571 10.2353C8.69558 10.2608 8.64414 10.2785 8.59167 10.2985C8.53097 10.3207 8.46821 10.3439 8.40957 10.3794C8.30565 10.4426 8.2254 10.539 8.18322 10.6088C8.17602 10.621 8.17808 10.6509 8.18734 10.6808C8.19454 10.7063 8.20483 10.7218 8.211 10.724C8.21409 10.7207 8.21923 10.7063 8.22129 10.6963C8.22746 10.6753 8.23466 10.652 8.25112 10.6431C8.27787 10.6398 8.28508 10.6476 8.29022 10.6553C8.29742 10.6631 8.30154 10.6686 8.3108 10.6686C8.33961 10.6675 8.37253 10.6387 8.37253 10.6387C8.3787 10.6354 9.00218 10.6354 9.26865 10.6265C9.31186 10.6254 9.39005 10.6055 9.42297 10.5689C9.41783 10.5722 9.40651 10.5678 9.38491 10.5678C9.3705 10.5678 9.35301 10.57 9.33655 10.5711L9.3026 10.5744C9.11226 10.5589 8.86637 10.5722 8.69044 10.5611C8.68838 10.5611 8.67295 10.5589 8.66266 10.5467C8.65649 10.539 8.6534 10.5279 8.65546 10.5168C8.65649 10.5057 8.69456 10.4547 8.77069 10.3683L8.68941 10.386C8.69147 10.386 8.639 10.4182 8.61122 10.4215C8.58961 10.4237 8.57521 10.4137 8.57109 10.4016L8.56904 10.3938L8.5783 10.3783C8.71205 10.2686 9.09786 10.0802 9.11535 10.0735C9.11638 10.0724 9.22235 10.0292 9.40857 9.98707C9.62257 9.93942 9.74912 9.92944 9.82525 9.92501C9.86641 9.92169 9.89315 9.92058 9.90036 9.91393C10.1298 9.64019 10.3067 9.5737 10.4786 9.50942C10.5146 9.49612 10.5496 9.48282 10.5856 9.46842C10.671 9.39084 10.7265 9.28999 10.7862 9.18471C10.8366 9.09494 10.888 9.00296 10.9642 8.90765C11.1339 8.69487 11.2358 8.67603 11.2399 8.67492L11.2718 8.7259C11.2697 8.71592 11.3088 8.686 11.3346 8.686L11.3541 8.69487C11.3593 8.70152 11.3623 8.71038 11.3613 8.72257C11.3572 8.77244 11.3366 8.82121 11.3181 8.86443C11.3006 8.90432 11.2841 8.942 11.2852 8.97193C11.3119 8.97747 11.3253 8.97525 11.3387 8.97303C11.3521 8.97082 11.3644 8.9686 11.3737 8.9686L11.3963 8.97747C11.3778 9.06613 11.3232 9.11821 11.2831 9.15589C11.2656 9.17252 11.2502 9.18692 11.242 9.19911C11.2471 9.20576 11.2564 9.20466 11.2667 9.20244C11.279 9.20022 11.2903 9.19801 11.2996 9.19801H11.3047L11.3243 9.20909C11.3315 9.22017 11.3243 9.23458 11.3222 9.23901C11.2986 9.28888 11.2162 9.33321 11.1432 9.37311C11.1154 9.38862 11.0897 9.40303 11.0712 9.41522C11.0928 9.43517 11.1144 9.44736 11.1082 9.46842C11.1041 9.48615 11.0743 9.50388 11.0136 9.53713C10.9858 9.55264 10.9477 9.5737 10.9426 9.58146C10.9446 9.58811 10.9508 9.59254 10.958 9.59919L10.9734 9.62246C10.9457 9.66679 10.8983 9.67787 10.8572 9.68785C10.8345 9.69339 10.8047 9.70115 10.7996 9.7078C10.8109 9.74548 10.8191 9.77097 10.7954 9.802C10.7728 9.83192 10.7522 9.83635 10.7368 9.83635L10.7131 9.83413C10.7059 9.83413 10.7008 9.83524 10.6946 9.84965C10.6926 9.8563 10.7039 9.87292 10.7121 9.88401C10.7255 9.90284 10.7378 9.92169 10.7317 9.9372C10.7286 9.94718 10.7193 9.95272 10.7049 9.95604C10.6236 9.97266 10.564 10.0103 10.4991 10.0536C10.4796 10.0669 10.421 10.0813 10.3582 10.0968C10.3314 10.1034 10.3057 10.1101 10.2841 10.1156C10.2697 10.119 10.2368 10.1256 10.1967 10.1323C10.1421 10.1411 10.0465 10.1588 10.0156 10.171C10.0382 10.1721 10.103 10.191 10.494 10.119C10.636 10.0924 10.7162 10.0735 10.9405 9.99815C11.0321 9.96602 11.0331 9.9505 11.0331 9.9505C11.0331 9.94163 10.9889 9.92723 10.9724 9.92279C10.9364 9.91171 10.9169 9.90395 10.9148 9.88955L10.9138 9.8829L10.9251 9.8696C10.9498 9.85187 11.0053 9.84632 11.065 9.84078C11.1185 9.83413 11.1998 9.82638 11.2029 9.80532C11.207 9.78205 11.1782 9.77429 11.1391 9.76542C11.1092 9.75877 11.0815 9.75323 11.0835 9.72885C11.0856 9.7089 11.1154 9.70336 11.1874 9.69006C11.2564 9.67787 11.3603 9.66014 11.3675 9.62135C11.3623 9.61249 11.3335 9.60805 11.315 9.60584C11.2831 9.60251 11.2564 9.59919 11.2492 9.58035L11.2471 9.57481L11.2564 9.55153C11.2728 9.52826 11.315 9.51385 11.3623 9.49834C11.4313 9.47507 11.5084 9.44847 11.5115 9.39527C11.5053 9.37976 11.4714 9.38087 11.4333 9.3853C11.4025 9.38862 11.3737 9.39638 11.3623 9.37754C11.3695 9.34319 11.387 9.33321 11.4179 9.3177C11.4457 9.30329 11.4827 9.28445 11.5187 9.25785C11.7656 9.07167 11.7965 8.98966 11.7924 8.95641C11.7502 8.94754 11.6833 8.98966 11.6237 9.02845C11.5609 9.06834 11.5074 9.1027 11.4786 9.10381L11.4591 9.09494C11.4539 9.08718 11.4529 9.0761 11.457 9.06058C11.4601 9.04507 11.492 9.01293 11.5805 8.92427C11.7296 8.77466 12.0064 8.49649 11.9457 8.42113C11.8922 8.42224 11.7759 8.52641 11.6854 8.61396C11.5825 8.71371 11.5167 8.77577 11.4848 8.77577H11.4765L11.4621 8.75249C11.4611 8.74141 11.4745 8.72036 11.5496 8.61396C11.7173 8.3768 12.065 7.88364 11.9796 7.7041C11.9632 7.71408 11.8634 7.88696 11.7759 8.0399C11.5979 8.35131 11.4765 8.55634 11.422 8.55634C11.3953 8.53639 11.4014 8.51422 11.5012 8.25933C11.6072 7.98781 11.7852 7.53232 11.744 7.47359C11.7111 7.47137 11.6391 7.6365 11.5877 7.7584L11.564 7.81492C11.4961 7.97784 11.4323 8.13188 11.4169 8.15515C11.3922 8.1485 11.3922 8.12634 11.3983 7.98005C11.4035 7.8648 11.4097 7.71962 11.4004 7.65423C11.3963 7.63539 11.3891 7.62874 11.3726 7.62874Z" fill="#F5C832"/>
<path d="M8.49908 10.4891C8.49805 10.4747 8.46924 10.4836 8.4466 10.488C8.425 10.4935 8.41162 10.5046 8.41265 10.5201C8.41368 10.5345 8.44146 10.5279 8.46307 10.5223C8.48673 10.5168 8.5001 10.5046 8.49908 10.4891Z" fill="#F5C832"/>
<path d="M8.42809 10.5401H8.41883L8.40339 10.5212C8.40134 10.5013 8.41677 10.4858 8.44455 10.4791C8.4641 10.4747 8.47644 10.4714 8.4857 10.4714H8.49496L8.50833 10.4891C8.51039 10.5091 8.4929 10.5268 8.46615 10.5334C8.45175 10.5368 8.43837 10.5401 8.42809 10.5401Z" fill="#F5C832"/>
<path d="M9.29746 5.62061C9.37256 5.63502 9.4096 5.59069 9.42092 5.53085C9.43635 5.44994 9.40343 5.04322 9.40343 5.04322C9.40343 5.04322 9.22852 5.40562 9.21412 5.48652C9.20383 5.54636 9.22235 5.60399 9.29746 5.62061Z" fill="#F5C832"/>
<path d="M9.57216 5.70927C9.64315 5.7403 9.68842 5.70373 9.71002 5.64721C9.73883 5.57074 9.78101 5.16513 9.78101 5.16513C9.78101 5.16513 9.54438 5.4843 9.51557 5.56077C9.49294 5.61729 9.50117 5.67824 9.57216 5.70927Z" fill="#F5C832"/>
<path d="M9.82422 5.85556C9.88801 5.901 9.93842 5.8744 9.97135 5.82342C10.0135 5.75471 10.1288 5.36572 10.1288 5.36572C10.1288 5.36572 9.83863 5.62948 9.79644 5.69819C9.76455 5.74917 9.76043 5.81012 9.82422 5.85556Z" fill="#F5C832"/>
<path d="M10.0465 6.05172C10.101 6.10935 10.1555 6.09383 10.1956 6.05061C10.2491 5.99298 10.4333 5.63502 10.4333 5.63502C10.4333 5.63502 10.101 5.83229 10.0465 5.89102C10.0063 5.93424 9.99192 5.99298 10.0465 6.05172Z" fill="#F5C832"/>
<path d="M10.2286 6.28999C10.2718 6.3587 10.3273 6.35537 10.3757 6.32102C10.4395 6.27447 10.6833 5.96306 10.6833 5.96306C10.6833 5.96306 10.3222 6.08718 10.2584 6.13262C10.21 6.16697 10.1853 6.22128 10.2286 6.28999Z" fill="#F5C832"/>
<path d="M10.3633 6.56262C10.3932 6.63798 10.4487 6.64684 10.5022 6.62357C10.5722 6.59143 10.8695 6.33654 10.8695 6.33654C10.8695 6.33654 10.493 6.38197 10.422 6.41411C10.3685 6.43738 10.3345 6.48615 10.3633 6.56262Z" fill="#F5C832"/>
<path d="M10.4467 6.85852C10.4621 6.93942 10.5156 6.95937 10.5712 6.94717C10.6463 6.93055 10.9837 6.74326 10.9837 6.74326C10.9837 6.74326 10.6051 6.7089 10.531 6.72442C10.4745 6.73661 10.4323 6.77761 10.4467 6.85852Z" fill="#F5C832"/>
<path d="M10.4755 7.1655C10.4765 7.24751 10.5249 7.27854 10.5814 7.27854C10.6576 7.27854 11.0228 7.1655 11.0228 7.1655C11.0228 7.1655 10.6586 7.05135 10.5814 7.05135C10.5238 7.05135 10.4755 7.08238 10.4755 7.1655Z" fill="#F5C832"/>
<path d="M10.4467 7.47248C10.4323 7.55338 10.4745 7.59328 10.531 7.60547C10.6061 7.62209 10.9837 7.58663 10.9837 7.58663C10.9837 7.58663 10.6463 7.39934 10.5712 7.38271C10.5156 7.37274 10.4621 7.39158 10.4467 7.47248Z" fill="#F5C832"/>
<path d="M10.3633 7.76838C10.3345 7.84485 10.3685 7.89361 10.421 7.91688C10.4919 7.94902 10.8685 7.99446 10.8685 7.99446C10.8685 7.99446 10.5722 7.73956 10.5012 7.70743C10.4487 7.68415 10.3932 7.69191 10.3633 7.76838Z" fill="#F5C832"/>
<path d="M10.2286 8.041C10.1864 8.11082 10.2111 8.16513 10.2584 8.19837C10.3222 8.24381 10.6833 8.36793 10.6833 8.36793C10.6833 8.36793 10.4384 8.05541 10.3757 8.00997C10.3273 7.97562 10.2707 7.97229 10.2286 8.041Z" fill="#F5C832"/>
<path d="M10.0465 8.28038C9.99295 8.33912 10.0063 8.39786 10.0475 8.44108C10.101 8.49871 10.4343 8.69708 10.4343 8.69708C10.4343 8.69708 10.2512 8.33912 10.1967 8.28149C10.1555 8.23716 10.101 8.22165 10.0465 8.28038Z" fill="#F5C832"/>
<path d="M9.82422 8.47543C9.76146 8.52198 9.76455 8.58182 9.79542 8.6328C9.8376 8.70151 10.1277 8.96528 10.1277 8.96528C10.1277 8.96528 10.0125 8.57518 9.97032 8.50757C9.93945 8.45659 9.88801 8.43 9.82422 8.47543Z" fill="#F5C832"/>
<path d="M9.57216 8.62172C9.5022 8.65386 9.49396 8.71371 9.51557 8.77133C9.54438 8.8478 9.78101 9.16698 9.78101 9.16698C9.78101 9.16698 9.73883 8.76025 9.71002 8.68489C9.68739 8.62726 9.64212 8.58958 9.57216 8.62172Z" fill="#F5C832"/>
<path d="M8.19968 8.47543C8.13589 8.4311 8.08445 8.45549 8.05256 8.50757C8.01038 8.57628 7.89515 8.96528 7.89515 8.96528C7.89515 8.96528 8.18528 8.70151 8.22746 8.6328C8.25936 8.58182 8.26244 8.52087 8.19968 8.47543Z" fill="#F5C832"/>
<path d="M7.97745 8.28038C7.92292 8.22276 7.8684 8.23716 7.82827 8.28149C7.77374 8.33912 7.59061 8.69708 7.59061 8.69708C7.59061 8.69708 7.92292 8.49871 7.97642 8.44108C8.01758 8.39675 8.03198 8.33801 7.97745 8.28038Z" fill="#F5C832"/>
<path d="M7.79535 8.04101C7.75111 7.9734 7.69658 7.97673 7.64822 8.01108C7.58444 8.05652 7.3406 8.36904 7.3406 8.36904C7.3406 8.36904 7.70172 8.24492 7.76551 8.19948C7.81284 8.16402 7.83856 8.10972 7.79535 8.04101Z" fill="#F5C832"/>
<path d="M7.66057 7.76838C7.63073 7.69302 7.57518 7.68415 7.5227 7.70743C7.45171 7.73956 7.15541 7.99446 7.15541 7.99446C7.15541 7.99446 7.53197 7.94902 7.60296 7.91688C7.65543 7.89361 7.68938 7.84485 7.66057 7.76838Z" fill="#F5C832"/>
<path d="M7.57723 7.47248C7.5618 7.39158 7.50933 7.37163 7.45274 7.38382C7.37764 7.40044 7.04018 7.58774 7.04018 7.58774C7.04018 7.58774 7.41776 7.62209 7.4939 7.60658C7.54946 7.59439 7.59164 7.55338 7.57723 7.47248Z" fill="#F5C832"/>
<path d="M7.54843 7.1655C7.5474 7.08238 7.49904 7.05135 7.44246 7.05135C7.36632 7.05135 7.00108 7.1655 7.00108 7.1655C7.00108 7.1655 7.36529 7.27854 7.44246 7.27854C7.50007 7.27965 7.54843 7.24861 7.54843 7.1655Z" fill="#F5C832"/>
<path d="M7.57723 6.85852C7.59164 6.77761 7.55048 6.73661 7.4939 6.72553C7.41879 6.7089 7.04018 6.74437 7.04018 6.74437C7.04018 6.74437 7.37764 6.93166 7.45274 6.94828C7.50933 6.95937 7.5618 6.93942 7.57723 6.85852Z" fill="#F5C832"/>
<path d="M7.66057 6.56262C7.68938 6.48615 7.65543 6.43738 7.60296 6.41411C7.53197 6.38197 7.15541 6.33654 7.15541 6.33654C7.15541 6.33654 7.45171 6.59143 7.5227 6.62357C7.57518 6.64684 7.63073 6.63908 7.66057 6.56262Z" fill="#F5C832"/>
<path d="M7.79535 6.28999C7.8365 6.22128 7.81284 6.16697 7.76551 6.13262C7.70172 6.08607 7.3406 5.96306 7.3406 5.96306C7.3406 5.96306 7.58444 6.27447 7.64822 6.32102C7.69658 6.35537 7.75317 6.3587 7.79535 6.28999Z" fill="#F5C832"/>
<path d="M7.97745 6.05172C8.03095 5.99298 8.01655 5.93424 7.97642 5.88992C7.92292 5.83118 7.59061 5.63391 7.59061 5.63391C7.59061 5.63391 7.77374 5.99187 7.82827 6.0495C7.8684 6.09383 7.92395 6.10935 7.97745 6.05172Z" fill="#F5C832"/>
<path d="M9.01041 5.7802C9.72134 5.7802 10.2985 6.40192 10.2985 7.16771C10.2985 7.93461 9.72237 8.55523 9.01041 8.55523C8.29845 8.55523 7.7223 7.93461 7.7223 7.16771C7.7223 6.40081 8.29845 5.7802 9.01041 5.7802Z" fill="#F5C832"/>
<path d="M9.01247 5.58958C9.0886 5.58847 9.11741 5.5375 9.11741 5.47543C9.11741 5.39342 9.01247 5 9.01247 5C9.01247 5 8.90753 5.39342 8.90753 5.47543C8.9065 5.5375 8.9353 5.58958 9.01247 5.58958Z" fill="#F5C832"/>
<path d="M9.29746 8.71038C9.22235 8.72811 9.20383 8.78463 9.21515 8.84448C9.22955 8.92538 9.40446 9.28777 9.40446 9.28777C9.40446 9.28777 9.43635 8.88105 9.42195 8.80015C9.4096 8.7403 9.37256 8.69487 9.29746 8.71038Z" fill="#F5C832"/>
<path d="M9.01247 8.74141C8.93633 8.74252 8.90753 8.7935 8.90753 8.85556C8.90753 8.93757 9.01247 9.32989 9.01247 9.32989C9.01247 9.32989 9.11741 8.93757 9.11741 8.85556C9.11741 8.7935 9.0886 8.74141 9.01247 8.74141Z" fill="#F5C832"/>
<path d="M8.72645 8.71038C8.65134 8.69487 8.61431 8.7403 8.60299 8.80015C8.58858 8.88105 8.62048 9.28777 8.62048 9.28777C8.62048 9.28777 8.79435 8.92538 8.80979 8.84448C8.82007 8.78463 8.80155 8.727 8.72645 8.71038Z" fill="#F5C832"/>
<path d="M8.45175 8.62172C8.38076 8.5918 8.33549 8.62726 8.31388 8.68378C8.28508 8.76025 8.24289 9.16587 8.24289 9.16587C8.24289 9.16587 8.47953 8.84669 8.50936 8.77023C8.52994 8.71371 8.52274 8.65275 8.45175 8.62172Z" fill="#F5C832"/>
<path d="M8.19968 5.85556C8.26244 5.80901 8.26038 5.74917 8.22746 5.69708C8.18528 5.62837 7.89515 5.36461 7.89515 5.36461C7.89515 5.36461 8.01038 5.75471 8.05256 5.82231C8.08445 5.8744 8.13487 5.901 8.19968 5.85556Z" fill="#F5C832"/>
<path d="M8.45175 5.70927C8.52171 5.67602 8.52994 5.61729 8.50833 5.55966C8.4785 5.48319 8.24187 5.16402 8.24187 5.16402C8.24187 5.16402 8.28405 5.56963 8.31285 5.6461C8.33652 5.70373 8.38179 5.74141 8.45175 5.70927Z" fill="#F5C832"/>
<path d="M8.72645 5.62061C8.80155 5.60399 8.82007 5.54636 8.80876 5.48652C8.79332 5.40562 8.61945 5.04322 8.61945 5.04322C8.61945 5.04322 8.58756 5.44994 8.60196 5.53085C8.61431 5.59069 8.65134 5.63613 8.72645 5.62061Z" fill="#F5C832"/>
</g>
<defs>
<clipPath id="clip0_7_2456">
<rect width="16" height="16" rx="8" fill="white"/>
</clipPath>
</defs>
</svg>
