<svg width="16" height="16" viewBox="0 0 16 16" fill="none" xmlns="http://www.w3.org/2000/svg">
<g clip-path="url(#clip0_7_2379)">
<rect y="2" width="16" height="12" fill="#40B9D5"/>
<path d="M2.12479 12.6668C2.12479 12.6668 2.30508 12.8177 2.36582 12.7413C2.4638 12.6178 2.06405 12.0123 2.06405 11.7968C2.06405 11.446 2.2992 11.35 2.58922 11.301C2.78322 11.2677 3.10067 11.3147 3.10067 11.3147C3.04188 11.3951 3.00269 11.4186 2.90079 11.4244C3.01249 11.4832 3.12615 11.6067 3.12615 11.8046C3.12615 12.1064 3.00073 12.2318 3.00073 12.5708C3.00073 12.7609 3.15554 13 3.15554 13C2.8812 12.9725 2.74599 12.7178 2.82241 12.5159C2.7793 12.5101 2.74011 12.5199 2.70483 12.5512C2.68524 12.4944 2.71659 12.4297 2.7597 12.3749C2.72443 12.3572 2.69896 12.367 2.64605 12.3788C2.65192 12.32 2.68524 12.2592 2.77146 12.2004C2.52455 12.2632 2.37366 12.0927 2.37366 11.9124C2.37366 11.7772 2.46968 11.6792 2.56178 11.6792C2.59314 11.6792 2.63625 11.6929 2.66172 11.7105C2.67936 11.6733 2.66956 11.6224 2.65192 11.5871C2.72051 11.6047 2.76362 11.6459 2.73227 11.7301C2.78518 11.7341 2.82633 11.7537 2.85376 11.787C2.82633 11.8242 2.78126 11.8458 2.73227 11.8438C2.7695 11.9222 2.72835 11.9673 2.66564 12.0025C2.66564 12.0025 2.70483 11.8438 2.60489 11.8438C2.55982 11.8438 2.51671 11.8595 2.51671 11.9241C2.51671 11.9829 2.56766 12.0633 2.68524 12.0574C2.80281 12.0515 2.89687 11.9771 2.89687 11.7909C2.89687 11.6184 2.75774 11.5322 2.57354 11.5263C2.40894 11.5205 2.28352 11.6106 2.28352 11.7811C2.28352 12.0064 2.61077 12.5238 2.61077 12.7276C2.61077 12.8804 2.47556 12.9627 2.34035 12.9627C2.1679 12.9627 2.02094 12.7903 2.02094 12.7903L2.12479 12.6668Z" fill="#F5C832"/>
<path d="M2.1248 12.6668C2.1248 12.6668 1.94452 12.8177 1.88377 12.7413C1.78579 12.6178 2.18555 12.0123 2.18555 11.7968C2.18555 11.446 1.9504 11.35 1.66038 11.301C1.46638 11.2677 1.14892 11.3147 1.14892 11.3147C1.20967 11.3951 1.2469 11.4186 1.3488 11.4244C1.23711 11.4832 1.12345 11.6067 1.12345 11.8046C1.12345 12.1064 1.24886 12.2318 1.24886 12.5708C1.24886 12.7609 1.09406 13 1.09406 13C1.3684 12.9725 1.50361 12.7178 1.42719 12.5159C1.4703 12.5101 1.50949 12.5199 1.54476 12.5512C1.56436 12.4944 1.533 12.4297 1.49185 12.3749C1.52517 12.3572 1.55064 12.367 1.60551 12.3788C1.59963 12.32 1.56632 12.2592 1.4801 12.2004C1.727 12.2632 1.87789 12.0927 1.87789 11.9124C1.87789 11.7772 1.78383 11.6792 1.68977 11.6792C1.66038 11.6792 1.61531 11.6929 1.58983 11.7105C1.5722 11.6733 1.58199 11.6224 1.59963 11.5871C1.53105 11.6047 1.48793 11.6459 1.51929 11.7301C1.46834 11.7341 1.42523 11.7537 1.39779 11.787C1.42719 11.8242 1.4703 11.8458 1.51929 11.8438C1.4801 11.9222 1.52321 11.9673 1.58591 12.0025C1.58591 12.0025 1.54672 11.8438 1.64666 11.8438C1.69369 11.8438 1.73484 11.8595 1.73484 11.9241C1.73484 11.9829 1.68389 12.0633 1.56632 12.0574C1.44874 12.0515 1.35468 11.9771 1.35468 11.7909C1.35468 11.6184 1.49381 11.5322 1.67801 11.5263C1.84458 11.5205 1.96804 11.6106 1.96804 11.7811C1.96804 12.0064 1.64078 12.5238 1.64078 12.7276C1.64078 12.8804 1.77795 12.9627 1.91121 12.9627C2.08365 12.9627 2.23062 12.7903 2.23062 12.7903L2.1248 12.6668Z" fill="#F5C832"/>
<path d="M2.08756 8.57306C2.08756 8.1929 2.43049 7.9989 2.69699 7.9989C3.05756 7.9989 3.2496 8.21446 3.2496 8.49664C3.2496 8.65537 3.2202 8.75727 3.1477 8.91011C3.1477 8.91011 2.55198 10.1466 2.32075 10.6248C2.29136 10.6855 2.28156 10.7521 2.28156 10.8521C2.28156 11.0049 2.43049 11.1303 2.58725 11.1362C2.7303 11.1401 2.88511 11.003 2.88511 10.8482C2.88511 10.66 2.78713 10.5758 2.68719 10.5758C2.56374 10.5758 2.51279 10.6267 2.51279 10.7129C2.51279 10.7737 2.54218 10.7992 2.58529 10.7992C2.69111 10.7992 2.66172 10.6561 2.66172 10.6561C2.71463 10.6659 2.75774 10.7208 2.73422 10.7894C2.77146 10.7972 2.80869 10.8168 2.83808 10.8501C2.80869 10.8775 2.77733 10.8991 2.73422 10.9069C2.7597 10.9892 2.72639 11.0284 2.65388 11.0461C2.6676 11.0147 2.66956 10.9853 2.66368 10.9579C2.55002 10.9912 2.37562 10.9383 2.37562 10.7443C2.37562 10.5503 2.51083 10.3876 2.76362 10.4268C2.70287 10.3994 2.67348 10.3387 2.66564 10.274C2.71071 10.2916 2.76362 10.2955 2.76362 10.2955C2.73422 10.2426 2.69307 10.1976 2.69503 10.0957C2.74206 10.1153 2.78517 10.1564 2.84592 10.1309C2.75186 9.94478 2.86748 9.69199 3.16142 9.63125C3.05364 9.75666 3.00073 9.89383 3.00073 10.029C3.00073 10.468 3.12222 10.5425 3.12222 10.8482C3.12222 10.9755 3.0556 11.1147 2.92626 11.2087V11.2048C3.01249 11.2283 3.06736 11.2695 3.10067 11.3283C2.90275 11.3831 2.61665 11.3831 2.46184 11.3224C2.28548 11.3028 2.16202 11.1676 2.12675 11.099C2.08952 11.0304 2.01897 10.7815 2.12675 10.5581C2.24432 10.3132 2.79693 9.14527 2.96742 8.77686C3.00465 8.69848 3.0262 8.61617 3.0262 8.52603C3.0262 8.30068 2.81849 8.2223 2.70287 8.2223C2.56178 8.2223 2.41873 8.32811 2.41873 8.46333C2.41873 8.54759 2.46576 8.59854 2.53043 8.59854C2.68915 8.59854 2.67936 8.46333 2.648 8.37906C2.74794 8.42413 2.80477 8.50252 2.78909 8.58678C2.84592 8.59462 2.89883 8.62205 2.94782 8.67692C2.90863 8.72591 2.8616 8.76118 2.78909 8.7651C2.82045 8.89444 2.73422 8.94735 2.648 8.9787C2.67544 8.88268 2.69307 8.7749 2.53043 8.7749C2.41285 8.7749 2.31879 8.75531 2.26392 8.67888C2.26196 8.78078 2.2502 9.18446 2.2502 9.18446C2.24432 9.33731 2.454 9.33143 2.58725 9.28636C2.5363 9.46076 2.43441 9.55482 2.19533 9.53131C2.25216 9.55678 2.31487 9.60969 2.31487 9.71551C2.31487 9.85856 2.19925 10.0134 2.12283 10.0624L2.08756 8.57306Z" fill="#F5C832"/>
<path d="M2.16204 8.57306C2.16204 8.1929 1.82107 7.9989 1.55261 7.9989C1.19204 7.9989 1 8.21446 1 8.49664C1 8.65537 1.02939 8.75727 1.10386 8.91011C1.10386 8.91011 1.69958 10.1466 1.93277 10.6248C1.96216 10.6855 1.97 10.7521 1.97 10.8521C1.97 11.0049 1.82107 11.1303 1.6643 11.1362C1.52125 11.1401 1.36644 11.003 1.36644 10.8482C1.36644 10.66 1.46442 10.5758 1.56436 10.5758C1.68978 10.5758 1.73877 10.6267 1.73877 10.7129C1.73877 10.7737 1.70937 10.7992 1.66626 10.7992C1.56044 10.7992 1.58984 10.6561 1.58984 10.6561C1.53693 10.6659 1.49382 10.7208 1.51733 10.7894C1.47814 10.7972 1.44287 10.8168 1.41347 10.8501C1.44091 10.8775 1.47422 10.8991 1.51733 10.9069C1.49382 10.9892 1.52517 11.0284 1.59768 11.0461C1.58396 11.0147 1.582 10.9853 1.58592 10.9579C1.69958 10.9912 1.87202 10.9383 1.87202 10.7443C1.87202 10.5503 1.73877 10.3876 1.48402 10.4268C1.54477 10.3994 1.57416 10.3387 1.58004 10.274C1.53497 10.2916 1.48402 10.2955 1.48402 10.2955C1.51341 10.2426 1.55457 10.1976 1.55261 10.0957C1.50558 10.1153 1.46246 10.1564 1.40172 10.1309C1.49578 9.94478 1.38016 9.69199 1.08622 9.63125C1.194 9.75666 1.24691 9.89383 1.24691 10.029C1.24691 10.468 1.12541 10.5425 1.12541 10.8482C1.12541 10.9755 1.19204 11.1147 1.32137 11.2087V11.2048C1.23515 11.2283 1.18028 11.2695 1.14893 11.3283C1.34685 11.3831 1.63295 11.3831 1.78776 11.3224C1.96412 11.3028 2.08758 11.1676 2.12481 11.099C2.16204 11.0304 2.23063 10.7815 2.12481 10.5581C2.00723 10.3132 1.45463 9.14527 1.28218 8.77686C1.24495 8.69848 1.22339 8.61617 1.22339 8.52603C1.22339 8.30068 1.43111 8.2223 1.54673 8.2223C1.68782 8.2223 1.83087 8.32811 1.83087 8.46333C1.83087 8.54759 1.78384 8.59854 1.71721 8.59854C1.55849 8.59854 1.56828 8.46333 1.59964 8.37906C1.4997 8.42413 1.44287 8.50252 1.45855 8.58678C1.40368 8.59462 1.34881 8.62205 1.29982 8.67692C1.33901 8.72591 1.38604 8.76118 1.45855 8.7651C1.42719 8.89444 1.51341 8.94735 1.59964 8.9787C1.5722 8.88268 1.55457 8.7749 1.71721 8.7749C1.83479 8.7749 1.92885 8.75531 1.98176 8.67888C1.98568 8.78078 1.99547 9.18446 1.99547 9.18446C2.00331 9.33731 1.79168 9.33143 1.65842 9.28636C1.70937 9.46076 1.81127 9.55482 2.05034 9.53131C1.99352 9.55678 1.93081 9.60969 1.93081 9.71551C1.93081 9.85856 2.04642 10.0134 2.12285 10.0624L2.16204 8.57306Z" fill="#F5C832"/>
<path d="M2.16204 7.43652C2.16204 7.81668 1.82107 8.01068 1.55261 8.01068C1.19204 8.01068 1 7.79512 1 7.51294C1 7.35421 1.02939 7.25427 1.10386 7.09946C1.10386 7.09946 1.69958 5.86296 1.93277 5.38482C1.96216 5.32603 1.97 5.25745 1.97 5.15751C1.97 5.0027 1.82107 4.87924 1.6643 4.87336C1.52125 4.86945 1.36644 5.00662 1.36644 5.16143C1.36644 5.34955 1.46442 5.43381 1.56436 5.43381C1.68978 5.43381 1.73877 5.38286 1.73877 5.29664C1.73877 5.23589 1.70937 5.20846 1.66626 5.20846C1.56044 5.20846 1.58984 5.35151 1.58984 5.35151C1.53693 5.33975 1.49382 5.28684 1.51733 5.21825C1.47814 5.21041 1.44287 5.19082 1.41347 5.15751C1.44091 5.13007 1.47422 5.10852 1.51733 5.10068C1.49382 5.01837 1.52517 4.97722 1.59768 4.96155C1.58396 4.9929 1.582 5.02229 1.58592 5.04973C1.69958 5.01642 1.87202 5.06932 1.87202 5.26332C1.87202 5.45732 1.73877 5.62193 1.48402 5.57882C1.54477 5.60821 1.57416 5.667 1.58004 5.73363C1.53497 5.71599 1.48402 5.71403 1.48402 5.71403C1.51341 5.76498 1.55457 5.81005 1.55261 5.91391C1.50558 5.89235 1.46246 5.85316 1.40172 5.87668C1.49578 6.06284 1.38016 6.31759 1.08622 6.37833C1.194 6.25096 1.24691 6.11575 1.24691 5.98054C1.24887 5.54159 1.12737 5.46908 1.12737 5.16338C1.12737 5.03601 1.194 4.89688 1.32333 4.80282V4.8087C1.23711 4.78518 1.18224 4.74207 1.15089 4.68524C1.34881 4.62842 1.63491 4.63037 1.78972 4.69112C1.96608 4.71072 2.08954 4.84789 2.12677 4.91452C2.164 4.9831 2.23259 5.23197 2.12677 5.45536C2.00919 5.70031 1.45659 6.86823 1.28414 7.23664C1.24691 7.31502 1.22535 7.39536 1.22535 7.48551C1.22535 7.7089 1.43307 7.78728 1.54869 7.78728C1.68978 7.78728 1.83283 7.68146 1.83283 7.54821C1.83283 7.46395 1.7858 7.413 1.71917 7.413C1.56044 7.413 1.57024 7.54821 1.6016 7.63247C1.50166 7.5874 1.44483 7.50902 1.46051 7.42476C1.40564 7.41692 1.35077 7.38948 1.30178 7.33462C1.34097 7.28563 1.388 7.25035 1.46051 7.24839C1.42915 7.11906 1.51537 7.06419 1.6016 7.0348C1.57416 7.12886 1.55653 7.2386 1.71917 7.2386C1.83675 7.2386 1.93081 7.25819 1.98372 7.33658C1.98764 7.23468 1.99743 6.831 1.99743 6.831C2.00527 6.68011 1.79364 6.68403 1.66038 6.7291C1.71133 6.55274 1.81323 6.46064 2.0523 6.48415C1.99547 6.46064 1.93277 6.40577 1.93277 6.29995C1.93277 6.15886 2.04838 6.00209 2.12481 5.95506L2.16204 7.43652Z" fill="#F5C832"/>
<path d="M2.08756 7.43652C2.08756 7.81668 2.43049 8.01068 2.69699 8.01068C3.05756 8.01068 3.2496 7.79513 3.2496 7.51295C3.2496 7.35422 3.2202 7.25428 3.1477 7.09947C3.1477 7.09947 2.55198 5.86297 2.32075 5.38483C2.29136 5.32604 2.28156 5.25745 2.28156 5.15751C2.28156 5.0027 2.43049 4.87925 2.58725 4.87337C2.7303 4.86945 2.88511 5.00662 2.88511 5.16143C2.88511 5.34955 2.78713 5.43382 2.68719 5.43382C2.56374 5.43382 2.51279 5.38287 2.51279 5.29664C2.51279 5.2359 2.54218 5.20846 2.58529 5.20846C2.69111 5.20846 2.66172 5.35151 2.66172 5.35151C2.71463 5.33975 2.75774 5.28685 2.73422 5.21826C2.77146 5.21042 2.80869 5.19083 2.83808 5.15751C2.80869 5.13008 2.77733 5.10852 2.73422 5.10068C2.7597 5.01838 2.72639 4.97723 2.65388 4.96155C2.6676 4.99291 2.66956 5.0223 2.66368 5.04973C2.55002 5.01642 2.37562 5.06933 2.37562 5.26333C2.37562 5.45733 2.51083 5.62194 2.76362 5.57883C2.70287 5.60822 2.67348 5.66701 2.66564 5.73363C2.71071 5.716 2.76362 5.71404 2.76362 5.71404C2.73422 5.76499 2.69307 5.81006 2.69503 5.91392C2.74206 5.89236 2.78517 5.85317 2.84592 5.87668C2.75186 6.06285 2.86748 6.31759 3.16142 6.37834C3.05364 6.25097 3.00073 6.11576 3.00073 5.98054C3.00073 5.54159 3.12222 5.46713 3.12222 5.16143C3.12222 5.03406 3.0556 4.89493 2.92626 4.80087V4.80674C3.01249 4.78323 3.06736 4.74012 3.10067 4.68329C2.90275 4.62646 2.61665 4.62842 2.46184 4.68917C2.28548 4.70877 2.16202 4.84594 2.12675 4.91256C2.08952 4.98115 2.01897 5.23002 2.12675 5.45341C2.24432 5.69836 2.79693 6.86628 2.96742 7.23468C3.00465 7.31307 3.0262 7.39341 3.0262 7.48355C3.0262 7.70695 2.81849 7.78533 2.70287 7.78533C2.56178 7.78533 2.41873 7.67951 2.41873 7.54626C2.41873 7.462 2.46576 7.41105 2.53043 7.41105C2.68915 7.41105 2.67936 7.54626 2.648 7.63052C2.74794 7.58545 2.80477 7.50707 2.78909 7.42281C2.84592 7.41497 2.89883 7.38753 2.94782 7.33266C2.90863 7.28367 2.8616 7.2484 2.78909 7.24644C2.82045 7.11711 2.73422 7.06224 2.648 7.03285C2.67544 7.12691 2.69307 7.23664 2.53043 7.23664C2.41285 7.23664 2.31879 7.25624 2.26392 7.33462C2.26196 7.23272 2.2502 6.82905 2.2502 6.82905C2.24432 6.67816 2.454 6.68208 2.58725 6.72715C2.5363 6.55079 2.43441 6.45868 2.19533 6.4822C2.25216 6.45868 2.31487 6.40382 2.31487 6.298C2.31487 6.15691 2.19925 6.00014 2.12283 5.95311L2.08756 7.43652Z" fill="#F5C832"/>
<path d="M2.12479 3.33509C2.12479 3.33509 2.30508 3.18224 2.36582 3.25867C2.4638 3.38212 2.06405 3.98764 2.06405 4.20319C2.06405 4.55396 2.2992 4.64998 2.58922 4.69897C2.78322 4.73424 3.10067 4.68525 3.10067 4.68525C3.04188 4.60491 3.00269 4.58139 2.90079 4.57551C3.01249 4.51869 3.12615 4.39131 3.12615 4.19535C3.12615 3.89358 3.00073 3.77012 3.00073 3.42915C3.00073 3.23907 3.15554 3 3.15554 3C2.8812 3.02743 2.74599 3.28022 2.82241 3.48402C2.7793 3.4899 2.74011 3.4801 2.70483 3.44875C2.68524 3.50558 2.71659 3.57024 2.7597 3.62511C2.72443 3.64275 2.69896 3.63295 2.64605 3.62119C2.65192 3.67802 2.68524 3.74073 2.77146 3.79756C2.52455 3.73485 2.37366 3.90533 2.37366 4.08562C2.37366 4.22083 2.46968 4.31881 2.56178 4.31881C2.59314 4.31881 2.63625 4.30509 2.66172 4.28745C2.67936 4.32469 2.66956 4.37564 2.65192 4.41287C2.72051 4.39523 2.76362 4.35408 2.73227 4.26982C2.78518 4.2659 2.82633 4.2463 2.85376 4.21299C2.82633 4.17576 2.78126 4.1542 2.73227 4.15616C2.7695 4.07778 2.72835 4.03271 2.66564 3.99743C2.66564 3.99743 2.70483 4.15616 2.60489 4.15616C2.55982 4.15616 2.51671 4.14048 2.51671 4.07582C2.51671 4.01703 2.56766 3.93865 2.68524 3.94257C2.80281 3.94844 2.89687 4.02291 2.89687 4.20907C2.89687 4.38347 2.75774 4.46774 2.57354 4.47362C2.40894 4.47754 2.28352 4.38935 2.28352 4.21887C2.28352 3.99156 2.61077 3.47422 2.61077 3.27238C2.61077 3.12149 2.47556 3.03527 2.34035 3.03527C2.1679 3.03527 2.02094 3.20576 2.02094 3.20576L2.12479 3.33509Z" fill="#F5C832"/>
<path d="M2.1248 3.33509C2.1248 3.33509 1.94452 3.18224 1.88377 3.25867C1.78579 3.38212 2.18555 3.98764 2.18555 4.20319C2.18555 4.55396 1.9504 4.64998 1.66038 4.69897C1.46638 4.73424 1.14892 4.68525 1.14892 4.68525C1.20967 4.60491 1.2469 4.58139 1.3488 4.57551C1.23711 4.51869 1.12345 4.39131 1.12345 4.19535C1.12345 3.89358 1.24886 3.77012 1.24886 3.42915C1.24886 3.23907 1.09406 3 1.09406 3C1.3684 3.02743 1.50361 3.28022 1.42719 3.48402C1.4703 3.4899 1.50949 3.4801 1.54476 3.44875C1.56436 3.50558 1.533 3.57024 1.49185 3.62511C1.52517 3.64275 1.55064 3.63295 1.60551 3.62119C1.59963 3.67802 1.56632 3.74073 1.4801 3.79756C1.727 3.73485 1.87789 3.90533 1.87789 4.08562C1.87789 4.22083 1.78383 4.31881 1.68977 4.31881C1.66038 4.31881 1.61531 4.30509 1.58983 4.28745C1.5722 4.32469 1.58199 4.37564 1.59963 4.41287C1.53105 4.39523 1.48793 4.35408 1.51929 4.26982C1.46834 4.2659 1.42523 4.2463 1.39779 4.21299C1.42719 4.17576 1.4703 4.1542 1.51929 4.15616C1.4801 4.07778 1.52125 4.03467 1.58395 3.99939C1.58395 3.99939 1.54476 4.15812 1.6447 4.15812C1.69173 4.15812 1.73288 4.14244 1.73288 4.07778C1.73288 4.01899 1.68193 3.94061 1.56436 3.94453C1.44678 3.9504 1.35272 4.02487 1.35272 4.21103C1.35272 4.38543 1.49185 4.4697 1.67606 4.47558C1.84262 4.4795 1.96608 4.39131 1.96608 4.22083C1.96608 3.99352 1.63882 3.47618 1.63882 3.27434C1.63882 3.12345 1.77599 3.03723 1.90925 3.03723C2.08169 3.03723 2.22866 3.20772 2.22866 3.20772L2.1248 3.33509Z" fill="#F5C832"/>
<path d="M9.22056 9.92501C7.78096 9.92944 6.76914 8.77688 6.67716 7.62209C6.67716 7.62209 6.62064 7.60103 6.61288 7.65091C6.59515 7.77281 6.64612 8.1485 6.62728 8.12301C6.59182 8.07536 6.32917 7.37163 6.28151 7.44699C6.21835 7.55006 6.5752 8.3502 6.55525 8.37458C6.48321 8.45992 6.07206 7.59328 6.03881 7.65645C5.91358 7.89915 6.54749 8.68711 6.54195 8.72036C6.52754 8.82564 6.05987 8.2959 6.02108 8.35353C5.93353 8.48098 6.52533 8.94644 6.55636 8.9819C6.64723 9.08829 6.23164 8.79461 6.21834 8.89546C6.20837 8.97857 6.42004 9.14703 6.54638 9.21906C6.67272 9.2911 6.71373 9.26893 6.7503 9.33099C6.778 9.37754 6.51203 9.30107 6.51979 9.35981C6.53419 9.47507 6.81125 9.45068 6.85226 9.50277C6.89326 9.55486 6.66386 9.51496 6.67272 9.55818C6.68824 9.63354 6.92318 9.64352 6.92651 9.67676C6.93094 9.71001 6.77911 9.68674 6.78909 9.7488C6.79685 9.802 7.02736 9.7898 7.08277 9.82749C7.13929 9.86517 6.87664 9.83192 7.08055 9.93388C7.28447 10.0358 7.5172 10.15 7.83637 10.212C8.15555 10.2752 8.31846 10.2043 8.32954 10.1843C8.34173 10.1633 8.17882 10.201 7.95274 10.16C7.72666 10.119 7.42411 9.97488 7.29998 9.90395C7.2612 9.88179 7.42078 9.83524 7.38754 9.79202C7.35429 9.7488 7.22573 9.79756 7.17697 9.7355C7.14483 9.6956 7.23792 9.6945 7.2346 9.66901C7.23238 9.64573 7.05839 9.60473 7.02736 9.56151C6.99522 9.51718 7.10604 9.52494 7.11048 9.49501C7.1138 9.47396 7.00076 9.43628 6.993 9.40746C6.98525 9.37865 7.11934 9.38641 7.05617 9.35094C6.98857 9.31215 6.80682 9.26672 6.77246 9.20133C6.73922 9.13705 6.9121 9.2102 6.86666 9.14924C6.83674 9.10824 6.6694 9.0362 6.63393 8.93868C6.60955 8.87329 6.75141 8.92981 6.75362 8.88881C6.75695 8.82342 6.6694 8.86553 6.64169 8.67492C6.63283 8.61286 6.75362 8.65386 6.75362 8.65386L6.77025 8.62061C6.77025 8.62061 6.9121 8.6993 7.09496 8.91208C7.27782 9.12375 7.32991 9.32434 7.50279 9.46952C7.58591 9.53823 7.58702 9.44182 7.77431 9.55818C7.9616 9.67455 8.03918 9.75656 8.23423 9.92279C8.26083 9.94607 8.38828 9.89952 8.76508 9.97821C8.96678 10.0203 9.00889 10.1267 9.00889 10.1267C9.01 10.1311 9.12193 10.058 9.17512 9.9771C9.19618 9.94496 9.21724 9.97599 9.22389 9.97045C9.24494 9.9505 9.22056 9.92501 9.22056 9.92501Z" fill="#F5C832"/>
<path d="M8.08129 10.2486C8.00593 10.2486 7.92392 10.2397 7.83637 10.2231C7.50501 10.1577 7.25898 10.0347 7.07834 9.94385C7.01517 9.91171 6.99079 9.89176 6.993 9.87181C6.99522 9.85187 7.02514 9.84632 7.05396 9.84078C7.06393 9.83857 7.08055 9.83635 7.08388 9.83303C7.05617 9.82194 6.99965 9.81419 6.94424 9.80754C6.85891 9.79756 6.78576 9.78759 6.78022 9.74991L6.77911 9.74547L6.78576 9.71999C6.80128 9.69893 6.83896 9.69339 6.8711 9.68785C6.88661 9.68563 6.91321 9.6812 6.91653 9.67676C6.9121 9.67122 6.86999 9.66014 6.83896 9.65349C6.76471 9.63465 6.67383 9.61249 6.66275 9.5604C6.67937 9.52715 6.71262 9.52604 6.76581 9.52383C6.79352 9.52272 6.84117 9.5205 6.84672 9.51385C6.83009 9.4928 6.7769 9.48504 6.72592 9.47617C6.62839 9.45955 6.51868 9.44071 6.5087 9.36202C6.5353 9.30772 6.59182 9.32656 6.6561 9.33321C6.68048 9.33543 6.70486 9.33764 6.72149 9.33764C6.72149 9.3055 6.70264 9.29886 6.66386 9.28556C6.63393 9.27447 6.59515 9.26117 6.53973 9.22904C6.42115 9.16143 6.19396 8.98744 6.20615 8.89546C6.20726 8.88437 6.21502 8.86443 6.24716 8.86443C6.29814 8.86443 6.39345 8.9143 6.47102 8.95308C6.50981 8.97303 6.55414 8.99631 6.56412 8.99631C6.54195 8.98522 6.51979 8.96528 6.48654 8.93757C6.2128 8.70151 5.94129 8.44773 6.0111 8.34799C6.0643 8.3369 6.1452 8.41005 6.27487 8.52752C6.37128 8.61507 6.49208 8.72479 6.52754 8.72479C6.52865 8.7126 6.48986 8.65608 6.44886 8.59734C6.28041 8.35353 5.92909 7.84485 6.02884 7.65312C6.07206 7.64315 6.11971 7.72405 6.24383 7.93905C6.34358 8.11082 6.4954 8.37126 6.54195 8.37126C6.54638 8.35685 6.50316 8.24381 6.46216 8.1341C6.3336 7.79498 6.23054 7.50794 6.27154 7.44256C6.32695 7.42926 6.41339 7.60103 6.55525 7.93683C6.58517 8.00887 6.61288 8.07425 6.62728 8.10307C6.61953 8.07869 6.6162 8.02881 6.61177 7.98116C6.6029 7.86479 6.59071 7.72072 6.6018 7.6509C6.60512 7.6232 6.62396 7.60768 6.65056 7.60768C6.66607 7.60768 6.67937 7.61322 6.68048 7.61322C6.7769 8.74917 7.74439 9.91504 9.21059 9.91504C9.22943 9.91947 9.24383 9.93498 9.24273 9.95382V9.95826L9.22943 9.97821L9.2128 9.96823L9.19618 9.97377C9.13079 10.0635 9.02108 10.1378 9.00778 10.1378C8.99337 10.1212 8.94572 10.027 8.76175 9.98818C8.55451 9.94496 8.42485 9.94052 8.34616 9.94052L8.27745 9.94163C8.25085 9.94163 8.23534 9.94052 8.22536 9.93166L8.11343 9.83413C7.99263 9.72774 7.91284 9.65792 7.76655 9.56705C7.68011 9.51385 7.63467 9.5061 7.60475 9.5061L7.56818 9.5072C7.54601 9.5072 7.52496 9.50277 7.49504 9.47728C7.39751 9.39638 7.33767 9.29553 7.27339 9.18914C7.2213 9.10159 7.167 9.01182 7.08609 8.91762C6.90656 8.71038 6.76581 8.62948 6.76471 8.62837L6.7636 8.65719C6.74919 8.66273 6.71262 8.64943 6.6827 8.64943C6.6694 8.64943 6.66053 8.65164 6.6561 8.65719C6.6694 8.78352 6.70597 8.81123 6.73257 8.83118C6.7503 8.84448 6.76692 8.85667 6.76471 8.8877C6.7636 8.9143 6.73035 8.9143 6.71594 8.9143L6.67383 8.91319C6.65167 8.91319 6.64502 8.91651 6.6428 8.91873C6.66607 8.99187 6.74476 9.04396 6.80239 9.08275C6.83674 9.10602 6.86445 9.12375 6.87553 9.14038L6.87996 9.14481L6.8844 9.17141C6.87885 9.18249 6.86445 9.1836 6.85226 9.1836L6.79906 9.18138C6.80571 9.23458 6.89659 9.27004 6.96973 9.29885C7.00741 9.31326 7.04177 9.32656 7.06282 9.33875C7.0739 9.3454 7.0872 9.35427 7.08499 9.36646C7.08277 9.38086 7.06393 9.38641 7.04066 9.39195C7.02958 9.39416 7.00741 9.3997 7.00519 9.40414C7.00852 9.413 7.04287 9.43074 7.06504 9.44293C7.10161 9.46287 7.12599 9.47617 7.12378 9.4939C7.12156 9.51385 7.09718 9.5205 7.0728 9.52715C7.0595 9.53159 7.03844 9.53713 7.03622 9.54378C7.05506 9.5737 7.1138 9.59586 7.16035 9.6147C7.2213 9.63798 7.2479 9.64906 7.25011 9.66679C7.25122 9.68563 7.23127 9.69339 7.21354 9.70115C7.20357 9.70558 7.18694 9.71223 7.18584 9.71777C7.21354 9.75767 7.26009 9.75767 7.30442 9.75877C7.34431 9.75988 7.38199 9.75988 7.40084 9.78426L7.40748 9.80864C7.40305 9.83192 7.37313 9.84965 7.34542 9.86849C7.33212 9.87735 7.31218 9.88955 7.30996 9.89509C7.42189 9.95826 7.72776 10.1057 7.95939 10.1489C8.03364 10.1622 8.11011 10.1688 8.19322 10.1688C8.22536 10.1688 8.25307 10.1677 8.27523 10.1666L8.31291 10.1655C8.33175 10.1655 8.34062 10.1666 8.34505 10.1744C8.32954 10.2098 8.24199 10.2486 8.08129 10.2486ZM6.5752 9.34762C6.54306 9.34762 6.5353 9.35316 6.53308 9.35537C6.53973 9.42187 6.64612 9.4396 6.73146 9.45401C6.79463 9.46398 6.8445 9.47285 6.86334 9.49612L6.86777 9.50166L6.86888 9.52272C6.86001 9.54156 6.82566 9.54378 6.76914 9.54488C6.74143 9.54599 6.69156 9.54821 6.68602 9.55597C6.69378 9.59475 6.78244 9.61581 6.84672 9.63243C6.90878 9.64795 6.93759 9.65571 6.93981 9.67455C6.94313 9.69893 6.90989 9.70336 6.87664 9.7089C6.84893 9.71334 6.81458 9.71777 6.8046 9.73218C6.80571 9.76764 6.88772 9.77761 6.94757 9.78537C7.00741 9.79313 7.06504 9.79978 7.09164 9.81751L7.10383 9.83857C7.1005 9.85187 7.08388 9.85519 7.05839 9.85962C7.0462 9.86184 7.01738 9.86738 7.01517 9.87403C7.01517 9.87403 7.01628 9.88733 7.08831 9.9239C7.26785 10.0137 7.51277 10.1367 7.84191 10.201C7.92725 10.2176 8.00815 10.2264 8.0824 10.2264C8.23866 10.2264 8.31735 10.1888 8.324 10.1788L8.27413 10.1888C8.25196 10.1899 8.22315 10.191 8.19101 10.191C8.10789 10.191 8.03031 10.1843 7.95385 10.1699C7.7189 10.1278 7.41081 9.9782 7.29777 9.91171C7.28558 9.87846 7.30553 9.86738 7.33212 9.84965C7.35318 9.83635 7.38199 9.81751 7.38421 9.80421C7.3698 9.78094 7.33656 9.77983 7.3022 9.77983C7.25455 9.77872 7.20135 9.77761 7.17143 9.73993L7.16367 9.71223C7.16811 9.6956 7.18584 9.68785 7.20468 9.68009C7.21243 9.67676 7.22684 9.67122 7.22795 9.66679C7.22352 9.66125 7.18251 9.64573 7.15259 9.63354C7.09718 9.61249 7.04066 9.59032 7.02182 9.56372L7.01517 9.53491C7.02071 9.51829 7.04287 9.51164 7.06615 9.50499C7.07723 9.50166 7.10161 9.49501 7.10161 9.48947C7.09939 9.48504 7.07169 9.46952 7.05396 9.46066C7.01517 9.4396 6.98857 9.42519 6.98414 9.40746C6.993 9.37976 7.01406 9.37532 7.03512 9.36978C7.0462 9.36757 7.06171 9.36313 7.06504 9.36092C7.03179 9.3454 6.99854 9.3321 6.96197 9.3188C6.88107 9.28666 6.78909 9.2512 6.76471 9.20355L6.76249 9.19801V9.17252C6.77468 9.15257 6.80349 9.15811 6.82788 9.16032L6.85226 9.16143C6.85004 9.13927 6.82233 9.12154 6.7913 9.10048C6.72813 9.05726 6.64834 9.00517 6.62507 8.93868C6.62064 8.92538 6.62064 8.91319 6.62618 8.90543C6.63615 8.89102 6.6561 8.88992 6.67494 8.88992L6.71594 8.89324C6.72813 8.89324 6.74365 8.89213 6.74365 8.88659C6.74476 8.86664 6.73589 8.85999 6.71927 8.8478C6.69156 8.82675 6.64945 8.79571 6.63172 8.67492C6.6295 8.66162 6.63283 8.65164 6.63948 8.64278C6.66275 8.61618 6.75473 8.64056 6.75695 8.64167L6.76027 8.61396C6.76027 8.61396 6.76027 8.61396 6.76138 8.61396C6.78355 8.61396 6.92208 8.69265 7.10272 8.90321C7.18473 8.99852 7.23903 9.0894 7.29223 9.17695C7.3554 9.28223 7.41413 9.37976 7.50833 9.45955C7.53382 9.48061 7.54934 9.48504 7.56818 9.48504L7.60475 9.48393C7.64021 9.48393 7.68787 9.49169 7.77764 9.54821C7.92614 9.64019 8.00593 9.71001 8.12673 9.8164L8.23866 9.91393C8.2442 9.91836 8.26637 9.91836 8.27745 9.91836L8.34616 9.91725C8.42706 9.91725 8.55783 9.92168 8.76618 9.96491C8.97121 10.007 9.01554 10.1156 9.01775 10.1201C9.01775 10.109 9.11749 10.0403 9.16515 9.96823C9.17402 9.95493 9.18399 9.94828 9.19618 9.94828L9.21834 9.95493L9.21945 9.92279L9.20948 9.93388C7.73441 9.93388 6.75806 8.76136 6.66607 7.62763C6.66275 7.62652 6.65721 7.62652 6.65056 7.62652C6.63393 7.62652 6.62507 7.63428 6.62285 7.6509C6.61288 7.7174 6.62507 7.86701 6.63393 7.97673C6.64391 8.10307 6.64391 8.12191 6.63726 8.12966C6.60734 8.11304 6.58185 8.05209 6.5353 7.94348C6.4677 7.785 6.32806 7.45475 6.28927 7.45142C6.25048 7.51459 6.39566 7.89583 6.48211 8.12412C6.56301 8.3369 6.57298 8.36794 6.56301 8.38013L6.54195 8.3901C6.48654 8.3901 6.38015 8.215 6.22499 7.9468C6.14963 7.81603 6.0643 7.66864 6.04214 7.66199C5.95458 7.83931 6.30035 8.34023 6.46659 8.58183C6.53973 8.68822 6.55414 8.70927 6.55192 8.72036L6.55082 8.72922L6.52754 8.74363C6.48654 8.74363 6.4001 8.66716 6.26046 8.54082C6.16626 8.45549 6.05987 8.35796 6.02994 8.35796C5.96234 8.45438 6.36796 8.80347 6.50095 8.91873C6.5353 8.94754 6.55747 8.96749 6.56301 8.97414C6.5752 8.98855 6.58185 8.99852 6.57741 9.00739C6.54971 9.01515 6.51979 8.99963 6.46216 8.97082C6.39123 8.93535 6.29371 8.88437 6.24827 8.88437C6.23054 8.88437 6.22943 8.89324 6.22832 8.89767C6.21945 8.96971 6.41339 9.13151 6.55192 9.20909C6.60512 9.24012 6.6428 9.25342 6.67161 9.26339C6.7104 9.2778 6.737 9.28666 6.75917 9.32545C6.74919 9.38973 6.70264 9.35759 6.65388 9.35316C6.62839 9.35094 6.59847 9.34762 6.5752 9.34762Z" fill="#F5C832"/>
<path d="M10.1881 10.3539C10.136 10.3439 10.1426 10.386 10.1426 10.386C10.147 10.4381 10.1083 10.4935 10.0661 10.5046C10.0329 10.5135 10.0495 10.5379 10.0384 10.5611L9.8988 10.5534C9.67716 10.6742 9.39788 10.7163 9.0643 10.6797C9.0643 10.6797 8.99448 10.7329 8.93131 10.7872C8.86814 10.8426 8.82492 10.8548 8.81273 10.8992C8.79943 10.9435 8.84598 10.9668 8.9036 10.969C8.96123 10.9712 9.03659 10.9169 9.03659 10.9169C9.03659 10.9169 9.04657 10.9612 9.09865 10.9656C9.15185 10.9701 9.24827 10.9335 9.24827 10.9335C9.24827 10.9335 9.32917 10.9701 9.39123 10.9623C9.45329 10.9546 9.50538 10.9158 9.50538 10.9158C9.50538 10.9158 9.522 10.9878 9.58296 10.99C9.64391 10.9922 9.74032 10.9136 9.74032 10.9136C9.74032 10.9136 9.78576 10.9656 9.84228 10.959C9.8988 10.9523 9.96862 10.8859 9.96862 10.8859C9.96862 10.8859 10.0384 10.9158 10.1049 10.8958C10.1714 10.877 10.2346 10.8083 10.2346 10.8083C10.2346 10.8083 10.2933 10.857 10.3465 10.8393C10.3997 10.8227 10.4352 10.7473 10.4352 10.7473C10.4352 10.7473 10.577 10.8038 10.6712 10.7584C10.7388 10.7263 10.72 10.6221 10.72 10.6221C10.72 10.6221 11.1112 10.6786 11.0935 10.4237C11.0902 10.3971 10.464 10.4049 10.1881 10.3539Z" fill="#F5C832"/>
<path d="M9.58739 11H9.58406C9.52643 10.9967 9.50427 10.9424 9.49873 10.9235C9.49319 10.9379 9.44664 10.9656 9.39455 10.9723C9.3203 10.969 9.24938 10.9446 9.24605 10.9424C9.24938 10.9446 9.16515 10.9756 9.10974 10.9756C9.05654 10.9712 9.03438 10.9413 9.02884 10.9224C9.0233 10.9379 8.96013 10.9789 8.90804 10.9789C8.86038 10.9778 8.82714 10.9645 8.81162 10.9435C8.80165 10.9302 8.79943 10.9136 8.80497 10.8958C8.81495 10.8626 8.83822 10.846 8.87036 10.8238C8.88698 10.8116 8.90582 10.7983 8.92688 10.7795C8.99005 10.7252 9.05987 10.6709 9.05987 10.6709C9.1452 10.6775 9.22056 10.6819 9.2926 10.6819C9.52533 10.6819 9.72813 10.6354 9.89659 10.5445L10.0418 10.5501C10.0362 10.5223 10.0373 10.5024 10.0673 10.4946C10.106 10.4847 10.1393 10.4326 10.136 10.3871C10.136 10.386 10.1337 10.3694 10.1448 10.355C10.1526 10.3461 10.1637 10.3417 10.1781 10.3417C10.3476 10.3716 10.6036 10.3816 10.8098 10.3894C11.0868 10.4004 11.1057 10.4038 11.1079 10.4226C11.1112 10.478 11.0968 10.5246 11.0636 10.5589C11.0026 10.6243 10.8929 10.6376 10.8109 10.6376C10.7688 10.6376 10.7355 10.6332 10.7255 10.6321C10.7377 10.642 10.7466 10.7351 10.679 10.7673C10.6025 10.8038 10.4551 10.7639 10.4363 10.7573C10.4407 10.7651 10.4064 10.8315 10.3532 10.8482C10.3044 10.8637 10.2424 10.8238 10.2324 10.816C10.2346 10.8249 10.1759 10.8859 10.1116 10.9047C10.054 10.9213 9.97638 10.8969 9.96862 10.8947C9.97195 10.8992 9.90545 10.9612 9.84782 10.969C9.84672 10.969 9.84672 10.969 9.84672 10.969C9.78465 10.969 9.74476 10.928 9.73811 10.9213C9.73589 10.9302 9.64834 11 9.58739 11ZM9.49984 10.9058C9.51757 10.9147 9.53198 10.9756 9.58406 10.9778L9.58628 10.9889V10.9789C9.6428 10.9789 9.73257 10.9058 9.73368 10.9036C9.74919 10.9058 9.78576 10.9479 9.8312 10.9479C9.89326 10.9402 9.95865 10.877 9.95976 10.877C9.96973 10.877 10.0107 10.8914 10.0551 10.8914C10.0717 10.8914 10.0861 10.8892 10.1005 10.8847C10.1626 10.867 10.2246 10.8016 10.2246 10.8005C10.2324 10.8027 10.2789 10.8327 10.3199 10.8327C10.3886 10.8138 10.4219 10.744 10.423 10.744C10.4385 10.7385 10.5083 10.7662 10.5815 10.7662C10.6136 10.7662 10.6424 10.7606 10.6646 10.7495C10.7233 10.7218 10.7078 10.6254 10.7078 10.6243C10.72 10.6121 10.7566 10.6165 10.8053 10.6165C10.8829 10.6165 10.9871 10.6044 11.0425 10.5445C11.0713 10.5135 11.0835 10.4736 11.0802 10.4237C11.0691 10.4215 10.9339 10.416 10.8031 10.4115C10.5959 10.4027 10.3388 10.3927 10.1847 10.3639L10.1548 10.3683C10.1559 10.4403 10.116 10.5013 10.0673 10.5135C10.0528 10.5168 10.0528 10.5224 10.0528 10.5356C10.0517 10.5434 10.0517 10.5534 10.0462 10.5634L9.89659 10.5622C9.68048 10.6819 9.39788 10.724 9.06208 10.6886C9.06319 10.6908 8.9967 10.7418 8.93796 10.7939C8.9158 10.8127 8.89585 10.8271 8.88033 10.8393C8.8493 10.8615 8.83046 10.8748 8.8227 10.9014C8.81938 10.9124 8.82049 10.9224 8.82603 10.9302C8.83822 10.9457 8.86703 10.9568 8.9036 10.9579C8.95902 10.9579 9.02884 10.908 9.02994 10.9069C9.04657 10.9147 9.05543 10.9501 9.09976 10.9535H9.10087C9.16072 10.9535 9.24494 10.9224 9.24605 10.9224C9.25492 10.9235 9.31919 10.9512 9.37461 10.9512C9.44886 10.9435 9.49984 10.9069 9.49984 10.9058Z" fill="#F5C832"/>
<path d="M9.35798 10.0835C9.35798 10.0835 9.46991 10.0403 9.67161 9.99926C10.0484 9.92168 10.1781 9.94717 10.2058 9.92279C10.5039 9.59143 10.7233 9.56483 10.9405 9.4795C11.1134 9.33543 11.1688 9.12819 11.3528 8.91651C11.5357 8.70484 11.6432 8.68711 11.6432 8.68711L11.6676 8.73476C11.6676 8.73476 11.7651 8.66051 11.7606 8.72368C11.7529 8.81788 11.6753 8.90765 11.6786 8.97303C11.6808 9.01515 11.8127 8.95419 11.8005 8.99298C11.7706 9.09161 11.6642 9.15257 11.6343 9.19246C11.5889 9.25453 11.754 9.17141 11.7207 9.23458C11.6864 9.29996 11.5202 9.36535 11.4548 9.40635C11.4149 9.43184 11.498 9.43739 11.4902 9.4662C11.4825 9.49501 11.3096 9.55929 11.3118 9.58035C11.3162 9.61027 11.3584 9.61359 11.3384 9.63576C11.3018 9.67566 11.16 9.6812 11.1578 9.70558C11.1555 9.73107 11.1877 9.75545 11.1555 9.79535C11.1057 9.85852 11.0669 9.79535 11.0458 9.84632C11.0347 9.87514 11.1278 9.93498 11.0647 9.94607C10.9782 9.96158 10.9128 9.99815 10.8386 10.0458C10.8109 10.0635 10.6834 10.0868 10.6103 10.1057C10.5626 10.119 10.2956 10.1511 10.3066 10.1733C10.3177 10.1943 10.4862 10.191 10.8408 10.13C10.9949 10.1034 11.0835 10.0846 11.324 10.0092C11.5988 9.92169 11.2542 9.91614 11.3096 9.87846C11.3661 9.84078 11.6055 9.85852 11.6132 9.80643C11.6221 9.74437 11.4803 9.76321 11.4847 9.72996C11.4891 9.69782 11.7751 9.69893 11.7917 9.62357C11.8005 9.58035 11.6277 9.61027 11.6698 9.55929C11.7108 9.5072 11.9402 9.49612 11.9479 9.39749C11.9524 9.33875 11.7618 9.40968 11.7861 9.36202C11.7961 9.34208 11.8737 9.32102 11.9502 9.26782C12.0698 9.18471 12.2605 9.03953 12.2494 8.95752C12.2372 8.85556 11.8537 9.19357 11.887 9.06502C11.8981 9.01847 12.512 8.53417 12.4112 8.41559C12.3425 8.3358 11.9058 8.85778 11.8914 8.7536C11.887 8.72036 12.573 7.94348 12.4478 7.70078C12.4156 7.6365 11.8992 8.62726 11.826 8.54193C11.8061 8.51866 12.266 7.56446 12.1929 7.46805C12.1574 7.4215 12.0854 7.57998 12.0067 7.75508C11.928 7.93129 11.8415 8.12523 11.8238 8.1485C11.805 8.17399 11.8438 7.77614 11.826 7.65312C11.8183 7.60214 11.7618 7.62431 11.7618 7.62431C11.682 8.86664 10.4884 9.7887 9.53752 9.92501C9.29038 9.96047 9.21169 10.0768 8.94239 10.2287C8.85152 10.2796 8.71188 10.304 8.59108 10.3716C8.47028 10.4392 8.38384 10.5412 8.34395 10.6055C8.32511 10.6354 8.35281 10.7263 8.3783 10.7362C8.40379 10.7473 8.40157 10.6697 8.43039 10.6553C8.4592 10.642 8.4592 10.683 8.49245 10.6819C8.5257 10.6797 8.56338 10.6487 8.56338 10.6487C8.56338 10.6487 9.23497 10.6476 9.522 10.6398C9.57298 10.6376 9.65942 10.6177 9.696 10.5778C9.68491 10.5456 9.60734 10.5634 9.55857 10.5667C9.35577 10.5523 9.08979 10.5645 8.90139 10.5534C8.90139 10.5534 8.87036 10.5512 8.87257 10.5212C8.87368 10.5079 8.99337 10.3783 8.99337 10.3783H8.89806C8.89806 10.3783 8.84154 10.4115 8.81273 10.4137C8.78392 10.416 8.77394 10.3982 8.78392 10.3905C8.92688 10.2774 9.35798 10.0835 9.35798 10.0835Z" fill="#F5C832"/>
<path d="M8.38162 10.7451L8.37276 10.744C8.35281 10.7351 8.33951 10.7008 8.33508 10.6875C8.3251 10.6576 8.31956 10.6188 8.33286 10.5966C8.37941 10.5246 8.46918 10.4237 8.58443 10.3605C8.64982 10.324 8.71742 10.3007 8.78392 10.2785C8.84044 10.2586 8.89363 10.2409 8.93574 10.2165C9.02219 10.1677 9.08868 10.1223 9.14742 10.0824C9.27376 9.99815 9.36463 9.93609 9.53419 9.91171C10.5427 9.76764 11.6731 8.81234 11.7496 7.62098C11.7706 7.59439 11.8294 7.60658 11.8349 7.6498C11.8449 7.71629 11.8371 7.86258 11.8327 7.97894C11.8294 8.0532 11.826 8.13077 11.8294 8.14186C11.8294 8.11969 11.9014 7.959 11.9701 7.80384L11.9956 7.74732C12.0876 7.5423 12.1352 7.44477 12.1773 7.44477H12.1829L12.2006 7.45807C12.2483 7.52124 12.112 7.86036 11.9413 8.26487C11.8859 8.39564 11.8338 8.51866 11.8349 8.53528C11.887 8.53306 12.0676 8.24049 12.1995 8.0266C12.3535 7.77835 12.4134 7.68415 12.4422 7.68415C12.5552 7.88474 12.174 8.38567 11.9912 8.62615C11.9457 8.68489 11.9036 8.74141 11.9003 8.75139C11.9313 8.74584 12.0244 8.67048 12.1064 8.59734C12.2172 8.4976 12.3336 8.39343 12.3901 8.39343H12.3946L12.4178 8.40562C12.4899 8.48984 12.2616 8.71481 12.0222 8.93868C11.9623 8.9952 11.9003 9.05283 11.8958 9.06391C11.9224 9.08053 11.9856 9.04396 12.0444 9.0085C12.153 8.94311 12.2516 8.89767 12.2593 8.95309C12.2671 9.01958 12.1651 9.12819 11.9557 9.27447C11.9158 9.30218 11.8748 9.32102 11.8438 9.33654C11.8227 9.34651 11.7983 9.35759 11.795 9.36424C11.8194 9.36535 11.8338 9.36535 11.8493 9.36313C11.8936 9.3587 11.9357 9.35759 11.9513 9.37311L11.959 9.39527C11.9535 9.46287 11.8626 9.49058 11.7828 9.51607C11.7363 9.53048 11.693 9.54488 11.6786 9.56262C11.6775 9.57591 11.7097 9.57924 11.7274 9.58146C11.7595 9.58478 11.7883 9.58921 11.7994 9.60362C11.7917 9.67566 11.6853 9.69339 11.5911 9.7089C11.5512 9.71555 11.5035 9.72331 11.4958 9.73107C11.4991 9.73439 11.5235 9.73883 11.539 9.74215C11.5778 9.74991 11.6321 9.76099 11.6254 9.80643C11.6199 9.84411 11.5445 9.85187 11.457 9.85962C11.3994 9.86406 11.3395 9.87071 11.3173 9.88511C11.3196 9.88733 11.3451 9.89398 11.3628 9.89952C11.4038 9.91171 11.4437 9.92279 11.4437 9.94828C11.4437 9.96491 11.4304 9.98486 11.3284 10.017C11.0857 10.0935 10.9982 10.1123 10.8441 10.1389C10.5682 10.1866 10.4352 10.1943 10.3798 10.1943C10.3166 10.1943 10.3033 10.1854 10.2989 10.1766C10.3066 10.1489 10.351 10.1378 10.5172 10.1112C10.5593 10.1045 10.5948 10.0979 10.6092 10.0946C10.6325 10.089 10.6602 10.0824 10.6901 10.0757C10.7499 10.0613 10.8175 10.0469 10.8353 10.0358C10.9062 9.9904 10.9738 9.95161 11.0647 9.93498C11.0802 9.9239 11.0669 9.90728 11.0602 9.8973C11.0458 9.87846 11.0314 9.85852 11.0392 9.84078C11.0469 9.82084 11.0591 9.81197 11.078 9.81197L11.1035 9.82416V9.81308C11.1168 9.81308 11.1323 9.80975 11.15 9.78648C11.1677 9.76432 11.1622 9.7488 11.1555 9.73218C11.1522 9.7222 11.1489 9.71223 11.15 9.70225C11.1511 9.68341 11.1799 9.67676 11.2276 9.66568C11.2675 9.65682 11.3162 9.64573 11.334 9.62689C11.3196 9.60805 11.3074 9.59808 11.3052 9.58035C11.3029 9.56372 11.3251 9.55153 11.3927 9.51718C11.4248 9.50056 11.4803 9.47285 11.4836 9.46177C11.4847 9.45733 11.4725 9.44958 11.4636 9.44514C11.4514 9.43849 11.4381 9.43074 11.437 9.41855V9.413L11.4537 9.39638C11.4725 9.38419 11.5013 9.36978 11.5323 9.35316C11.6044 9.31659 11.693 9.27115 11.7163 9.22793C11.7008 9.21795 11.6897 9.22017 11.6775 9.22128C11.6653 9.2235 11.6543 9.22571 11.6454 9.22571L11.6221 9.21463C11.6166 9.20466 11.6243 9.19357 11.6299 9.18471C11.6398 9.1703 11.6576 9.15589 11.6775 9.13816C11.7207 9.09937 11.775 9.05172 11.795 8.98744C11.7806 8.98855 11.7673 8.98966 11.7551 8.99187C11.7041 9.00074 11.6742 8.98744 11.672 8.97082C11.6698 8.93535 11.6886 8.89546 11.7097 8.85334C11.7296 8.81012 11.7507 8.76468 11.754 8.72036C11.7307 8.70706 11.6953 8.72811 11.6786 8.74141L11.6387 8.69154C11.6387 8.69819 11.5346 8.72479 11.365 8.92205C11.2841 9.01625 11.2287 9.10713 11.1755 9.19579C11.1101 9.30329 11.0492 9.40525 10.9527 9.48726C10.9117 9.50388 10.8729 9.51718 10.8342 9.53048C10.6513 9.59365 10.4629 9.65792 10.2191 9.92944C10.2047 9.94274 10.1792 9.94385 10.1249 9.94717C10.044 9.95272 9.90878 9.96158 9.67937 10.0092C9.481 10.0502 9.36796 10.0935 9.36796 10.0935C9.36352 10.0957 8.93685 10.2874 8.795 10.396C8.83711 10.3971 8.88255 10.375 8.89696 10.3661L8.9967 10.3639C8.95015 10.4414 8.89031 10.5091 8.88587 10.5201L8.9036 10.5501L8.90471 10.5401C9.09422 10.5512 9.3602 10.5379 9.56301 10.5534L9.59736 10.5501C9.63947 10.5456 9.69599 10.5301 9.7104 10.5722C9.66829 10.6243 9.57741 10.6465 9.52643 10.6476C9.24273 10.6564 8.58554 10.6576 8.56781 10.6576C8.57003 10.6576 8.53235 10.6886 8.49688 10.6908C8.47472 10.6908 8.46474 10.6797 8.45698 10.6709C8.43371 10.6675 8.42374 10.6875 8.4182 10.7041C8.40601 10.7252 8.39936 10.7451 8.38162 10.7451ZM11.7872 7.62874C11.7762 7.62874 11.7651 7.63207 11.7651 7.63207C11.6953 8.82453 10.5549 9.78759 9.53862 9.93277C9.3735 9.95604 9.28373 10.017 9.16072 10.1001C9.10087 10.14 9.03438 10.1866 8.94683 10.2353C8.9036 10.2608 8.84819 10.2785 8.79167 10.2985C8.72629 10.3207 8.65868 10.3439 8.59551 10.3794C8.48358 10.4426 8.39714 10.539 8.3517 10.6088C8.34395 10.621 8.34616 10.6509 8.35614 10.6808C8.36389 10.7063 8.37498 10.7218 8.38162 10.724C8.38495 10.7207 8.39049 10.7063 8.39271 10.6963C8.39936 10.6753 8.40711 10.652 8.42485 10.6431C8.45366 10.6398 8.46142 10.6476 8.46696 10.6553C8.47472 10.6631 8.47915 10.6686 8.48912 10.6686C8.52015 10.6675 8.55562 10.6387 8.55562 10.6387C8.56227 10.6354 9.23386 10.6354 9.52089 10.6265C9.56744 10.6254 9.65166 10.6055 9.68713 10.5689C9.68159 10.5722 9.6694 10.5678 9.64612 10.5678C9.63061 10.5678 9.61177 10.57 9.59404 10.5711L9.55746 10.5744C9.35244 10.5589 9.08757 10.5722 8.89806 10.5611C8.89585 10.5611 8.87922 10.5589 8.86814 10.5467C8.86149 10.539 8.85817 10.5279 8.86038 10.5168C8.86149 10.5057 8.9025 10.4547 8.98451 10.3683L8.89696 10.386C8.89917 10.386 8.84265 10.4182 8.81273 10.4215C8.78946 10.4237 8.77394 10.4137 8.76951 10.4016L8.76729 10.3938L8.77727 10.3783C8.92134 10.2686 9.33693 10.0802 9.35577 10.0735C9.35687 10.0724 9.47102 10.0292 9.67161 9.98707C9.90213 9.93942 10.0384 9.92944 10.1205 9.92501C10.1648 9.92169 10.1936 9.92058 10.2014 9.91393C10.4485 9.64019 10.6391 9.5737 10.8242 9.50942C10.863 9.49612 10.9006 9.48282 10.9394 9.46842C11.0314 9.39084 11.0913 9.28999 11.1555 9.18471C11.2098 9.09494 11.2653 9.00296 11.3473 8.90765C11.5301 8.69487 11.6398 8.67603 11.6443 8.67492L11.6786 8.7259C11.6764 8.71592 11.7185 8.686 11.7462 8.686L11.7673 8.69487C11.7728 8.70152 11.7762 8.71038 11.775 8.72257C11.7706 8.77244 11.7485 8.82121 11.7285 8.86443C11.7097 8.90432 11.6919 8.942 11.693 8.97193C11.7219 8.97747 11.7363 8.97525 11.7507 8.97303C11.7651 8.97082 11.7784 8.9686 11.7883 8.9686L11.8127 8.97747C11.7928 9.06613 11.734 9.11821 11.6908 9.15589C11.672 9.17252 11.6554 9.18692 11.6465 9.19911C11.652 9.20576 11.662 9.20466 11.6731 9.20244C11.6864 9.20022 11.6986 9.19801 11.7086 9.19801H11.7141L11.7352 9.20909C11.7429 9.22017 11.7352 9.23458 11.7329 9.23901C11.7074 9.28888 11.6188 9.33321 11.5401 9.37311C11.5102 9.38862 11.4825 9.40303 11.4625 9.41522C11.4858 9.43517 11.5091 9.44736 11.5024 9.46842C11.498 9.48615 11.4659 9.50388 11.4005 9.53713C11.3705 9.55264 11.3295 9.5737 11.324 9.58146C11.3262 9.58811 11.3329 9.59254 11.3406 9.59919L11.3572 9.62246C11.3273 9.66679 11.2763 9.67787 11.232 9.68785C11.2076 9.69339 11.1755 9.70115 11.17 9.7078C11.1821 9.74548 11.191 9.77097 11.1655 9.802C11.1411 9.83192 11.119 9.83635 11.1023 9.83635L11.0769 9.83413C11.0691 9.83413 11.0636 9.83524 11.0569 9.84965C11.0547 9.8563 11.0669 9.87292 11.0758 9.88401C11.0902 9.90284 11.1035 9.92169 11.0968 9.9372C11.0935 9.94718 11.0835 9.95272 11.068 9.95604C10.9804 9.97266 10.9162 10.0103 10.8463 10.0536C10.8253 10.0669 10.7621 10.0813 10.6945 10.0968C10.6657 10.1034 10.638 10.1101 10.6147 10.1156C10.5992 10.119 10.5637 10.1256 10.5205 10.1323C10.4618 10.1411 10.3587 10.1588 10.3255 10.171C10.3499 10.1721 10.4197 10.191 10.8408 10.119C10.9937 10.0924 11.0802 10.0735 11.3218 9.99815C11.4204 9.96602 11.4215 9.9505 11.4215 9.9505C11.4215 9.94163 11.3739 9.92723 11.3561 9.92279C11.3173 9.91171 11.2963 9.90395 11.2941 9.88955L11.293 9.8829L11.3052 9.8696C11.3318 9.85187 11.3916 9.84632 11.4559 9.84078C11.5135 9.83413 11.6011 9.82638 11.6044 9.80532C11.6088 9.78205 11.5778 9.77429 11.5357 9.76542C11.5035 9.75877 11.4736 9.75323 11.4758 9.72885C11.478 9.7089 11.5102 9.70336 11.5878 9.69006C11.662 9.67787 11.7739 9.66014 11.7817 9.62135C11.7762 9.61249 11.7451 9.60805 11.7252 9.60584C11.6908 9.60251 11.662 9.59919 11.6543 9.58035L11.652 9.57481L11.662 9.55153C11.6797 9.52826 11.7252 9.51385 11.7762 9.49834C11.8504 9.47507 11.9335 9.44847 11.9369 9.39527C11.9302 9.37976 11.8936 9.38087 11.8526 9.3853C11.8194 9.38862 11.7883 9.39638 11.7762 9.37754C11.7839 9.34319 11.8028 9.33321 11.836 9.3177C11.8659 9.30329 11.9058 9.28445 11.9446 9.25785C12.2106 9.07167 12.2438 8.98966 12.2394 8.95641C12.194 8.94754 12.1219 8.98966 12.0576 9.02845C11.99 9.06834 11.9324 9.1027 11.9014 9.10381L11.8803 9.09494C11.8748 9.08718 11.8737 9.0761 11.8781 9.06058C11.8814 9.04507 11.9158 9.01293 12.0111 8.92427C12.1718 8.77466 12.4699 8.49649 12.4045 8.42113C12.3469 8.42224 12.2217 8.52641 12.1241 8.61396C12.0133 8.71371 11.9424 8.77577 11.908 8.77577H11.8992L11.8837 8.75249C11.8825 8.74141 11.897 8.72036 11.9779 8.61396C12.1585 8.3768 12.5331 7.88364 12.4411 7.7041C12.4234 7.71408 12.3159 7.88696 12.2217 8.0399C12.0299 8.35131 11.8992 8.55634 11.8404 8.55634C11.8116 8.53639 11.8183 8.51422 11.9258 8.25933C12.0399 7.98781 12.2316 7.53232 12.1873 7.47359C12.1519 7.47137 12.0743 7.6365 12.0189 7.7584L11.9934 7.81492C11.9202 7.97784 11.8515 8.13188 11.8349 8.15515C11.8083 8.1485 11.8083 8.12634 11.8149 7.98005C11.8205 7.8648 11.8271 7.71962 11.8172 7.65423C11.8127 7.63539 11.805 7.62874 11.7872 7.62874Z" fill="#F5C832"/>
<path d="M8.69193 10.4891C8.69082 10.4747 8.65979 10.4836 8.63541 10.488C8.61214 10.4935 8.59773 10.5046 8.59884 10.5201C8.59995 10.5345 8.62987 10.5279 8.65314 10.5223C8.67863 10.5168 8.69304 10.5046 8.69193 10.4891Z" fill="#F5C832"/>
<path d="M8.61546 10.5401H8.60549L8.58887 10.5212C8.58665 10.5013 8.60327 10.4858 8.6332 10.4791C8.65425 10.4747 8.66755 10.4714 8.67752 10.4714H8.6875L8.70191 10.4891C8.70412 10.5091 8.68528 10.5268 8.65647 10.5334C8.64095 10.5368 8.62655 10.5401 8.61546 10.5401Z" fill="#F5C832"/>
<path d="M9.55192 5.62061C9.63283 5.63502 9.67272 5.59069 9.68491 5.53085C9.70154 5.44994 9.66607 5.04322 9.66607 5.04322C9.66607 5.04322 9.47767 5.40562 9.46216 5.48652C9.45107 5.54636 9.47102 5.60399 9.55192 5.62061Z" fill="#F5C832"/>
<path d="M9.84782 5.70927C9.92429 5.7403 9.97305 5.70373 9.99633 5.64721C10.0274 5.57074 10.0728 5.16513 10.0728 5.16513C10.0728 5.16513 9.8179 5.4843 9.78687 5.56077C9.76249 5.61729 9.77136 5.67824 9.84782 5.70927Z" fill="#F5C832"/>
<path d="M10.1193 5.85556C10.1881 5.901 10.2424 5.8744 10.2778 5.82342C10.3233 5.75471 10.4474 5.36572 10.4474 5.36572C10.4474 5.36572 10.1349 5.62948 10.0894 5.69819C10.0551 5.74917 10.0506 5.81012 10.1193 5.85556Z" fill="#F5C832"/>
<path d="M10.3587 6.05172C10.4175 6.10935 10.4762 6.09383 10.5194 6.05061C10.577 5.99298 10.7754 5.63502 10.7754 5.63502C10.7754 5.63502 10.4175 5.83229 10.3587 5.89102C10.3155 5.93424 10.3 5.99298 10.3587 6.05172Z" fill="#F5C832"/>
<path d="M10.5549 6.28999C10.6014 6.3587 10.6613 6.35537 10.7134 6.32102C10.7821 6.27447 11.0447 5.96306 11.0447 5.96306C11.0447 5.96306 10.6557 6.08718 10.587 6.13262C10.5349 6.16697 10.5083 6.22128 10.5549 6.28999Z" fill="#F5C832"/>
<path d="M10.7001 6.56262C10.7322 6.63798 10.792 6.64684 10.8497 6.62357C10.925 6.59143 11.2453 6.33654 11.2453 6.33654C11.2453 6.33654 10.8397 6.38197 10.7632 6.41411C10.7056 6.43738 10.669 6.48615 10.7001 6.56262Z" fill="#F5C832"/>
<path d="M10.7898 6.85852C10.8064 6.93942 10.8641 6.95937 10.9239 6.94717C11.0048 6.93055 11.3683 6.74326 11.3683 6.74326C11.3683 6.74326 10.9605 6.7089 10.8807 6.72442C10.8197 6.73661 10.7743 6.77761 10.7898 6.85852Z" fill="#F5C832"/>
<path d="M10.8209 7.1655C10.822 7.24751 10.8741 7.27854 10.935 7.27854C11.017 7.27854 11.4104 7.1655 11.4104 7.1655C11.4104 7.1655 11.0181 7.05135 10.935 7.05135C10.8729 7.05135 10.8209 7.08238 10.8209 7.1655Z" fill="#F5C832"/>
<path d="M10.7898 7.47248C10.7743 7.55338 10.8197 7.59328 10.8807 7.60547C10.9616 7.62209 11.3683 7.58663 11.3683 7.58663C11.3683 7.58663 11.0048 7.39934 10.9239 7.38271C10.8641 7.37274 10.8064 7.39158 10.7898 7.47248Z" fill="#F5C832"/>
<path d="M10.7001 7.76838C10.669 7.84485 10.7056 7.89361 10.7621 7.91688C10.8386 7.94902 11.2442 7.99446 11.2442 7.99446C11.2442 7.99446 10.925 7.73956 10.8486 7.70743C10.792 7.68415 10.7322 7.69191 10.7001 7.76838Z" fill="#F5C832"/>
<path d="M10.5549 8.041C10.5094 8.11082 10.536 8.16513 10.587 8.19837C10.6557 8.24381 11.0447 8.36793 11.0447 8.36793C11.0447 8.36793 10.781 8.05541 10.7134 8.00997C10.6613 7.97562 10.6003 7.97229 10.5549 8.041Z" fill="#F5C832"/>
<path d="M10.3587 8.28038C10.3011 8.33912 10.3155 8.39786 10.3598 8.44108C10.4175 8.49871 10.7765 8.69708 10.7765 8.69708C10.7765 8.69708 10.5793 8.33912 10.5205 8.28149C10.4762 8.23716 10.4175 8.22165 10.3587 8.28038Z" fill="#F5C832"/>
<path d="M10.1193 8.47543C10.0517 8.52198 10.0551 8.58182 10.0883 8.6328C10.1337 8.70151 10.4463 8.96528 10.4463 8.96528C10.4463 8.96528 10.3221 8.57518 10.2767 8.50757C10.2435 8.45659 10.1881 8.43 10.1193 8.47543Z" fill="#F5C832"/>
<path d="M9.84782 8.62172C9.77246 8.65386 9.7636 8.71371 9.78687 8.77133C9.8179 8.8478 10.0728 9.16698 10.0728 9.16698C10.0728 9.16698 10.0274 8.76025 9.99633 8.68489C9.97195 8.62726 9.92318 8.58958 9.84782 8.62172Z" fill="#F5C832"/>
<path d="M8.36943 8.47543C8.30072 8.4311 8.24531 8.45549 8.21096 8.50757C8.16552 8.57628 8.0414 8.96528 8.0414 8.96528C8.0414 8.96528 8.35392 8.70151 8.39936 8.6328C8.43371 8.58182 8.43704 8.52087 8.36943 8.47543Z" fill="#F5C832"/>
<path d="M8.13006 8.28038C8.07132 8.22276 8.01258 8.23716 7.96936 8.28149C7.91062 8.33912 7.71336 8.69708 7.71336 8.69708C7.71336 8.69708 8.07132 8.49871 8.12895 8.44108C8.17328 8.39675 8.18879 8.33801 8.13006 8.28038Z" fill="#F5C832"/>
<path d="M7.9339 8.04101C7.88624 7.9734 7.82751 7.97673 7.77542 8.01108C7.70671 8.05652 7.44406 8.36904 7.44406 8.36904C7.44406 8.36904 7.83305 8.24492 7.90176 8.19948C7.95274 8.16402 7.98044 8.10972 7.9339 8.04101Z" fill="#F5C832"/>
<path d="M7.78872 7.76838C7.75658 7.69302 7.69673 7.68415 7.64021 7.70743C7.56375 7.73956 7.24457 7.99446 7.24457 7.99446C7.24457 7.99446 7.65019 7.94902 7.72666 7.91688C7.78318 7.89361 7.81975 7.84485 7.78872 7.76838Z" fill="#F5C832"/>
<path d="M7.69895 7.47248C7.68233 7.39158 7.62581 7.37163 7.56485 7.38382C7.48395 7.40044 7.12045 7.58774 7.12045 7.58774C7.12045 7.58774 7.52717 7.62209 7.60918 7.60658C7.66903 7.59439 7.71447 7.55338 7.69895 7.47248Z" fill="#F5C832"/>
<path d="M7.66792 7.1655C7.66681 7.08238 7.61472 7.05135 7.55377 7.05135C7.47176 7.05135 7.07834 7.1655 7.07834 7.1655C7.07834 7.1655 7.47065 7.27854 7.55377 7.27854C7.61583 7.27965 7.66792 7.24861 7.66792 7.1655Z" fill="#F5C832"/>
<path d="M7.69895 6.85852C7.71447 6.77761 7.67014 6.73661 7.60918 6.72553C7.52828 6.7089 7.12045 6.74437 7.12045 6.74437C7.12045 6.74437 7.48395 6.93166 7.56485 6.94828C7.62581 6.95937 7.68233 6.93942 7.69895 6.85852Z" fill="#F5C832"/>
<path d="M7.78872 6.56262C7.81975 6.48615 7.78318 6.43738 7.72666 6.41411C7.65019 6.38197 7.24457 6.33654 7.24457 6.33654C7.24457 6.33654 7.56375 6.59143 7.64021 6.62357C7.69673 6.64684 7.75658 6.63908 7.78872 6.56262Z" fill="#F5C832"/>
<path d="M7.9339 6.28999C7.97823 6.22128 7.95274 6.16697 7.90176 6.13262C7.83305 6.08607 7.44406 5.96306 7.44406 5.96306C7.44406 5.96306 7.70671 6.27447 7.77542 6.32102C7.82751 6.35537 7.88846 6.3587 7.9339 6.28999Z" fill="#F5C832"/>
<path d="M8.13006 6.05172C8.18768 5.99298 8.17217 5.93424 8.12895 5.88992C8.07132 5.83118 7.71336 5.63391 7.71336 5.63391C7.71336 5.63391 7.91062 5.99187 7.96936 6.0495C8.01258 6.09383 8.07243 6.10935 8.13006 6.05172Z" fill="#F5C832"/>
<path d="M9.24273 5.7802C10.0085 5.7802 10.6302 6.40192 10.6302 7.16771C10.6302 7.93461 10.0096 8.55523 9.24273 8.55523C8.47583 8.55523 7.85521 7.93461 7.85521 7.16771C7.85521 6.40081 8.47583 5.7802 9.24273 5.7802Z" fill="#F5C832"/>
<path d="M9.24494 5.58958C9.32695 5.58847 9.35798 5.5375 9.35798 5.47543C9.35798 5.39342 9.24494 5 9.24494 5C9.24494 5 9.1319 5.39342 9.1319 5.47543C9.13079 5.5375 9.16182 5.58958 9.24494 5.58958Z" fill="#F5C832"/>
<path d="M9.55192 8.71038C9.47102 8.72811 9.45107 8.78463 9.46327 8.84448C9.47878 8.92538 9.66718 9.28777 9.66718 9.28777C9.66718 9.28777 9.70154 8.88105 9.68602 8.80015C9.67272 8.7403 9.63283 8.69487 9.55192 8.71038Z" fill="#F5C832"/>
<path d="M9.24494 8.74141C9.16293 8.74252 9.1319 8.7935 9.1319 8.85556C9.1319 8.93757 9.24494 9.32989 9.24494 9.32989C9.24494 9.32989 9.35798 8.93757 9.35798 8.85556C9.35798 8.7935 9.32695 8.74141 9.24494 8.74141Z" fill="#F5C832"/>
<path d="M8.93685 8.71038C8.85595 8.69487 8.81605 8.7403 8.80386 8.80015C8.78835 8.88105 8.8227 9.28777 8.8227 9.28777C8.8227 9.28777 9.01 8.92538 9.02662 8.84448C9.0377 8.78463 9.01775 8.727 8.93685 8.71038Z" fill="#F5C832"/>
<path d="M8.64095 8.62172C8.56448 8.5918 8.51572 8.62726 8.49245 8.68378C8.46142 8.76025 8.41598 9.16587 8.41598 9.16587C8.41598 9.16587 8.67088 8.84669 8.70301 8.77023C8.72518 8.71371 8.71742 8.65275 8.64095 8.62172Z" fill="#F5C832"/>
<path d="M8.36943 5.85556C8.43704 5.80901 8.43482 5.74917 8.39936 5.69708C8.35392 5.62837 8.0414 5.36461 8.0414 5.36461C8.0414 5.36461 8.16552 5.75471 8.21096 5.82231C8.24531 5.8744 8.29962 5.901 8.36943 5.85556Z" fill="#F5C832"/>
<path d="M8.64095 5.70927C8.71631 5.67602 8.72518 5.61729 8.70191 5.55966C8.66977 5.48319 8.41487 5.16402 8.41487 5.16402C8.41487 5.16402 8.46031 5.56963 8.49134 5.6461C8.51683 5.70373 8.56559 5.74141 8.64095 5.70927Z" fill="#F5C832"/>
<path d="M8.93685 5.62061C9.01775 5.60399 9.0377 5.54636 9.02551 5.48652C9.00889 5.40562 8.8216 5.04322 8.8216 5.04322C8.8216 5.04322 8.78724 5.44994 8.80276 5.53085C8.81605 5.59069 8.85595 5.63613 8.93685 5.62061Z" fill="#F5C832"/>
</g>
<defs>
<clipPath id="clip0_7_2379">
<rect y="2" width="16" height="12" rx="2" fill="white"/>
</clipPath>
</defs>
</svg>
