<svg width="16" height="16" viewBox="0 0 16 16" fill="none" xmlns="http://www.w3.org/2000/svg">
<g clip-path="url(#clip0_7_2378)">
<rect y="2" width="16" height="12" fill="#D60A2E"/>
<g clip-path="url(#clip1_7_2378)">
<path d="M8.84831 9.79562C8.73528 9.8453 8.61617 9.88553 8.49171 9.91511C8.02986 10.0249 7.56723 9.97062 7.16549 9.79017C7.15881 9.7117 7.15541 9.63231 7.15541 9.55212C7.15541 8.76697 7.48196 8.05757 8.00714 7.55131C8.53231 8.05757 8.85886 8.76697 8.85886 9.55212C8.85886 9.63416 8.8553 9.71538 8.84831 9.79562Z" fill="#FFEF00"/>
<path d="M9.05777 9.68887C9.06484 9.60811 9.06845 9.52635 9.06845 9.44376C9.06845 8.63721 8.72425 7.91098 8.17428 7.40256C8.20898 7.37407 8.24438 7.3464 8.28046 7.31957C8.8653 7.83689 9.24415 8.57652 9.24415 9.38869C9.24415 9.44986 9.242 9.51052 9.23778 9.57061C9.1802 9.61293 9.12014 9.65243 9.05777 9.68887Z" fill="#FFEF00"/>
<path d="M9.52954 9.30992C9.52848 8.46409 9.11658 7.6972 8.48907 7.17853C8.54141 7.14648 8.59489 7.11609 8.64944 7.08744C9.25175 7.58139 9.65766 8.30338 9.69602 9.10508C9.64505 9.1767 9.58945 9.24515 9.52954 9.30992Z" fill="#FFEF00"/>
<path d="M6.95585 9.68129C6.89383 9.64445 6.83374 9.6044 6.77586 9.5613C6.77206 9.50425 6.77012 9.4467 6.77012 9.38869C6.77012 8.57652 7.14897 7.83689 7.73381 7.31957C7.76989 7.3464 7.80529 7.37407 7.83999 7.40256C7.29002 7.91098 6.94582 8.63721 6.94582 9.44376C6.94582 9.52377 6.94921 9.60299 6.95585 9.68129Z" fill="#FFEF00"/>
<path d="M6.48565 9.29906C6.4259 9.23376 6.37017 9.16437 6.31895 9.0912C6.3613 8.29505 6.766 7.57854 7.36483 7.08744C7.41939 7.1161 7.47289 7.14649 7.52525 7.17856C6.90054 7.695 6.48972 8.45755 6.48565 9.29906Z" fill="#FFEF00"/>
<path d="M6.13829 8.7769C6.22496 8.06734 6.59856 7.43207 7.13409 6.97941C6.87203 6.87102 6.58985 6.8012 6.29471 6.77706C5.98835 7.23565 5.86678 7.81492 6.00528 8.39296C6.03752 8.52753 6.08237 8.65583 6.13829 8.7769Z" fill="#FFEF00"/>
<path d="M6.75414 6.28639C6.978 6.11471 7.24107 5.98628 7.5337 5.91674C8.16385 5.767 8.79545 5.92252 9.27187 6.2874C9.18959 6.28015 9.10627 6.27644 9.02207 6.27644C8.66947 6.27644 8.32649 6.34312 8.00714 6.46434C7.68778 6.34312 7.34481 6.27644 6.9922 6.27644C6.912 6.27644 6.8326 6.2798 6.75414 6.28639Z" fill="#FFEF00"/>
<path d="M6.37803 6.6612C6.70102 6.67314 7.01003 6.73965 7.29602 6.85174C7.33059 6.82634 7.36572 6.80167 7.40138 6.77774C7.1017 6.6583 6.78032 6.58707 6.44906 6.57429C6.42459 6.60264 6.4009 6.63162 6.37803 6.6612Z" fill="#FFEF00"/>
<path d="M6.51761 6.49878C6.54324 6.47191 6.56963 6.4457 6.59676 6.42019C6.66255 6.41557 6.72899 6.41322 6.79599 6.41322C7.12515 6.41322 7.44591 6.47133 7.7469 6.57767C7.69195 6.60478 7.63789 6.63356 7.58481 6.66392C7.28145 6.55582 6.95783 6.49671 6.62564 6.49671C6.58947 6.49671 6.55346 6.49741 6.51761 6.49878Z" fill="#FFEF00"/>
<path d="M9.64763 6.6608C9.32052 6.67159 9.0076 6.73833 8.71825 6.85174C8.68368 6.82634 8.64855 6.80167 8.61289 6.77773C8.91593 6.65696 9.24116 6.58548 9.57636 6.57388C9.60086 6.60215 9.62463 6.63113 9.64763 6.6608Z" fill="#FFEF00"/>
<path d="M9.4294 6.42105C9.35972 6.41586 9.28932 6.41322 9.21828 6.41322C8.88912 6.41322 8.56836 6.47133 8.26737 6.57767C8.32232 6.60478 8.37638 6.63356 8.42947 6.66392C8.73282 6.55582 9.05643 6.49671 9.38863 6.49671C9.42875 6.49671 9.46867 6.49757 9.50839 6.49926C9.48274 6.47245 9.4564 6.44637 9.4294 6.42105Z" fill="#FFEF00"/>
<path d="M9.73076 6.77616C9.86234 6.97283 9.96184 7.1956 10.0201 7.43889C10.1336 7.91254 10.0725 8.38702 9.87816 8.79525C9.79573 8.07829 9.42032 7.43597 8.88018 6.97941C9.14556 6.86965 9.43156 6.79944 9.73076 6.77616Z" fill="#FFEF00"/>
<path d="M7.90235 7.18101C7.93671 7.15478 7.97165 7.12927 8.00714 7.10451C8.04262 7.12927 8.07756 7.15478 8.11192 7.18101C8.07636 7.20646 8.04142 7.23272 8.00714 7.25976C7.97285 7.23272 7.93791 7.20646 7.90235 7.18101Z" fill="#FFEF00"/>
<path d="M7.80341 6.97415C7.76725 6.99767 7.73162 7.02195 7.69654 7.04696C7.64353 7.01566 7.5894 6.98606 7.53422 6.95822C7.56932 6.93335 7.60497 6.90921 7.64114 6.88583C7.69617 6.91363 7.75029 6.94309 7.80341 6.97415Z" fill="#FFEF00"/>
<path d="M8.21088 6.97414C8.24705 6.99766 8.28268 7.02193 8.31776 7.04694C8.37076 7.01565 8.42488 6.98605 8.48005 6.95822C8.44495 6.93335 8.4093 6.90921 8.37313 6.88583C8.31811 6.91362 8.264 6.94308 8.21088 6.97414Z" fill="#FFEF00"/>
<path d="M8.17496 6.76821C8.11809 6.79465 8.06213 6.82286 8.00715 6.85275C7.95217 6.82286 7.8962 6.79465 7.83932 6.76821C7.8943 6.73836 7.95027 6.71019 8.00714 6.6838C8.064 6.7102 8.11997 6.73836 8.17496 6.76821Z" fill="#FFEF00"/>
<path d="M6.74961 5.88387C6.84504 5.82791 6.94314 5.77728 7.0466 5.73376C6.97882 5.62896 6.8058 5.35006 6.74693 5.144C6.67202 4.88465 6.59353 4.56312 6.20736 4.42278C6.20736 4.42278 6.44192 4.70345 6.48919 5.14755C6.52486 5.50017 6.6845 5.78173 6.74961 5.88387Z" fill="#FFEF00"/>
<path d="M6.95206 4.94771C6.93333 5.30121 7.0466 5.60409 7.09476 5.71511C7.19732 5.67425 7.30256 5.6405 7.41137 5.61386C7.36054 5.50017 7.23389 5.19729 7.20803 4.98412C7.17503 4.71678 7.14827 4.38637 6.78796 4.18741C6.78796 4.18741 6.97525 4.50094 6.95206 4.94771Z" fill="#FFEF00"/>
<path d="M7.44259 4.82158C7.36856 5.16798 7.43278 5.48507 7.4631 5.60142C7.57012 5.57744 7.67982 5.56056 7.7922 5.55168C7.76009 5.43178 7.6825 5.11202 7.68963 4.89708C7.69944 4.62796 7.72441 4.29755 7.39978 4.0453C7.39978 4.0453 7.53534 4.38459 7.44259 4.82158Z" fill="#FFEF00"/>
<path d="M6.0602 5.41934C6.15295 5.7613 6.35452 6.01443 6.43389 6.10503C6.51951 6.03486 6.60959 5.97002 6.70412 5.9114C6.62118 5.81814 6.40624 5.56945 6.31438 5.37493C6.20022 5.13068 6.07179 4.82514 5.66778 4.74697C5.66867 4.74697 5.94426 4.98768 6.0602 5.41934Z" fill="#FFEF00"/>
<path d="M5.68116 5.7533C5.82653 6.07661 6.06555 6.29599 6.1592 6.37238C6.23233 6.28977 6.31171 6.21161 6.39554 6.13878C6.29922 6.06062 6.04682 5.84745 5.92642 5.66981C5.7748 5.44687 5.6 5.16443 5.18885 5.15022C5.18796 5.15022 5.49833 5.34562 5.68116 5.7533Z" fill="#FFEF00"/>
<path d="M5.62408 7.38137C5.65173 7.27301 5.68651 7.1682 5.72843 7.06695C5.60624 7.0403 5.28606 6.96569 5.09699 6.86177C4.85975 6.73121 4.57614 6.5589 4.20334 6.73299C4.20334 6.73299 4.56901 6.76585 4.91773 7.04652C5.19242 7.26857 5.50546 7.35472 5.62408 7.38137Z" fill="#FFEF00"/>
<path d="M8 5.54191C8.0544 5.54191 8.10702 5.54458 8.16054 5.54813C8.14716 5.42467 8.11773 5.09781 8.15786 4.88553C8.2078 4.62085 8.28272 4.29755 8 4C8 4 8.08294 4.35617 7.92508 4.77362C7.80022 5.10492 7.81538 5.42911 7.82787 5.54813C7.88495 5.54458 7.94203 5.54191 8 5.54191Z" fill="#FFEF00"/>
<path d="M5.10234 6.57666C5.34047 6.83868 5.63478 6.97369 5.74805 7.0181C5.79175 6.91595 5.84259 6.81736 5.89967 6.72322C5.78283 6.67792 5.47871 6.55357 5.30836 6.42212C5.09521 6.25602 4.84103 6.04197 4.44593 6.15566C4.44593 6.15566 4.80178 6.24536 5.10234 6.57666Z" fill="#FFEF00"/>
<path d="M5.3592 6.14233C5.55273 6.43899 5.82386 6.61752 5.92821 6.67969C5.98796 6.58643 6.05307 6.49672 6.12441 6.41235C6.0165 6.35017 5.73467 6.17964 5.58751 6.02243C5.4029 5.82525 5.18618 5.57389 4.7777 5.62451C4.7777 5.62363 5.11483 5.7684 5.3592 6.14233Z" fill="#FFEF00"/>
<path d="M9.29944 5.91318C9.39398 5.9718 9.48406 6.03664 9.56878 6.10769C9.63122 6.00022 9.80067 5.71866 9.95764 5.57122C10.1547 5.38648 10.4054 5.16887 10.3527 4.76296C10.3527 4.76296 10.21 5.09959 9.83545 5.34473C9.53846 5.53925 9.36098 5.80926 9.29944 5.91318Z" fill="#FFEF00"/>
<path d="M11.0439 6.92484C10.689 6.90796 10.3857 7.02254 10.2742 7.0705C10.3153 7.17264 10.3501 7.27745 10.3777 7.38492C10.4919 7.3343 10.7951 7.2064 11.0091 7.17886C11.2776 7.14422 11.6094 7.1158 11.8065 6.75697C11.8056 6.75786 11.4916 6.94615 11.0439 6.92484Z" fill="#FFEF00"/>
<path d="M10.1021 6.72766C10.1592 6.82181 10.21 6.9204 10.2537 7.02254C10.359 6.95415 10.6381 6.78095 10.845 6.72055C11.1046 6.64505 11.4274 6.56512 11.5666 6.17964C11.5666 6.17964 11.2856 6.41501 10.8397 6.46386C10.4865 6.50205 10.2047 6.66193 10.1021 6.72766Z" fill="#FFEF00"/>
<path d="M11.1724 7.41246C10.8245 7.34051 10.5061 7.40624 10.3893 7.43644C10.4134 7.54302 10.4312 7.65227 10.441 7.7633C10.5614 7.73132 10.8816 7.65138 11.0974 7.65849C11.3677 7.66648 11.6994 7.69046 11.9518 7.36627C11.9518 7.36627 11.612 7.50305 11.1724 7.41246Z" fill="#FFEF00"/>
<path d="M11.1108 8.14611C11.3766 8.19585 11.7003 8.27134 12 7.99067C12 7.99067 11.6424 8.07328 11.2232 7.91518C10.8905 7.78994 10.5659 7.80504 10.4455 7.81659C10.4491 7.87166 10.4517 7.92761 10.4517 7.98357C10.4517 8.03864 10.4491 8.09282 10.4455 8.14789C10.5695 8.13456 10.8986 8.10614 11.1108 8.14611Z" fill="#FFEF00"/>
<path d="M9.25485 5.88564C9.29944 5.76929 9.42252 5.46553 9.55451 5.29499C9.71951 5.08183 9.93356 4.8278 9.81761 4.43433C9.81761 4.43433 9.72932 4.78872 9.39755 5.08982C9.13534 5.32786 9.00245 5.62185 8.95786 5.73465C9.06042 5.77906 9.15942 5.82969 9.25485 5.88564Z" fill="#FFEF00"/>
<path d="M4.80713 7.53858C5.11483 7.71533 5.43857 7.75175 5.55897 7.75974C5.56878 7.64872 5.58751 7.53947 5.61159 7.43289C5.48673 7.42578 5.15853 7.4018 4.95518 7.32808C4.701 7.23659 4.39331 7.11047 4.05173 7.34051C4.05262 7.34051 4.41828 7.31564 4.80713 7.53858Z" fill="#FFEF00"/>
<path d="M8.21316 5.55168C8.32464 5.56145 8.43434 5.57833 8.54225 5.60231C8.54849 5.47796 8.57168 5.1511 8.64392 4.9486C8.73489 4.69457 8.85976 4.38725 8.62698 4.04885C8.62698 4.04885 8.65284 4.41301 8.43166 4.80115C8.25507 5.10936 8.22029 5.43178 8.21316 5.55168Z" fill="#FFEF00"/>
<path d="M9.60892 6.14233C9.69275 6.21517 9.77124 6.29333 9.84437 6.37593C9.92285 6.27912 10.1351 6.02776 10.3135 5.90607C10.5373 5.75419 10.8192 5.57833 10.8317 5.16887C10.8317 5.16887 10.6372 5.47885 10.2288 5.66271C9.90412 5.80926 9.68562 6.04907 9.60892 6.14233Z" fill="#FFEF00"/>
<path d="M9.87826 6.41501C9.94961 6.49939 10.0147 6.5891 10.0745 6.68236C10.1672 6.59887 10.4161 6.38392 10.6114 6.29155C10.8557 6.17609 11.1625 6.0473 11.2384 5.64405C11.2384 5.64405 10.9975 5.92028 10.565 6.03841C10.2225 6.13256 9.96923 6.33596 9.87826 6.41501Z" fill="#FFEF00"/>
<path d="M8.9097 5.716C8.93556 5.59432 9.00959 5.27456 9.11304 5.08627C9.24236 4.85001 9.41449 4.56578 9.2379 4.1954C9.2379 4.1954 9.20669 4.55956 8.92664 4.90863C8.70457 5.18486 8.61984 5.49661 8.59398 5.61474C8.701 5.64139 8.80713 5.67514 8.9097 5.716Z" fill="#FFEF00"/>
<path d="M9.25752 10.0797C9.16299 10.1366 9.06399 10.1863 8.96143 10.2307C9.0301 10.3355 9.20312 10.6135 9.26377 10.8196C9.33958 11.0781 9.41895 11.3996 9.80602 11.539C9.80602 11.539 9.57057 11.2592 9.52152 10.8151C9.48317 10.4625 9.32263 10.181 9.25752 10.0797Z" fill="#FFEF00"/>
<path d="M9.94783 10.5416C9.85418 10.1996 9.65173 9.94737 9.57146 9.85678C9.48673 9.92783 9.39666 9.99267 9.30212 10.0513C9.38595 10.1437 9.60178 10.3915 9.69365 10.586C9.8087 10.8294 9.93802 11.1349 10.342 11.2122C10.3429 11.2131 10.0656 10.9724 9.94783 10.5416Z" fill="#FFEF00"/>
<path d="M8.56812 11.1438C8.64036 10.7974 8.57525 10.4803 8.54493 10.3639C8.4379 10.3879 8.32821 10.4057 8.21583 10.4155C8.24794 10.5354 8.32731 10.8542 8.32018 11.0692C8.31126 11.3383 8.28718 11.6687 8.61271 11.9201C8.6136 11.9201 8.47625 11.5808 8.56812 11.1438Z" fill="#FFEF00"/>
<path d="M10.326 10.2067C10.1797 9.88342 9.9398 9.66582 9.84615 9.58943C9.77302 9.67292 9.69454 9.75108 9.6107 9.82392C9.70792 9.90208 9.96031 10.1135 10.0816 10.292C10.2341 10.5149 10.4098 10.7965 10.821 10.8089C10.821 10.8072 10.5106 10.6135 10.326 10.2067Z" fill="#FFEF00"/>
<path d="M9.05775 11.0168C9.07469 10.6633 8.96054 10.3604 8.91237 10.2503C8.80981 10.2911 8.70457 10.3257 8.59576 10.3524C8.6466 10.4661 8.77414 10.7681 8.80178 10.9812C8.83567 11.2486 8.86332 11.579 9.22453 11.7762C9.22453 11.7762 9.03634 11.4626 9.05775 11.0168Z" fill="#FFEF00"/>
<path d="M10.3786 8.57777C10.3518 8.68613 10.3171 8.79094 10.276 8.89308C10.3982 8.91884 10.7193 8.99345 10.9084 9.09648C11.1456 9.22616 11.4301 9.39758 11.8029 9.2226C11.8029 9.2226 11.4372 9.19063 11.0876 8.91085C10.8094 8.68969 10.4972 8.60442 10.3786 8.57777Z" fill="#FFEF00"/>
<path d="M8 10.4252C7.94292 10.4252 7.88673 10.4226 7.83144 10.419C7.84392 10.5425 7.87246 10.8702 7.83144 11.0816C7.7806 11.3463 7.70479 11.6687 7.98662 11.968C7.98662 11.968 7.90457 11.6119 8.06421 11.1944C8.19086 10.8631 8.1757 10.5398 8.1641 10.4199C8.1097 10.4226 8.0553 10.4252 8 10.4252Z" fill="#FFEF00"/>
<path d="M11.1946 8.4179C10.8861 8.24203 10.5623 8.20651 10.4419 8.1994C10.4321 8.31043 10.4143 8.41967 10.3902 8.52626C10.5151 8.53247 10.8433 8.55557 11.0466 8.6284C11.3017 8.719 11.6094 8.84423 11.9501 8.6133C11.9501 8.61419 11.5835 8.63906 11.1946 8.4179Z" fill="#FFEF00"/>
<path d="M10.903 9.3807C10.6649 9.11957 10.3688 8.98634 10.2564 8.94193C10.2127 9.04408 10.1619 9.14267 10.1048 9.23682C10.2216 9.28123 10.5266 9.40469 10.697 9.53614C10.911 9.70134 11.1652 9.91451 11.5603 9.79993C11.5603 9.79993 11.2045 9.71111 10.903 9.3807Z" fill="#FFEF00"/>
<path d="M10.647 9.81592C10.4526 9.52015 10.1806 9.34162 10.0763 9.28123C10.0174 9.37537 9.95229 9.46419 9.88094 9.54946C9.98885 9.61164 10.2716 9.78128 10.4196 9.9376C10.6051 10.1339 10.8227 10.3844 11.2312 10.3329C11.2303 10.3329 10.8932 10.1899 10.647 9.81592Z" fill="#FFEF00"/>
<path d="M7.08317 10.2485C7.0573 10.3702 6.98149 10.6899 6.87804 10.8773C6.74783 11.1136 6.57481 11.3969 6.7505 11.7673C6.7505 11.7673 6.7835 11.4031 7.06444 11.0558C7.28651 10.7805 7.37302 10.4687 7.39978 10.3515C7.29097 10.324 7.18573 10.2893 7.08317 10.2485Z" fill="#FFEF00"/>
<path d="M4.95251 9.03253C5.30747 9.05029 5.61159 8.93749 5.72308 8.88953C5.68205 8.78739 5.64816 8.68258 5.62051 8.57422C5.50635 8.62485 5.20223 8.75186 4.98818 8.77762C4.71973 8.81137 4.38796 8.83802 4.18907 9.19685C4.18997 9.19685 4.50479 9.00944 4.95251 9.03253Z" fill="#FFEF00"/>
<path d="M6.11639 9.54591C6.04504 9.46153 5.98083 9.37182 5.92107 9.27767C5.82832 9.36116 5.5786 9.57522 5.38328 9.6667C5.13802 9.78128 4.83122 9.90918 4.75362 10.3115C4.75362 10.3115 4.99532 10.0362 5.42787 9.91984C5.77124 9.82658 6.02542 9.62496 6.11639 9.54591Z" fill="#FFEF00"/>
<path d="M5.89342 9.23238C5.83724 9.13823 5.7864 9.03964 5.7427 8.93749C5.63746 9.005 5.35831 9.17731 5.15139 9.23682C4.89186 9.31142 4.56812 9.39047 4.42809 9.77595C4.42809 9.77595 4.70992 9.54147 5.15585 9.49439C5.50814 9.45709 5.79086 9.29721 5.89342 9.23238Z" fill="#FFEF00"/>
<path d="M4.82586 8.54402C5.17369 8.61685 5.49208 8.55201 5.60892 8.5227C5.58484 8.41612 5.56789 8.30687 5.55808 8.19496C5.43768 8.22693 5.1175 8.3051 4.90167 8.29799C4.63144 8.28911 4.29967 8.26424 4.04638 8.58754C4.04638 8.58754 4.38707 8.45165 4.82586 8.54402Z" fill="#FFEF00"/>
<path d="M6.38484 9.82036C6.301 9.74753 6.22252 9.66937 6.15028 9.58588C6.07179 9.6818 5.85864 9.93316 5.68027 10.054C5.45641 10.205 5.17369 10.3799 5.16031 10.7894C5.16031 10.7894 5.35563 10.4803 5.76499 10.2973C6.08874 10.1517 6.30814 9.91273 6.38484 9.82036Z" fill="#FFEF00"/>
<path d="M7.77882 10.4146C7.66734 10.4048 7.55764 10.387 7.45061 10.3622C7.44348 10.4865 7.42029 10.8134 7.34716 11.0159C7.2553 11.269 7.12954 11.5763 7.36054 11.9156C7.36054 11.9156 7.33556 11.5515 7.55853 11.1633C7.73512 10.8569 7.77168 10.5354 7.77882 10.4146Z" fill="#FFEF00"/>
<path d="M6.73802 10.0771C6.69253 10.1934 6.56856 10.4972 6.43657 10.6668C6.27068 10.88 6.05574 11.1322 6.1699 11.5266C6.1699 11.5266 6.25909 11.1722 6.59175 10.8729C6.85485 10.6357 6.98952 10.3417 7.03411 10.2289C6.93155 10.1845 6.83344 10.1339 6.73802 10.0771Z" fill="#FFEF00"/>
<path d="M4.77681 8.04219C5.10948 8.16831 5.43411 8.1541 5.55452 8.14344C5.55095 8.09104 5.54916 8.03775 5.54916 7.98446C5.54916 7.92672 5.55184 7.86899 5.5563 7.81215C5.43233 7.82458 5.10323 7.85212 4.89097 7.81126C4.6243 7.75974 4.30056 7.68336 4 7.96403C4 7.96403 4.35764 7.88231 4.77681 8.04219Z" fill="#FFEF00"/>
<path d="M6.69342 10.0495C6.59978 9.99001 6.5097 9.92517 6.42497 9.85411C6.36254 9.96159 6.1913 10.2423 6.03434 10.3897C5.83724 10.5736 5.58484 10.7903 5.63657 11.1971C5.63657 11.1971 5.78105 10.8613 6.15652 10.6171C6.45262 10.4234 6.63188 10.1534 6.69342 10.0495Z" fill="#FFEF00"/>
</g>
</g>
<defs>
<clipPath id="clip0_7_2378">
<rect y="2" width="16" height="12" rx="2" fill="white"/>
</clipPath>
<clipPath id="clip1_7_2378">
<rect width="8" height="8" fill="white" transform="translate(4 4)"/>
</clipPath>
</defs>
</svg>
