<svg width="16" height="16" viewBox="0 0 16 16" fill="none" xmlns="http://www.w3.org/2000/svg">
<path fill-rule="evenodd" clip-rule="evenodd" d="M4 0C3.44772 0 3 0.447715 3 1V2C1.34315 2 0 3.34315 0 5V13C0 14.6569 1.34315 16 3 16H13C14.6569 16 16 14.6569 16 13V5C16 3.34315 14.6569 2 13 2V1C13 0.447715 12.5523 0 12 0C11.4477 0 11 0.447715 11 1V2H5V1C5 0.447715 4.55228 0 4 0ZM2 8C2 7.44772 2.44772 7 3 7H13C13.5523 7 14 7.44772 14 8V13C14 13.5523 13.5523 14 13 14H3C2.44772 14 2 13.5523 2 13V8Z" fill="white"/>
<g opacity="0.5">
<path d="M5 9C5 9.55228 4.55228 10 4 10C3.44772 10 3 9.55228 3 9C3 8.44772 3.44772 8 4 8C4.55228 8 5 8.44772 5 9Z" fill="white"/>
<path d="M5 12C5 12.5523 4.55228 13 4 13C3.44772 13 3 12.5523 3 12C3 11.4477 3.44772 11 4 11C4.55228 11 5 11.4477 5 12Z" fill="white"/>
<path d="M9 9C9 9.55228 8.55228 10 8 10C7.44772 10 7 9.55228 7 9C7 8.44772 7.44772 8 8 8C8.55228 8 9 8.44772 9 9Z" fill="white"/>
<path d="M9 12C9 12.5523 8.55228 13 8 13C7.44772 13 7 12.5523 7 12C7 11.4477 7.44772 11 8 11C8.55228 11 9 11.4477 9 12Z" fill="white"/>
<path d="M13 9C13 9.55228 12.5523 10 12 10C11.4477 10 11 9.55228 11 9C11 8.44772 11.4477 8 12 8C12.5523 8 13 8.44772 13 9Z" fill="white"/>
<path d="M13 12C13 12.5523 12.5523 13 12 13C11.4477 13 11 12.5523 11 12C11 11.4477 11.4477 11 12 11C12.5523 11 13 11.4477 13 12Z" fill="white"/>
</g>
</svg>
