<svg width="16" height="16" viewBox="0 0 16 16" fill="none" xmlns="http://www.w3.org/2000/svg">
<rect x="11" y="2" width="4" height="8" rx="1" stroke="white" stroke-width="2"/>
<path d="M5.56958 1.3212L9.24807 1.78101C10.2489 1.90612 11 2.75692 11 3.76556V8.89206C11 9.61704 10.803 10.3284 10.43 10.95L8.62447 13.9592C8.23705 14.6049 7.53925 15 6.78624 15C5.11993 15 4.09069 13.1822 4.948 11.7533L5.25 11.25C5.58007 10.6999 5.18381 10 4.54226 10H3.13128C1.80864 10 0.850249 8.7391 1.20425 7.46471L2.30692 3.4951C2.70507 2.06176 4.09346 1.13668 5.56958 1.3212Z" stroke="white" stroke-width="2"/>
</svg>
