<svg width="16" height="16" viewBox="0 0 16 16" fill="none" xmlns="http://www.w3.org/2000/svg">
<path fill-rule="evenodd" clip-rule="evenodd" d="M9.70711 4.29289C10.0976 4.68342 10.0976 5.31658 9.70711 5.70711L3.70711 11.7071C3.31658 12.0976 2.68342 12.0976 2.29289 11.7071L0.292893 9.70711C-0.0976311 9.31658 -0.0976311 8.68342 0.292893 8.29289C0.683417 7.90237 1.31658 7.90237 1.70711 8.29289L3 9.58579L8.29289 4.29289C8.68342 3.90237 9.31658 3.90237 9.70711 4.29289ZM15.7071 4.29289C16.0976 4.68342 16.0976 5.31658 15.7071 5.70711L9.70711 11.7071C9.31658 12.0976 8.68342 12.0976 8.29289 11.7071L7.29289 10.7071C6.90237 10.3166 6.90237 9.68342 7.29289 9.29289C7.68342 8.90237 8.31658 8.90237 8.70711 9.29289L9 9.58579L14.2929 4.29289C14.6834 3.90237 15.3166 3.90237 15.7071 4.29289Z" fill="white"/>
</svg>
