<svg width="16" height="16" viewBox="0 0 16 16" fill="none" xmlns="http://www.w3.org/2000/svg">
<mask id="path-1-inside-1_7_2031" fill="white">
<path d="M5.00006 16H0L6.10352e-05 11L8.00006 3L9.58585 1.41421C10.3669 0.633165 11.6332 0.633163 12.4143 1.41421L14.5858 3.58579C15.3669 4.36684 15.3669 5.63317 14.5858 6.41421L13.0001 8L5.00006 16Z"/>
</mask>
<path d="M7.29295 3.70711L12.293 8.70711L13.7072 7.29289L8.70717 2.29289L7.29295 3.70711ZM6.10352e-05 12H2.00006V10H6.10352e-05V12ZM4.00006 14V16H6.00006V14H4.00006ZM2.00006 12C3.10463 12 4.00006 12.8954 4.00006 14H6.00006C6.00006 11.7909 4.2092 10 2.00006 10V12ZM0 16L-2 16C-2.00001 16.5304 -1.7893 17.0391 -1.41422 17.4142C-1.03915 17.7893 -0.530437 18 0 18L0 16ZM5.00006 16V18C5.53049 18 6.0392 17.7893 6.41427 17.4142L5.00006 16ZM14.5858 3.58579L16.0001 2.17157L16.0001 2.17157L14.5858 3.58579ZM12.4143 1.41421L13.8285 -1.6532e-06V-1.78977e-06L12.4143 1.41421ZM6.10352e-05 11L-1.41415 9.58579C-1.78922 9.96085 -1.99993 10.4696 -1.99994 11L6.10352e-05 11ZM9.58585 1.41421L8.17163 -3.09329e-07V-2.49724e-07L9.58585 1.41421ZM8.00006 3L6.58585 1.58579V1.58579L8.00006 3ZM14.5858 6.41421L13.1716 5V5L14.5858 6.41421ZM0 18H5.00006V14H0V18ZM16.0001 2.17157L13.8285 -1.65156e-06L11.0001 2.82843L13.1716 5L16.0001 2.17157ZM-1.99994 11L-2 16L2 16L2.00006 11L-1.99994 11ZM8.17163 -2.49724e-07L6.58585 1.58579L9.41427 4.41421L11.0001 2.82843L8.17163 -2.49724e-07ZM6.58585 1.58579L-1.41415 9.58579L1.41427 12.4142L9.41427 4.41421L6.58585 1.58579ZM6.41427 17.4142L14.4143 9.41421L11.5858 6.58579L3.58585 14.5858L6.41427 17.4142ZM14.4143 9.41421L16.0001 7.82843L13.1716 5L11.5858 6.58579L14.4143 9.41421ZM13.8285 -1.78977e-06C12.2664 -1.5621 9.73373 -1.5621 8.17163 -3.05298e-07L11.0001 2.82843L11.0001 2.82843L13.8285 -1.78977e-06ZM13.1716 5V5L16.0001 7.82843C17.5622 6.26633 17.5622 3.73367 16.0001 2.17157L13.1716 5Z" fill="white" mask="url(#path-1-inside-1_7_2031)"/>
<rect opacity="0.5" x="9" y="14" width="7" height="2" rx="1" fill="white"/>
</svg>
