<svg width="16" height="16" viewBox="0 0 16 16" fill="none" xmlns="http://www.w3.org/2000/svg">
<path fill-rule="evenodd" clip-rule="evenodd" d="M2.8284 8.00001L5.17154 10.3432C6.73364 11.9053 9.2663 11.9053 10.8284 10.3432L13.1715 8.00001L10.8284 5.65686C9.2663 4.09477 6.73364 4.09477 5.17155 5.65686L2.8284 8.00001ZM0.707078 7.2929L3.75733 4.24265C6.10048 1.8995 9.89947 1.89951 12.2426 4.24265L15.2929 7.2929C15.6834 7.68343 15.6834 8.31659 15.2929 8.70712L12.2426 11.7574C9.89946 14.1005 6.10048 14.1005 3.75733 11.7574L0.707077 8.70712C0.316553 8.31659 0.316554 7.68343 0.707078 7.2929Z" fill="white"/>
<circle opacity="0.5" cx="8" cy="8" r="2" fill="white"/>
</svg>
