<svg width="16" height="16" viewBox="0 0 16 16" fill="none" xmlns="http://www.w3.org/2000/svg">
<rect x="2" y="5" width="12" height="10" rx="2" stroke="white" stroke-width="2"/>
<g opacity="0.5">
<path fill-rule="evenodd" clip-rule="evenodd" d="M9 4H10C10.5523 4 11 3.55228 11 3C11 2.44772 10.5523 2 10 2C9.44772 2 9 2.44772 9 3V4ZM10 0C8.34315 0 7 1.34315 7 3V6H10C11.6569 6 13 4.65685 13 3C13 1.34315 11.6569 0 10 0Z" fill="white"/>
<path fill-rule="evenodd" clip-rule="evenodd" d="M7 4H6C5.44772 4 5 3.55228 5 3C5 2.44772 5.44772 2 6 2C6.55228 2 7 2.44772 7 3V4ZM6 0C7.65685 0 9 1.34315 9 3V6H6C4.34315 6 3 4.65685 3 3C3 1.34315 4.34315 0 6 0Z" fill="white"/>
</g>
<g opacity="0.5">
<path d="M7 5H9V15H7V5Z" fill="white"/>
<path d="M2 11L2 9L14 9V11L2 11Z" fill="white"/>
</g>
</svg>
