<svg width="16" height="16" viewBox="0 0 16 16" fill="none" xmlns="http://www.w3.org/2000/svg">
<path fill-rule="evenodd" clip-rule="evenodd" d="M8 16C12.4183 16 16 12.4183 16 8C16 3.58172 12.4183 0 8 0C3.58172 0 0 3.58172 0 8C0 12.4183 3.58172 16 8 16ZM3.10558 3.55276C3.35257 3.05878 3.95324 2.85856 4.44722 3.10555L6.44722 4.10555C6.9412 4.35254 7.14142 4.95321 6.89443 5.44719C6.64744 5.94117 6.04677 6.14139 5.55279 5.8944L3.55279 4.8944C3.05881 4.64741 2.85859 4.04674 3.10558 3.55276ZM6.00001 7.99998C6.00001 8.55226 5.55229 8.99998 5.00001 8.99998C4.44772 8.99998 4.00001 8.55226 4.00001 7.99998C4.00001 7.44769 4.44772 6.99998 5.00001 6.99998C5.55229 6.99998 6.00001 7.44769 6.00001 7.99998ZM12 7.99998C12 8.55226 11.5523 8.99998 11 8.99998C10.4477 8.99998 10 8.55226 10 7.99998C10 7.44769 10.4477 6.99998 11 6.99998C11.5523 6.99998 12 7.44769 12 7.99998ZM11.5547 11.1679C12.0142 11.4743 12.1384 12.0951 11.8321 12.5547C11.5257 13.0142 10.9048 13.1384 10.4453 12.832C8.96456 11.8448 7.03547 11.8448 5.55472 12.832C5.09519 13.1384 4.47432 13.0142 4.16797 12.5547C3.86162 12.0951 3.98579 11.4743 4.44532 11.1679C6.59787 9.73288 9.40216 9.73288 11.5547 11.1679ZM11.5528 3.10555C12.0468 2.85856 12.6474 3.05878 12.8944 3.55276C13.1414 4.04674 12.9412 4.64741 12.4472 4.8944L10.4472 5.8944C9.95324 6.14139 9.35257 5.94117 9.10558 5.44719C8.85859 4.95321 9.05881 4.35254 9.55279 4.10555L11.5528 3.10555Z" fill="white"/>
</svg>
