<svg width="16" height="16" viewBox="0 0 16 16" fill="none" xmlns="http://www.w3.org/2000/svg">
<g clip-path="url(#clip0_7_2017)">
<path fill-rule="evenodd" clip-rule="evenodd" d="M4.22037 2.04306C4.11687 2.10696 3.99988 2.24921 3.99988 2.50236L3.99988 13.4978C3.99988 13.7471 4.1144 13.8899 4.21698 13.955C4.27007 13.9887 4.31496 13.9987 4.34422 13.9999C4.3666 14.0008 4.40513 13.9986 4.46841 13.9622L13.7708 8.62159C13.8866 8.55508 13.997 8.4093 13.9998 8.16468C14.0026 7.92 13.8952 7.7683 13.7775 7.69674L14.8164 5.98773C16.4165 6.9604 16.3884 9.42496 14.7666 10.3561L5.4642 15.6967C3.89929 16.5952 1.99988 15.3896 1.99988 13.4978L1.99988 2.50236C1.99988 0.583824 3.94817 -0.61895 5.51402 0.332909L14.8164 5.98773L13.7775 7.69674L4.47513 2.04192C4.40989 2.00226 4.37034 1.99956 4.34843 2.00004C4.3193 2.00068 4.27417 2.00985 4.22037 2.04306Z" fill="white"/>
</g>
<defs>
<clipPath id="clip0_7_2017">
<rect width="16" height="16" fill="white"/>
</clipPath>
</defs>
</svg>
