<svg width="16" height="16" viewBox="0 0 16 16" fill="none" xmlns="http://www.w3.org/2000/svg">
<path fill-rule="evenodd" clip-rule="evenodd" d="M8 16C12.4183 16 16 12.4183 16 8C16 3.58172 12.4183 0 8 0C3.58172 0 0 3.58172 0 8C0 12.4183 3.58172 16 8 16ZM6 6C6 6.55228 5.55228 7 5 7C4.44772 7 4 6.55228 4 6C4 5.44772 4.44772 5 5 5C5.55228 5 6 5.44772 6 6ZM12 6C12 6.55228 11.5523 7 11 7C10.4477 7 10 6.55228 10 6C10 5.44772 10.4477 5 11 5C11.5523 5 12 5.44772 12 6ZM5 10C4.44772 10 4 10.4477 4 11C4 11.5523 4.44772 12 5 12H11C11.5523 12 12 11.5523 12 11C12 10.4477 11.5523 10 11 10H5Z" fill="white"/>
</svg>
