<svg width="16" height="16" viewBox="0 0 16 16" fill="none" xmlns="http://www.w3.org/2000/svg">
<g clip-path="url(#clip0_7_2051)">
<path fill-rule="evenodd" clip-rule="evenodd" d="M13.8687 6.10333L15.122 6.26267C15.622 6.32267 16 6.74867 15.9993 7.25333V8.74667C15.9993 9.25133 15.6213 9.67733 15.1193 9.73733L13.8687 9.89667C13.766 10.2147 13.6387 10.5213 13.4893 10.8127L14.2633 11.8087C14.5767 12.2127 14.54 12.7813 14.1787 13.132L13.1287 14.182C12.782 14.54 12.2127 14.5767 11.8093 14.2633L10.8127 13.4893C10.5213 13.638 10.2147 13.7653 9.89667 13.8687L9.73733 15.122C9.67733 15.622 9.25133 16 8.74667 16H7.25333C6.74867 16 6.32267 15.622 6.26267 15.1187L6.10333 13.868C5.78533 13.7653 5.47867 13.638 5.18733 13.4887L4.19133 14.2627C3.78733 14.5753 3.21867 14.5393 2.868 14.1787L1.818 13.1287C1.46 12.782 1.42333 12.2127 1.73667 11.8093L2.51067 10.8127C2.362 10.5213 2.23467 10.2147 2.13133 9.89667L0.878 9.73733C0.378 9.67733 0 9.25133 0 8.74667V7.25333C0 6.74867 0.378 6.32267 0.88 6.26267L2.13133 6.10333C2.23467 5.78533 2.36133 5.47867 2.51067 5.18733L1.73667 4.19133C1.42333 3.78733 1.46 3.218 1.82133 2.86733L2.87133 1.818C3.21867 1.46 3.788 1.424 4.19067 1.73667L5.18667 2.51067C5.478 2.36133 5.78467 2.23467 6.10333 2.13133L6.26267 0.878C6.32267 0.378 6.74867 0 7.25333 0H8.74667C9.25133 0 9.67733 0.378 9.73733 0.88L9.89667 2.13133C10.2153 2.23467 10.522 2.362 10.8133 2.51067L11.8087 1.73667C12.2127 1.424 12.782 1.46 13.132 1.82133L14.182 2.87133C14.54 3.218 14.5767 3.78733 14.2633 4.19067L13.4893 5.18733C13.638 5.47867 13.7653 5.78533 13.8687 6.10333ZM8 11C9.65685 11 11 9.65685 11 8C11 6.34315 9.65685 5 8 5C6.34315 5 5 6.34315 5 8C5 9.65685 6.34315 11 8 11Z" fill="white"/>
</g>
<defs>
<clipPath id="clip0_7_2051">
<rect width="16" height="16" fill="white"/>
</clipPath>
</defs>
</svg>
