<svg width="16" height="16" viewBox="0 0 16 16" fill="none" xmlns="http://www.w3.org/2000/svg">
<path fill-rule="evenodd" clip-rule="evenodd" d="M8 16C12.4183 16 16 12.4183 16 8C16 3.58172 12.4183 0 8 0C3.58172 0 0 3.58172 0 8C0 12.4183 3.58172 16 8 16ZM6.00001 6C6.00001 6.55228 5.5523 7 5.00001 7C4.44773 7 4.00001 6.55228 4.00001 6C4.00001 5.44772 4.44773 5 5.00001 5C5.5523 5 6.00001 5.44772 6.00001 6ZM11.8321 9.44524C12.1384 9.90476 12.0142 10.5256 11.5547 10.832C9.40216 12.267 6.59787 12.267 4.44531 10.832C3.98579 10.5256 3.86161 9.90476 4.16796 9.44524C4.47432 8.98571 5.09519 8.86153 5.55471 9.16788C7.03547 10.1551 8.96456 10.1551 10.4453 9.16788C10.9048 8.86153 11.5257 8.98571 11.8321 9.44524ZM11 7C11.5523 7 12 6.55228 12 6C12 5.44772 11.5523 5 11 5C10.4477 5 10 5.44772 10 6C10 6.55228 10.4477 7 11 7Z" fill="white"/>
</svg>
