<svg width="16" height="16" viewBox="0 0 16 16" fill="none" xmlns="http://www.w3.org/2000/svg">
<path opacity="0.5" d="M8 9L10 7" stroke="white" stroke-width="2" stroke-linecap="round"/>
<path fill-rule="evenodd" clip-rule="evenodd" d="M8 14C10.7614 14 13 11.7614 13 9C13 6.23858 10.7614 4 8 4C5.23858 4 3 6.23858 3 9C3 11.7614 5.23858 14 8 14ZM8 16C11.866 16 15 12.866 15 9C15 5.13401 11.866 2 8 2C4.13401 2 1 5.13401 1 9C1 12.866 4.13401 16 8 16Z" fill="white"/>
<path d="M5 1C5 0.447715 5.44772 0 6 0H10C10.5523 0 11 0.447715 11 1C11 1.55228 10.5523 2 10 2H6C5.44772 2 5 1.55228 5 1Z" fill="white"/>
<path fill-rule="evenodd" clip-rule="evenodd" d="M12.2929 2.29289C12.6834 1.90237 13.3166 1.90237 13.7071 2.29289L14.7071 3.29289C15.0976 3.68342 15.0976 4.31658 14.7071 4.70711C14.3166 5.09763 13.6834 5.09763 13.2929 4.70711L12.2929 3.70711C11.9024 3.31658 11.9024 2.68342 12.2929 2.29289Z" fill="white"/>
<path d="M7 1H9V3H7V1Z" fill="white"/>
</svg>
