<svg width="16" height="16" viewBox="0 0 16 16" fill="none" xmlns="http://www.w3.org/2000/svg">
<path fill-rule="evenodd" clip-rule="evenodd" d="M8 14C11.3137 14 14 11.3137 14 8C14 4.68629 11.3137 2 8 2C4.68629 2 2 4.68629 2 8C2 11.3137 4.68629 14 8 14ZM8 16C12.4183 16 16 12.4183 16 8C16 3.58172 12.4183 0 8 0C3.58172 0 0 3.58172 0 8C0 12.4183 3.58172 16 8 16Z" fill="white"/>
<g opacity="0.5">
<path d="M7 5C7 4.44772 7.44772 4 8 4C8.55228 4 9 4.44772 9 5V8C9 8.55228 8.55228 9 8 9C7.44772 9 7 8.55228 7 8V5Z" fill="white"/>
<path d="M8 9C7.44772 9 7 8.55228 7 8C7 7.44772 7.44772 7 8 7H11C11.5523 7 12 7.44772 12 8C12 8.55228 11.5523 9 11 9H8Z" fill="white"/>
</g>
</svg>
