<svg width="16" height="16" viewBox="0 0 16 16" fill="none" xmlns="http://www.w3.org/2000/svg">
<path d="M3.5 13L4.1999 12.2858L3.5 13ZM1.23138 3.73381C0.936512 4.20079 1.07603 4.81839 1.54301 5.11326C2.00999 5.40813 2.62759 5.26862 2.92246 4.80164L1.23138 3.73381ZM14 8C14 11.3137 11.3137 14 8 14V16C12.4183 16 16 12.4183 16 8H14ZM8 2C11.3137 2 14 4.68629 14 8H16C16 3.58172 12.4183 0 8 0V2ZM8 14C6.42812 14 5.33577 13.3988 4.1999 12.2858L2.8001 13.7142C4.18931 15.0756 5.75727 16 8 16V14ZM4.1999 12.2858C4.01402 12.1036 3.5764 11.5579 3.05192 10.9003C2.57754 10.3054 2.02726 9.61304 1.70711 9.29289L0.292893 10.7071C0.511206 10.9254 0.968499 11.4955 1.48828 12.1473C1.95798 12.7362 2.50113 13.4213 2.8001 13.7142L4.1999 12.2858ZM2.92246 4.80164C3.98685 3.11601 5.86346 2 8 2V0C5.14874 0 2.64675 1.49235 1.23138 3.73381L2.92246 4.80164Z" fill="white"/>
<path d="M0 9H2V15C2 15.5523 1.55228 16 1 16C0.447715 16 0 15.5523 0 15V9Z" fill="white"/>
<path d="M0 11L-8.74228e-08 9L6 9C6.55228 9 7 9.44772 7 10C7 10.5523 6.55228 11 6 11L0 11Z" fill="white"/>
</svg>
