<svg width="10" height="10" viewBox="0 0 10 10" fill="none" xmlns="http://www.w3.org/2000/svg">
<path fill-rule="evenodd" clip-rule="evenodd" d="M2 2.5C2 1.11929 3.11929 0 4.5 0H5.5C6.88071 0 8 1.11929 8 2.5V5H7V2.5C7 1.67157 6.32843 1 5.5 1H4.5C3.67157 1 3 1.67157 3 2.5V5H2V2.5Z" fill="white"/>
<path fill-rule="evenodd" clip-rule="evenodd" d="M2 4C1.44772 4 1 4.44772 1 5V9C1 9.55228 1.44772 10 2 10H8C8.55228 10 9 9.55228 9 9V5C9 4.44772 8.55228 4 8 4H2ZM5 8C5.55228 8 6 7.55228 6 7C6 6.44772 5.55228 6 5 6C4.44772 6 4 6.44772 4 7C4 7.55228 4.44772 8 5 8Z" fill="white"/>
</svg>
