<svg width="104" height="24" viewBox="0 0 104 24" fill="none" xmlns="http://www.w3.org/2000/svg">
<path d="M18.9419 10.6745C18.4707 13.4464 21.1984 19.2711 18.0208 20.3769C14.8431 21.4826 13.4343 23.3754 12.5088 19.4316C12.0766 17.5898 11.8835 14.1457 12.5088 12.5582C14.407 12.3838 15.443 10.8934 16.5867 10.2886C19.2209 8.89538 19.3954 10.2886 18.9419 10.6745Z" fill="#EC9630"/>
<path d="M9.62787 8.75583C9.27903 5.6163 4.43019 11.2326 6.66275 15.1047L6.87205 20.0233L19.0814 20.9651L19.1153 20.8276C20.692 14.4326 22.2718 8.02536 18.4883 11.0233C13.725 14.7975 9.96687 11.8068 9.62787 8.75583Z" fill="#EFBC3A"/>
<path d="M19.7791 15.1333C19.0309 11.8922 18.7941 16.9238 14.1977 15.0777C9.34886 11.9302 6.76525 9.32698 6.29793 15.1333C6.29793 19.6046 8.68607 21.92 13.8118 21.92C22.2558 20.686 20.2326 18.593 19.7791 15.1333Z" fill="#EC9630"/>
<path fill-rule="evenodd" clip-rule="evenodd" d="M8.56504 0C7.1766 0 5.89362 0.740727 5.1994 1.94316L0.520667 10.047C-0.173556 11.2494 -0.173556 12.7308 0.520667 13.9333L5.1994 22.0371C5.89362 23.2395 7.1766 23.9802 8.56504 23.9802H17.9225C19.311 23.9802 20.5939 23.2395 21.2881 22.0371L25.9669 13.9333C26.6611 12.7308 26.6611 11.2494 25.9669 10.047L21.2882 1.94316C20.5939 0.740727 19.311 0 17.9225 0H8.56504ZM18.907 18.6279V5.23253H15.8149V10.3355H10.6968V5.23253H7.60468V18.6279H10.6968V13.3123H15.8149V18.6279H18.907Z" fill="white"/>
<path d="M44.864 6.08869V17.8139H42.1654V13.161H37.6987V17.8139H35V6.08869H37.6987V10.5554H42.1654V6.08869H44.864Z" fill="white"/>
<path d="M46.5463 13.5333C46.5463 12.9005 46.658 12.3173 46.8814 11.7838C47.1171 11.2379 47.4335 10.7664 47.8305 10.3693C48.2276 9.95987 48.6867 9.64347 49.2078 9.42014C49.7413 9.18439 50.3121 9.06652 50.92 9.06652C51.528 9.06652 52.0925 9.18439 52.6137 9.42014C53.1472 9.64347 53.6125 9.95987 54.0095 10.3693C54.4066 10.7664 54.7168 11.2379 54.9401 11.7838C55.1758 12.3173 55.2937 12.9005 55.2937 13.5333C55.2937 14.166 55.1758 14.7554 54.9401 15.3013C54.7168 15.8349 54.4066 16.3064 54.0095 16.7158C53.6125 17.1129 53.1472 17.4292 52.6137 17.665C52.0925 17.8883 51.528 18 50.92 18C50.3121 18 49.7413 17.8883 49.2078 17.665C48.6867 17.4292 48.2276 17.1129 47.8305 16.7158C47.4335 16.3064 47.1171 15.8349 46.8814 15.3013C46.658 14.7554 46.5463 14.166 46.5463 13.5333ZM52.7812 13.5333C52.7812 12.8757 52.6013 12.3545 52.2414 11.9699C51.8816 11.5853 51.4411 11.3929 50.92 11.3929C50.3989 11.3929 49.9584 11.5853 49.5986 11.9699C49.2388 12.3545 49.0589 12.8757 49.0589 13.5333C49.0589 14.1909 49.2388 14.712 49.5986 15.0966C49.9584 15.4813 50.3989 15.6736 50.92 15.6736C51.4411 15.6736 51.8816 15.4813 52.2414 15.0966C52.6013 14.712 52.7812 14.1909 52.7812 13.5333Z" fill="white"/>
<path d="M57.5322 11.5791H56.2294V9.43875H56.8808C57.5632 9.43875 57.9044 9.09754 57.9044 8.41512V7.20538H60.0447V9.25264H61.8128V11.5791H60.0447V14.3708C60.0447 14.743 60.1502 15.0408 60.3611 15.2641C60.572 15.4751 60.8388 15.5805 61.1614 15.5805C61.2607 15.5805 61.3475 15.5805 61.422 15.5805C61.4964 15.5681 61.5646 15.5557 61.6267 15.5433C61.6887 15.5309 61.7508 15.5123 61.8128 15.4875V17.7208C61.7135 17.7581 61.6019 17.7891 61.4778 17.8139C61.2296 17.8759 60.9381 17.9069 60.6031 17.9069C59.6228 17.9069 58.866 17.6402 58.3325 17.1067C57.7989 16.5607 57.5322 15.7728 57.5322 14.743V11.5791Z" fill="white"/>
<path d="M64.9844 8.97165C64.9844 8.57179 65.0662 8.19314 65.2297 7.8357C65.3994 7.47825 65.6417 7.16321 65.9567 6.89059C66.2718 6.61796 66.6535 6.40288 67.1018 6.24537C67.5501 6.08179 68.0529 6 68.6103 6C69.095 6 69.5463 6.08785 69.9644 6.26354C70.3885 6.43318 70.758 6.66642 71.0731 6.96329C71.3942 7.26015 71.6456 7.60548 71.8273 7.99927C72.0151 8.38701 72.1212 8.80504 72.1454 9.25336H71.2185C71.17 8.55665 70.9095 7.9811 70.4369 7.52672C69.9644 7.06628 69.3555 6.83606 68.6103 6.83606C68.1862 6.83606 67.8076 6.89664 67.4744 7.01781C67.1412 7.13292 66.8594 7.29044 66.6292 7.49037C66.399 7.68424 66.2203 7.91143 66.0931 8.17194C65.9719 8.43245 65.9113 8.69902 65.9113 8.97165C65.9113 9.50479 66.0688 9.91979 66.3839 10.2166C66.6989 10.5075 67.0957 10.7468 67.5743 10.9346C68.0529 11.1163 68.5679 11.2799 69.1192 11.4253C69.6705 11.5646 70.1855 11.7585 70.6641 12.0069C71.1427 12.2553 71.5396 12.5825 71.8546 12.9884C72.1757 13.3882 72.3362 13.9426 72.3362 14.6514C72.3362 15.124 72.2514 15.5602 72.0818 15.96C71.9121 16.3538 71.6668 16.6931 71.3457 16.9778C71.0246 17.2626 70.6338 17.4898 70.1734 17.6594C69.7129 17.823 69.1919 17.9048 68.6103 17.9048C68.0287 17.9048 67.5077 17.823 67.0473 17.6594C66.5868 17.4898 66.193 17.2565 65.8659 16.9597C65.5387 16.6628 65.2843 16.3084 65.1025 15.8964C64.9208 15.4844 64.8178 15.0391 64.7935 14.5605H65.7295C65.8265 15.3057 66.1203 15.9115 66.611 16.378C67.1018 16.8385 67.7682 17.0687 68.6103 17.0687C69.5009 17.0687 70.1885 16.8445 70.6732 16.3962C71.1579 15.9418 71.4002 15.3602 71.4002 14.6514C71.4002 14.094 71.2427 13.6578 70.9277 13.3428C70.6126 13.0217 70.2158 12.7642 69.7372 12.5703C69.2586 12.3704 68.7436 12.2008 68.1923 12.0614C67.641 11.916 67.126 11.7252 66.6474 11.4889C66.1688 11.2526 65.772 10.9437 65.4569 10.562C65.1419 10.1742 64.9844 9.64413 64.9844 8.97165Z" fill="white"/>
<path d="M81.3639 17.8139H80.2461L76.1567 13.5336V17.8139H75.3115V6.09088H76.1567V13.5336L79.8735 9.62595H80.9913L77.2654 13.5336L81.3639 17.8139Z" fill="white"/>
<path d="M84.5209 17.8139H83.6848V9.62595H84.5209V17.8139ZM83.494 7.01781C83.494 6.83 83.5546 6.67551 83.6758 6.55434C83.803 6.42712 83.9605 6.3635 84.1483 6.3635C84.3361 6.3635 84.4906 6.42712 84.6118 6.55434C84.7329 6.67551 84.7935 6.83 84.7935 7.01781C84.7935 7.20562 84.7329 7.36314 84.6118 7.49037C84.4906 7.61154 84.3361 7.67212 84.1483 7.67212C83.9605 7.67212 83.803 7.61154 83.6758 7.49037C83.5546 7.36314 83.494 7.20562 83.494 7.01781Z" fill="white"/>
<path d="M91.7764 9.53508C92.2369 9.53508 92.667 9.6199 93.0669 9.78953C93.4728 9.95311 93.8181 10.1864 94.1029 10.4893C94.3937 10.7922 94.6209 11.1557 94.7844 11.5798C94.9541 12.0039 95.0389 12.4704 95.0389 12.9793V17.8139H94.2028V12.9793C94.2028 12.6097 94.1362 12.2674 94.0029 11.9524C93.8757 11.6313 93.697 11.3526 93.4667 11.1163C93.2365 10.88 92.9699 10.6983 92.667 10.5711C92.3641 10.4378 92.037 10.3711 91.6856 10.3711C91.316 10.3711 90.9707 10.4378 90.6496 10.5711C90.3345 10.6983 90.0589 10.88 89.8226 11.1163C89.5924 11.3526 89.4106 11.6283 89.2774 11.9433C89.1501 12.2583 89.0865 12.6037 89.0865 12.9793V17.8139H88.2414V9.62595H88.8048L89.0865 10.8346H89.1774C89.3288 10.5983 89.5257 10.3802 89.7681 10.1803C89.9801 10.0167 90.2497 9.86829 90.5769 9.73501C90.904 9.60172 91.3039 9.53508 91.7764 9.53508Z" fill="white"/>
<path d="M103.785 15.4875C103.785 15.8086 103.715 16.1175 103.576 16.4144C103.442 16.7052 103.255 16.9627 103.012 17.1868C102.77 17.4049 102.476 17.5806 102.131 17.7139C101.792 17.8411 101.413 17.9048 100.995 17.9048C100.547 17.9048 100.144 17.8411 99.7863 17.7139C99.4349 17.5806 99.1319 17.3989 98.8775 17.1687C98.623 16.9384 98.4201 16.6719 98.2686 16.369C98.1232 16.066 98.0384 15.7419 98.0142 15.3966H98.8502C98.9472 15.9176 99.1622 16.3265 99.4954 16.6234C99.8347 16.9203 100.335 17.0687 100.995 17.0687C101.601 17.0687 102.076 16.9112 102.422 16.5961C102.773 16.2811 102.949 15.9115 102.949 15.4875C102.949 15.1179 102.831 14.8332 102.594 14.6332C102.358 14.4333 102.064 14.2818 101.713 14.1788C101.367 14.0698 100.986 13.9759 100.568 13.8971C100.156 13.8184 99.7741 13.7033 99.4227 13.5518C99.0774 13.4003 98.7866 13.1883 98.5503 12.9157C98.3201 12.643 98.205 12.2583 98.205 11.7615C98.205 11.4647 98.2656 11.1799 98.3868 10.9073C98.514 10.6347 98.6897 10.3984 98.9138 10.1985C99.1441 9.99249 99.4258 9.83194 99.759 9.71683C100.098 9.59566 100.48 9.53508 100.904 9.53508C101.304 9.53508 101.667 9.60172 101.995 9.73501C102.322 9.86223 102.609 10.0319 102.858 10.2439C103.106 10.4499 103.3 10.6953 103.439 10.98C103.585 11.2648 103.67 11.5586 103.694 11.8615H102.858C102.761 11.4374 102.549 11.083 102.222 10.7983C101.901 10.5135 101.461 10.3711 100.904 10.3711C100.298 10.3711 99.8347 10.5105 99.5136 10.7892C99.1986 11.0679 99.0411 11.392 99.0411 11.7615C99.0411 12.119 99.1592 12.3886 99.3955 12.5703C99.6318 12.7521 99.9226 12.8945 100.268 12.9975C100.613 13.0944 100.995 13.1853 101.413 13.2701C101.831 13.3488 102.213 13.467 102.558 13.6245C102.903 13.776 103.194 13.9941 103.43 14.2788C103.667 14.5636 103.785 14.9664 103.785 15.4875Z" fill="white"/>
</svg>
