<svg width="12" height="14" viewBox="0 0 12 14" fill="none" xmlns="http://www.w3.org/2000/svg">
<path d="M6.00003 8.98996C6.55229 8.98442 6.99548 8.53223 6.98994 7.97997L6.99988 1.97992C6.99433 1.42766 6.54214 0.984467 5.98989 0.990012C5.43763 0.995558 4.99443 1.44775 4.99998 2L4.99004 8.00006C4.99558 8.55231 5.44777 8.99551 6.00003 8.98996Z" fill="white"/>
<path d="M6.00003 13.01C6.55229 13.0045 6.99548 12.5523 6.98994 12.0001L6.99988 12C6.99433 11.4477 6.54214 11.0046 5.98989 11.0101C5.43763 11.0156 4.99443 11.4678 4.99998 12.0201L4.99004 12.0201C4.99558 12.5724 5.44777 13.0156 6.00003 13.01Z" fill="white"/>
</svg>
