<svg width="12" height="12" viewBox="0 0 12 12" fill="none" xmlns="http://www.w3.org/2000/svg">
<mask id="path-1-inside-1_7_2243" fill="white">
<path fill-rule="evenodd" clip-rule="evenodd" d="M6 12C9.31371 12 12 9.31371 12 6C12 2.68629 9.31371 0 6 0C2.68629 0 0 2.68629 0 6C0 9.31371 2.68629 12 6 12ZM6.5 2.5C6.5 2.22386 6.27614 2 6 2C5.72386 2 5.5 2.22386 5.5 2.5V6V6.5H6H9.5C9.77614 6.5 10 6.27614 10 6C10 5.72386 9.77614 5.5 9.5 5.5H6.5V2.5Z"/>
</mask>
<path fill-rule="evenodd" clip-rule="evenodd" d="M6 12C9.31371 12 12 9.31371 12 6C12 2.68629 9.31371 0 6 0C2.68629 0 0 2.68629 0 6C0 9.31371 2.68629 12 6 12ZM6.5 2.5C6.5 2.22386 6.27614 2 6 2C5.72386 2 5.5 2.22386 5.5 2.5V6V6.5H6H9.5C9.77614 6.5 10 6.27614 10 6C10 5.72386 9.77614 5.5 9.5 5.5H6.5V2.5Z" fill="white"/>
<path d="M5.5 6.5H4.5V7.5H5.5V6.5ZM6.5 5.5H5.5V6.5H6.5V5.5ZM11 6C11 8.76142 8.76142 11 6 11V13C9.86599 13 13 9.86599 13 6H11ZM6 1C8.76142 1 11 3.23858 11 6H13C13 2.13401 9.86599 -1 6 -1V1ZM1 6C1 3.23858 3.23858 1 6 1V-1C2.13401 -1 -1 2.13401 -1 6H1ZM6 11C3.23858 11 1 8.76142 1 6H-1C-1 9.86599 2.13401 13 6 13V11ZM6 3C5.72386 3 5.5 2.77614 5.5 2.5H7.5C7.5 1.67157 6.82843 1 6 1V3ZM6.5 2.5C6.5 2.77614 6.27614 3 6 3V1C5.17157 1 4.5 1.67157 4.5 2.5H6.5ZM6.5 6V2.5H4.5V6H6.5ZM6.5 6.5V6H4.5V6.5H6.5ZM6 5.5H5.5V7.5H6V5.5ZM9.5 5.5H6V7.5H9.5V5.5ZM9 6C9 5.72386 9.22386 5.5 9.5 5.5V7.5C10.3284 7.5 11 6.82843 11 6H9ZM9.5 6.5C9.22386 6.5 9 6.27614 9 6H11C11 5.17157 10.3284 4.5 9.5 4.5V6.5ZM6.5 6.5H9.5V4.5H6.5V6.5ZM5.5 2.5V5.5H7.5V2.5H5.5Z" fill="white" mask="url(#path-1-inside-1_7_2243)"/>
</svg>
