<svg width="12" height="12" viewBox="0 0 12 12" fill="none" xmlns="http://www.w3.org/2000/svg">
<path fill-rule="evenodd" clip-rule="evenodd" d="M6 12C9.31371 12 12 9.31371 12 6C12 2.68629 9.31371 0 6 0C2.68629 0 0 2.68629 0 6C0 9.31371 2.68629 12 6 12ZM6.5 3.5C6.5 3.3156 6.39851 3.14617 6.23593 3.05916C6.07335 2.97215 5.87608 2.98169 5.72265 3.08397L4.22265 4.08397C3.99289 4.23715 3.9308 4.54759 4.08397 4.77735C4.23715 5.00711 4.54759 5.0692 4.77735 4.91603L5.5 4.43426V8H4.5C4.22386 8 4 8.22386 4 8.5C4 8.77614 4.22386 9 4.5 9H6H7.5C7.77614 9 8 8.77614 8 8.5C8 8.22386 7.77614 8 7.5 8H6.5V3.5Z" fill="white"/>
</svg>
