<svg width="12" height="12" viewBox="0 0 12 12" fill="none" xmlns="http://www.w3.org/2000/svg">
<path fill-rule="evenodd" clip-rule="evenodd" d="M6 2.5V0.5H7V1.5V2.5C7 3.32843 7.67157 4 8.5 4H10.5V5H8.5C7.11929 5 6 3.88071 6 2.5Z" fill="white"/>
<path d="M3 6.5C3 6.22386 3.22386 6 3.5 6H6.5C6.77614 6 7 6.22386 7 6.5C7 6.77614 6.77614 7 6.5 7H3.5C3.22386 7 3 6.77614 3 6.5Z" fill="white"/>
<path d="M3 4.5C3 4.22386 3.22386 4 3.5 4H4.5C4.77614 4 5 4.22386 5 4.5C5 4.77614 4.77614 5 4.5 5H3.5C3.22386 5 3 4.77614 3 4.5Z" fill="white"/>
<path d="M3 8.5C3 8.22386 3.22386 8 3.5 8H5.5C5.77614 8 6 8.22386 6 8.5C6 8.77614 5.77614 9 5.5 9H3.5C3.22386 9 3 8.77614 3 8.5Z" fill="white"/>
<path d="M10 7.5V4.82843C10 4.56321 9.89464 4.30886 9.70711 4.12132L6.87868 1.29289C6.69114 1.10536 6.43679 1 6.17157 1H3C2.44772 1 2 1.44772 2 2V10C2 10.5523 2.44772 11 3 11H5.5C5.77614 11 6 11.2239 6 11.5C6 11.7761 5.77614 12 5.5 12H3C1.89543 12 1 11.1046 1 10V2C1 0.895431 1.89543 0 3 0H6.17157C6.70201 0 7.21071 0.210714 7.58579 0.585786L10.4142 3.41421C10.7893 3.78929 11 4.29799 11 4.82843V7.5C11 7.77614 10.7761 8 10.5 8C10.2239 8 10 7.77614 10 7.5Z" fill="white"/>
<path d="M8.5 6.5V11.5M8.5 11.5L10 10M8.5 11.5L7 10" stroke="white" stroke-linecap="round" stroke-linejoin="round"/>
</svg>
