<svg width="12" height="12" viewBox="0 0 12 12" fill="none" xmlns="http://www.w3.org/2000/svg">
<path fill-rule="evenodd" clip-rule="evenodd" d="M6 2.5V0.5H7V1.5V2.5C7 3.32843 7.67157 4 8.5 4H10.5V5H8.5C7.11929 5 6 3.88071 6 2.5Z" fill="white"/>
<path d="M3 6.5C3 6.22386 3.22386 6 3.5 6H5.5C5.77614 6 6 6.22386 6 6.5C6 6.77614 5.77614 7 5.5 7H3.5C3.22386 7 3 6.77614 3 6.5Z" fill="white"/>
<path d="M3 4.5C3 4.22386 3.22386 4 3.5 4H4.5C4.77614 4 5 4.22386 5 4.5C5 4.77614 4.77614 5 4.5 5H3.5C3.22386 5 3 4.77614 3 4.5Z" fill="white"/>
<path d="M3 8.5C3 8.22386 3.22386 8 3.5 8H4.5C4.77614 8 5 8.22386 5 8.5C5 8.77614 4.77614 9 4.5 9H3.5C3.22386 9 3 8.77614 3 8.5Z" fill="white"/>
<path d="M10 6.5V4.82843C10 4.56321 9.89464 4.30886 9.70711 4.12132L6.87868 1.29289C6.69114 1.10536 6.43679 1 6.17157 1H3C2.44772 1 2 1.44772 2 2V10C2 10.5523 2.44772 11 3 11H5.5C5.77614 11 6 11.2239 6 11.5C6 11.7761 5.77614 12 5.5 12H3C1.89543 12 1 11.1046 1 10V2C1 0.895431 1.89543 0 3 0H6.17157C6.70201 0 7.21071 0.210714 7.58579 0.585786L10.4142 3.41421C10.7893 3.78929 11 4.29799 11 4.82843V6.5C11 6.77614 10.7761 7 10.5 7C10.2239 7 10 6.77614 10 6.5Z" fill="white"/>
<circle cx="8" cy="9" r="1.5" stroke="white"/>
<path d="M10.1464 11.8536C10.3417 12.0488 10.6583 12.0488 10.8536 11.8536C11.0488 11.6583 11.0488 11.3417 10.8536 11.1464L10.1464 11.8536ZM8.64645 10.3536L10.1464 11.8536L10.8536 11.1464L9.35355 9.64645L8.64645 10.3536Z" fill="white"/>
</svg>
