<svg width="12" height="12" viewBox="0 0 12 12" fill="none" xmlns="http://www.w3.org/2000/svg">
<path fill-rule="evenodd" clip-rule="evenodd" d="M6 2.5V0.5H7V2.5C7 3.32843 7.67157 4 8.5 4H10.5V5H8.5C7.11929 5 6 3.88071 6 2.5Z" fill="white"/>
<path d="M3 8.5C3 8.22386 3.22386 8 3.5 8H8.5C8.77614 8 9 8.22386 9 8.5C9 8.77614 8.77614 9 8.5 9H3.5C3.22386 9 3 8.77614 3 8.5Z" fill="white"/>
<path d="M3 6.5C3 6.22386 3.22386 6 3.5 6H8.5C8.77614 6 9 6.22386 9 6.5C9 6.77614 8.77614 7 8.5 7H3.5C3.22386 7 3 6.77614 3 6.5Z" fill="white"/>
<path d="M3 4.5C3 4.22386 3.22386 4 3.5 4H4.5C4.77614 4 5 4.22386 5 4.5C5 4.77614 4.77614 5 4.5 5H3.5C3.22386 5 3 4.77614 3 4.5Z" fill="white"/>
<path fill-rule="evenodd" clip-rule="evenodd" d="M3 11H9C9.55228 11 10 10.5523 10 10V4.82843C10 4.56321 9.89464 4.30886 9.70711 4.12132L6.87868 1.29289C6.69114 1.10536 6.43679 1 6.17157 1H3C2.44772 1 2 1.44772 2 2V10C2 10.5523 2.44772 11 3 11ZM3 0C1.89543 0 1 0.895431 1 2V10C1 11.1046 1.89543 12 3 12H9C10.1046 12 11 11.1046 11 10V4.82843C11 4.29799 10.7893 3.78929 10.4142 3.41421L7.58579 0.585786C7.21071 0.210714 6.70201 0 6.17157 0H3Z" fill="white"/>
</svg>
