<svg width="12" height="12" viewBox="0 0 12 12" fill="none" xmlns="http://www.w3.org/2000/svg">
<path fill-rule="evenodd" clip-rule="evenodd" d="M6 0C6.27614 0 6.5 0.223858 6.5 0.5V7.29289L8.64645 5.14645C8.84171 4.95118 9.15829 4.95118 9.35355 5.14645C9.54882 5.34171 9.54882 5.65829 9.35355 5.85355L6.35355 8.85355C6.15829 9.04882 5.84171 9.04882 5.64645 8.85355L2.64645 5.85355C2.45118 5.65829 2.45118 5.34171 2.64645 5.14645C2.84171 4.95118 3.15829 4.95118 3.35355 5.14645L5.5 7.29289V0.5C5.5 0.223858 5.72386 0 6 0Z" fill="white"/>
<path d="M1 11.5C1 11.2239 1.18655 11 1.41667 11H10.5833C10.8135 11 11 11.2239 11 11.5C11 11.7761 10.8135 12 10.5833 12H1.41667C1.18655 12 1 11.7761 1 11.5Z" fill="white"/>
</svg>
