<svg width="12" height="12" viewBox="0 0 12 12" fill="none" xmlns="http://www.w3.org/2000/svg">
<mask id="path-1-inside-1_7_2239" fill="white">
<path d="M4 12H0V8L6 2L7.29289 0.707107C7.68342 0.316583 8.31658 0.316582 8.70711 0.707106L11.2929 3.29289C11.6834 3.68342 11.6834 4.31658 11.2929 4.70711L10 6L4 12Z"/>
</mask>
<path d="M-0.353553 8.35355L3.64645 12.3536L4.35355 11.6464L0.353553 7.64645L-0.353553 8.35355ZM5.64645 2.35355L9.64645 6.35355L10.3536 5.64645L6.35355 1.64645L5.64645 2.35355ZM0 12H-1C-1 12.5523 -0.552285 13 0 13L0 12ZM4 12V13C4.26522 13 4.51957 12.8946 4.70711 12.7071L4 12ZM11.2929 3.29289L12 2.58579L12 2.58579L11.2929 3.29289ZM8.70711 0.707106L8 1.41421L8 1.41421L8.70711 0.707106ZM0 8L-0.707107 7.29289C-0.894643 7.48043 -1 7.73478 -1 8H0ZM7.29289 0.707107L6.58579 -6.33522e-10L6.58579 1.56006e-07L7.29289 0.707107ZM6 2L6.70711 2.70711H6.70711L6 2ZM10 6L10.7071 6.70711L10 6ZM11.2929 4.70711L10.5858 4V4L11.2929 4.70711ZM0 13H4V11H0V13ZM12 2.58579L9.41421 -7.65549e-07L8 1.41421L10.5858 4L12 2.58579ZM-1 8V12H1V8H-1ZM6.58579 1.56006e-07L5.29289 1.29289L6.70711 2.70711L8 1.41421L6.58579 1.56006e-07ZM5.29289 1.29289L-0.707107 7.29289L0.707107 8.70711L6.70711 2.70711L5.29289 1.29289ZM4.70711 12.7071L10.7071 6.70711L9.29289 5.29289L3.29289 11.2929L4.70711 12.7071ZM10.7071 6.70711L12 5.41421L10.5858 4L9.29289 5.29289L10.7071 6.70711ZM9.41421 -3.43981e-07C8.63316 -0.781051 7.36683 -0.781047 6.58579 -8.16066e-10L8 1.41421L8 1.41421L9.41421 -3.43981e-07ZM10.5858 4L10.5858 4L12 5.41421C12.7811 4.63316 12.781 3.36683 12 2.58579L10.5858 4Z" fill="white" mask="url(#path-1-inside-1_7_2239)"/>
<rect x="7" y="11" width="5" height="1" rx="0.5" fill="white"/>
</svg>
