<svg width="12" height="12" viewBox="0 0 12 12" fill="none" xmlns="http://www.w3.org/2000/svg">
<path d="M0 11C0 10.4477 0.447715 10 1 10H11C11.5523 10 12 10.4477 12 11C12 11.5523 11.5523 12 11 12H1C0.447715 12 0 11.5523 0 11Z" fill="white"/>
<path d="M0.0100392 5.99995C0.0155849 5.44769 0.467773 5.0045 1.02003 5.01004L7.01973 5.07029C7.57198 5.07584 8.01518 5.52802 8.00964 6.08028C8.00409 6.63254 7.5519 7.07573 6.99964 7.07019L0.999947 7.00994C0.44769 7.0044 0.00449349 6.55221 0.0100392 5.99995Z" fill="white"/>
<path d="M0 1C0 0.447715 0.447715 0 1 0H3C3.55228 0 4 0.447715 4 1C4 1.55228 3.55228 2 3 2H1C0.447715 2 0 1.55228 0 1Z" fill="white"/>
</svg>
