<svg width="12" height="12" viewBox="0 0 12 12" fill="none" xmlns="http://www.w3.org/2000/svg">
<path d="M1.95295 7.10855L1.95296 7.10855C2.76439 6.29711 4.07999 6.29711 4.89142 7.10855C5.70286 7.91999 5.70286 9.2356 4.89142 10.047L4.04705 10.8914L4.4006 11.245L4.04704 10.8914C3.23561 11.7029 1.92001 11.7029 1.10858 10.8914C0.297141 10.08 0.297141 8.76437 1.10858 7.95292C1.10858 7.95292 1.10858 7.95292 1.10858 7.95292L1.95295 7.10855Z" stroke="white"/>
<path d="M7.95295 1.10858L7.95296 1.10858C8.76439 0.297141 10.08 0.297141 10.8914 1.10858C11.7029 1.92001 11.7029 3.23561 10.8914 4.04705L10.047 4.89142C9.23561 5.70286 7.92001 5.70286 7.10858 4.89142C6.29714 4.07999 6.29714 2.76439 7.10857 1.95296C7.10857 1.95295 7.10857 1.95295 7.10858 1.95295L7.95295 1.10858Z" stroke="white"/>
<path d="M8.5 3.5L3.5 8.5" stroke="white" stroke-linecap="round"/>
</svg>
