<svg width="12" height="12" viewBox="0 0 12 12" fill="none" xmlns="http://www.w3.org/2000/svg">
<path d="M5 0.5C5 0.776142 4.77614 1 4.5 1H2C1.44772 1 1 1.44772 1 2V10C1 10.5523 1.44772 11 2 11H10C10.5523 11 11 10.5523 11 10V7.5C11 7.22386 11.2239 7 11.5 7C11.7761 7 12 7.22386 12 7.5V10C12 11.1046 11.1046 12 10 12H2C0.895431 12 0 11.1046 0 10V2C0 0.895431 0.895431 0 2 0H4.5C4.77614 0 5 0.223858 5 0.5Z" fill="white"/>
<path d="M11.5 0.5L6 6M11.5 0.5V4.5M11.5 0.5H7.5" stroke="white" stroke-linecap="round"/>
</svg>
