<svg width="12" height="12" viewBox="0 0 12 12" fill="none" xmlns="http://www.w3.org/2000/svg">
<path d="M1.70414 10.6542C1.49112 10.5047 1.38462 10.2804 1.38462 9.98131C1.38462 9.83178 1.43195 9.68224 1.52663 9.53271C1.52663 9.50779 1.59763 9.42056 1.73965 9.27103L4.29586 6.80374L0.816568 6.39252L0.532544 6.31776C0.343195 6.26791 0.201183 6.13084 0.106509 5.90654C0.0355029 5.78193 0 5.64486 0 5.49533C0 5.42056 0.0118343 5.34579 0.0355029 5.27103L0.674556 3.28972C0.721893 3.09034 0.852071 2.94081 1.06509 2.84112C1.18343 2.76636 1.31361 2.72897 1.45562 2.72897C1.50296 2.72897 1.56213 2.74143 1.63314 2.76636L1.91716 2.91589L4.97041 4.74766L4.26035 1.12149L4.22485 0.82243C4.22485 0.623053 4.29586 0.436137 4.43787 0.261681C4.60355 0.087227 4.7929 0 5.00592 0H6.95858C7.1716 0 7.34911 0.087227 7.49112 0.261681C7.65681 0.436137 7.73965 0.623053 7.73965 0.82243L7.70414 1.12149L6.99408 4.74766L10.0828 2.91589L10.3669 2.76636C10.4142 2.74143 10.4734 2.72897 10.5444 2.72897C10.7337 2.72897 10.8994 2.77882 11.0414 2.8785C11.2071 2.97819 11.3018 3.11526 11.3254 3.28972L11.9645 5.27103L12 5.49533C12 5.66978 11.9408 5.84424 11.8225 6.01869C11.7278 6.16822 11.5976 6.26791 11.432 6.31776L11.1834 6.39252L7.66864 6.80374L10.2604 9.27103C10.4024 9.42056 10.4734 9.50779 10.4734 9.53271C10.568 9.68224 10.6154 9.83178 10.6154 9.98131C10.6154 10.2804 10.5089 10.5047 10.2959 10.6542L8.73373 11.8878C8.59172 11.9626 8.43787 12 8.27219 12C7.9645 12 7.75148 11.9003 7.63314 11.7009C7.63314 11.676 7.6213 11.6511 7.59763 11.6262C7.57396 11.6012 7.53846 11.5389 7.49112 11.4393L6 8.03738L4.50888 11.4393C4.46154 11.5389 4.42603 11.6012 4.40237 11.6262C4.3787 11.6511 4.36686 11.676 4.36686 11.7009C4.24852 11.9003 4.0355 12 3.72781 12C3.56213 12 3.40828 11.9626 3.26627 11.8878L1.70414 10.6542Z" fill="white"/>
</svg>
