<svg width="12" height="12" viewBox="0 0 12 12" fill="none" xmlns="http://www.w3.org/2000/svg">
<path d="M6 10.0364C6.05455 10.0364 6.16364 10.0364 6.21818 10.0909L9.70909 12L9.05455 7.90909C9.05455 7.74545 9.05455 7.63636 9.16364 7.52727L12 4.58182L8.07273 3.98182C7.90909 3.98182 7.8 3.87273 7.74545 3.70909L6 0L4.25455 3.70909C4.2 3.81818 4.09091 3.92727 3.92727 3.98182L0 4.58182L2.83636 7.52727C2.94545 7.63636 3 7.8 2.94545 7.90909L2.29091 12L5.78182 10.0909C5.83636 10.0364 5.94545 10.0364 6 10.0364Z" fill="white"/>
</svg>
