<svg width="12" height="13" viewBox="0 0 12 13" fill="none" xmlns="http://www.w3.org/2000/svg">
<path d="M1 13C1.55228 13 2 12.5523 2 12L2 10C2 9.44771 1.55228 9 1 9C0.447716 9 1.55275e-07 9.44771 1.31134e-07 10L4.37114e-08 12C1.95702e-08 12.5523 0.447716 13 1 13Z" fill="white"/>
<path d="M6.00005 12.99C6.55231 12.9844 6.9955 12.5322 6.98996 11.98L6.9999 1.97992C6.99435 1.42766 6.54217 0.984463 5.98991 0.990009C5.43765 0.995555 4.99445 1.44774 5 2L4.99006 12.0001C4.99561 12.5523 5.44779 12.9955 6.00005 12.99Z" fill="white"/>
<path d="M11 13C11.5523 13 12 12.5523 12 12L12 6C12 5.44772 11.5523 5 11 5C10.4477 5 10 5.44772 10 6L10 12C10 12.5523 10.4477 13 11 13Z" fill="white"/>
</svg>
