<svg width="20" height="20" viewBox="0 0 20 20" fill="none" xmlns="http://www.w3.org/2000/svg">
<path opacity="0.5" fill-rule="evenodd" clip-rule="evenodd" d="M4 9C4.55228 9 5 9.44772 5 10V14.9296C5 15.264 5.1671 15.5762 5.4453 15.7617L7.2265 16.9491C8.906 18.0688 11.094 18.0688 12.7735 16.9491L14.5547 15.7617C14.8329 15.5762 15 15.264 15 14.9296V10C15 9.44772 15.4477 9 16 9C16.5523 9 17 9.44772 17 10V14.9296C17 15.9327 16.4987 16.8694 15.6641 17.4258L13.8829 18.6132C11.5316 20.1808 8.46839 20.1808 6.1171 18.6132L4.3359 17.4258C3.5013 16.8694 3 15.9327 3 14.9296V10C3 9.44772 3.44772 9 4 9Z" fill="white"/>
<path fill-rule="evenodd" clip-rule="evenodd" d="M1.71107 4.48128L7.2838 0.875391C8.93671 -0.194142 11.0634 -0.19414 12.7163 0.875392L18.289 4.48128C20.116 5.66345 20.116 8.33653 18.289 9.5187L12.7163 13.1246C11.0634 14.1941 8.93671 14.1941 7.2838 13.1246L1.71107 9.51869C-0.115934 8.33652 -0.115923 5.66345 1.71107 4.48128ZM8.3703 2.55453C9.36205 1.91281 10.6381 1.91281 11.6298 2.55453L17.2025 6.16042C17.8115 6.55447 17.8115 7.4455 17.2025 7.83956L11.6298 11.4454C10.6381 12.0872 9.36205 12.0872 8.3703 11.4454L2.79757 7.83955C2.18857 7.4455 2.18857 6.55447 2.79757 6.16042L8.3703 2.55453Z" fill="white"/>
</svg>
