<svg width="20" height="20" viewBox="0 0 20 20" fill="none" xmlns="http://www.w3.org/2000/svg">
<g clip-path="url(#clip0_13_418)">
<path fill-rule="evenodd" clip-rule="evenodd" d="M15.6569 15.6568C17.4336 13.8801 18.2004 11.4767 17.9556 9.15546C17.8977 8.60622 18.296 8.11402 18.8452 8.05609C19.3945 7.99817 19.8867 8.39646 19.9446 8.9457C20.25 11.8414 19.2927 14.8494 17.0711 17.0711C13.1659 20.9763 6.83421 20.9763 2.92897 17.0711C2.50271 16.6448 2.12248 16.189 1.78862 15.7099C1.47284 15.2568 1.58417 14.6335 2.03727 14.3177C2.49038 14.002 3.11368 14.1133 3.42946 14.5664C3.69621 14.9492 4.00067 15.3143 4.34318 15.6568C7.46737 18.781 12.5327 18.781 15.6569 15.6568Z" fill="white"/>
<path fill-rule="evenodd" clip-rule="evenodd" d="M1.00007 14L1.00007 19C1.00007 19.5523 1.44778 20 2.00007 20C2.55235 20 3.00006 19.5523 3.00006 19L3.00007 16L6.00007 16C6.55235 16 7.00007 15.5523 7.00007 15C7.00007 14.4477 6.55235 14 6.00007 14L1.00007 14Z" fill="white"/>
<path d="M-7.86805e-07 10C-7.38523e-07 10.5523 0.447715 11 0.999999 11C1.55228 11 2 10.5523 2 10L-7.86805e-07 10ZM2 10C2 5.58172 5.58172 2 10 2L10 7.86805e-07C4.47715 1.26963e-06 -1.26963e-06 4.47715 -7.86805e-07 10L2 10ZM10 2C14.4183 2 18 5.58172 18 10L20 10C20 4.47715 15.5228 3.03982e-07 10 7.86805e-07L10 2ZM18 10C18 14.4183 14.4183 18 10 18L10 20C15.5228 20 20 15.5228 20 10L18 10Z" fill="white"/>
</g>
<defs>
<clipPath id="clip0_13_418">
<rect width="20" height="20" fill="white"/>
</clipPath>
</defs>
</svg>
