<svg width="20" height="20" viewBox="0 0 20 20" fill="none" xmlns="http://www.w3.org/2000/svg">
<g clip-path="url(#clip0_13_456)">
<path fill-rule="evenodd" clip-rule="evenodd" d="M7.94281 1.18135C8.12691 1.70205 7.85403 2.2734 7.33333 2.45749C6.70924 2.67813 6.11169 2.97653 5.55544 3.3482C4.23985 4.22725 3.21447 5.47668 2.60897 6.93849C2.00347 8.4003 1.84504 10.0088 2.15372 11.5607C2.4624 13.1125 3.22433 14.538 4.34315 15.6568C5.46197 16.7756 6.88743 17.5376 8.43928 17.8462C9.99113 18.1549 11.5997 17.9965 13.0615 17.391C14.5233 16.7855 15.7727 15.7601 16.6518 14.4445C17.0234 13.8883 17.3218 13.2907 17.5425 12.6666C17.7266 12.1459 18.2979 11.8731 18.8186 12.0571C19.3393 12.2412 19.6122 12.8126 19.4281 13.3333C19.1523 14.1134 18.7793 14.8604 18.3147 15.5557C17.2159 17.2002 15.6541 18.4819 13.8268 19.2388C11.9996 19.9956 9.98891 20.1937 8.0491 19.8078C6.10929 19.422 4.32746 18.4696 2.92894 17.071C1.53041 15.6725 0.578004 13.8907 0.192152 11.9509C-0.1937 10.0111 0.00433284 8.00039 0.761209 6.17313C1.51809 4.34586 2.79981 2.78408 4.4443 1.68526C5.1396 1.22068 5.88656 0.847674 6.66668 0.571866C7.18738 0.387774 7.75872 0.660648 7.94281 1.18135Z" fill="white"/>
<path opacity="0.5" d="M18 10C19.1046 10 20.0201 9.09585 19.8007 8.01329C19.6733 7.38479 19.4854 6.76849 19.2388 6.17317C18.7362 4.95991 17.9997 3.85752 17.0711 2.92893C16.1425 2.00035 15.0401 1.26375 13.8268 0.761205C13.2315 0.514612 12.6152 0.326741 11.9867 0.199337C10.9042 -0.0201087 10 0.89543 10 2V8C10 9.10457 10.8954 10 12 10H18Z" fill="white"/>
</g>
<defs>
<clipPath id="clip0_13_456">
<rect width="20" height="20" fill="white"/>
</clipPath>
</defs>
</svg>
