<svg width="20" height="20" viewBox="0 0 20 20" fill="none" xmlns="http://www.w3.org/2000/svg">
<g clip-path="url(#clip0_13_429)">
<g opacity="0.5">
<path d="M9.00049 5C9.00049 4.44772 9.4482 4 10.0005 4C10.5528 4 11.0005 4.44772 11.0005 5V10C11.0005 10.5523 10.5528 11 10.0005 11C9.4482 11 9.00049 10.5523 9.00049 10V5Z" fill="white"/>
<path d="M15.0005 9C15.5528 9 16.0005 9.44772 16.0005 10C16.0005 10.5523 15.5528 11 15.0005 11H10.0005C9.4482 11 9.00049 10.5523 9.00049 10C9.00049 9.44772 9.4482 9 10.0005 9L15.0005 9Z" fill="white"/>
</g>
<path fill-rule="evenodd" clip-rule="evenodd" d="M15.6574 15.6568C17.4341 13.8801 18.2009 11.4767 17.9561 9.15546C17.8982 8.60622 18.2965 8.11402 18.8457 8.05609C19.395 7.99817 19.8872 8.39646 19.9451 8.9457C20.2505 11.8414 19.2932 14.8494 17.0716 17.0711C13.1663 20.9763 6.8347 20.9763 2.92945 17.0711C2.5032 16.6448 2.12297 16.189 1.78911 15.7099C1.47333 15.2568 1.58466 14.6335 2.03776 14.3177C2.49087 14.002 3.11417 14.1133 3.42994 14.5664C3.6967 14.9492 4.00116 15.3143 4.34367 15.6568C7.46786 18.781 12.5332 18.781 15.6574 15.6568Z" fill="white"/>
<path fill-rule="evenodd" clip-rule="evenodd" d="M1.00055 14L1.00055 19C1.00055 19.5523 1.44827 20 2.00056 20C2.55284 20 3.00055 19.5523 3.00055 19L3.00055 16L6.00055 16C6.55284 16 7.00055 15.5523 7.00055 15C7.00055 14.4477 6.55284 14 6.00055 14L1.00055 14Z" fill="white"/>
<path d="M0.000487494 10C0.000487543 10.5523 0.448203 11 1.00049 11C1.55277 11 2.00049 10.5523 2.00049 10L0.000487494 10ZM2.00049 10C2.00049 5.58172 5.58221 2 10.0005 2L10.0005 7.86805e-07C4.47764 1.26963e-06 0.000487012 4.47715 0.000487494 10L2.00049 10ZM10.0005 2C14.4188 2 18.0005 5.58172 18.0005 10L20.0005 10C20.0005 4.47715 15.5233 3.03982e-07 10.0005 7.86805e-07L10.0005 2ZM18.0005 10C18.0005 14.4183 14.4188 18 10.0005 18L10.0005 20C15.5233 20 20.0005 15.5228 20.0005 10L18.0005 10Z" fill="white"/>
</g>
<defs>
<clipPath id="clip0_13_429">
<rect width="20" height="20" fill="white" transform="translate(0.000488281)"/>
</clipPath>
</defs>
</svg>
