<svg width="20" height="20" viewBox="0 0 20 20" fill="none" xmlns="http://www.w3.org/2000/svg">
<path fill-rule="evenodd" clip-rule="evenodd" d="M16 2.00024H4C2.89543 2.00024 2 2.89567 2 4.00024V16.0002C2 17.1048 2.89543 18.0002 4 18.0002H16C17.1046 18.0002 18 17.1048 18 16.0002V4.00024C18 2.89567 17.1046 2.00024 16 2.00024ZM4 0.000244141C1.79086 0.000244141 0 1.79111 0 4.00024V16.0002C0 18.2094 1.79086 20.0002 4 20.0002H16C18.2091 20.0002 20 18.2094 20 16.0002V4.00024C20 1.79111 18.2091 0.000244141 16 0.000244141H4Z" fill="white"/>
<path opacity="0.5" d="M6 6.00024L14 14.0002M6 14.0002L14 6.00024" stroke="white" stroke-width="2" stroke-linecap="round"/>
</svg>
