<svg width="20" height="20" viewBox="0 0 20 20" fill="none" xmlns="http://www.w3.org/2000/svg">
<path fill-rule="evenodd" clip-rule="evenodd" d="M16 2.00024H4C2.89543 2.00024 2 2.89567 2 4.00024V16.0002C2 17.1048 2.89543 18.0002 4 18.0002H16C17.1046 18.0002 18 17.1048 18 16.0002V4.00024C18 2.89567 17.1046 2.00024 16 2.00024ZM4 0.000244141C1.79086 0.000244141 0 1.79111 0 4.00024V16.0002C0 18.2094 1.79086 20.0002 4 20.0002H16C18.2091 20.0002 20 18.2094 20 16.0002V4.00024C20 1.79111 18.2091 0.000244141 16 0.000244141H4Z" fill="white"/>
<g opacity="0.5">
<path d="M6 6.00024C6 6.55253 5.55228 7.00024 5 7.00024C4.44772 7.00024 4 6.55253 4 6.00024C4 5.44796 4.44772 5.00024 5 5.00024C5.55228 5.00024 6 5.44796 6 6.00024Z" fill="white"/>
<path d="M6 10.0002C6 10.5525 5.55228 11.0002 5 11.0002C4.44772 11.0002 4 10.5525 4 10.0002C4 9.44796 4.44772 9.00024 5 9.00024C5.55228 9.00024 6 9.44796 6 10.0002Z" fill="white"/>
<path d="M6 14.0002C6 14.5525 5.55228 15.0002 5 15.0002C4.44772 15.0002 4 14.5525 4 14.0002C4 13.448 4.44772 13.0002 5 13.0002C5.55228 13.0002 6 13.448 6 14.0002Z" fill="white"/>
<path d="M8 6.00024C8 5.44796 8.44772 5.00024 9 5.00024H15C15.5523 5.00024 16 5.44796 16 6.00024C16 6.55253 15.5523 7.00024 15 7.00024H9C8.44772 7.00024 8 6.55253 8 6.00024Z" fill="white"/>
<path d="M8 10.0002C8 9.44796 8.44772 9.00024 9 9.00024H15C15.5523 9.00024 16 9.44796 16 10.0002C16 10.5525 15.5523 11.0002 15 11.0002H9C8.44772 11.0002 8 10.5525 8 10.0002Z" fill="white"/>
<path d="M8 14.0002C8 13.448 8.44772 13.0002 9 13.0002H15C15.5523 13.0002 16 13.448 16 14.0002C16 14.5525 15.5523 15.0002 15 15.0002H9C8.44772 15.0002 8 14.5525 8 14.0002Z" fill="white"/>
</g>
</svg>
