<svg width="20" height="20" viewBox="0 0 20 20" fill="none" xmlns="http://www.w3.org/2000/svg">
<path fill-rule="evenodd" clip-rule="evenodd" d="M16 2.00024H4C2.89543 2.00024 2 2.89567 2 4.00024V16.0002C2 17.1048 2.89543 18.0002 4 18.0002H16C17.1046 18.0002 18 17.1048 18 16.0002V4.00024C18 2.89567 17.1046 2.00024 16 2.00024ZM4 0.000244141C1.79086 0.000244141 0 1.79111 0 4.00024V16.0002C0 18.2094 1.79086 20.0002 4 20.0002H16C18.2091 20.0002 20 18.2094 20 16.0002V4.00024C20 1.79111 18.2091 0.000244141 16 0.000244141H4Z" fill="white"/>
<g opacity="0.5">
<path d="M10 14.0002C10.5523 14.0002 11 14.448 11 15.0002C11 15.5525 10.5523 16.0002 10 16.0002C9.44772 16.0002 9 15.5525 9 15.0002C9 14.448 9.44772 14.0002 10 14.0002Z" fill="white"/>
<path d="M10 12.0002C9.44772 12.0002 9 11.5525 9 11.0002L9 5.00024C9 4.44796 9.44771 4.00024 10 4.00024C10.5523 4.00024 11 4.44796 11 5.00024L11 11.0002C11 11.5525 10.5523 12.0002 10 12.0002Z" fill="white"/>
</g>
</svg>
