<svg width="20" height="20" viewBox="0 0 20 20" fill="none" xmlns="http://www.w3.org/2000/svg">
<path fill-rule="evenodd" clip-rule="evenodd" d="M14 2H6C4.89543 2 4 2.89543 4 4V16C4 17.1046 4.89543 18 6 18H14C15.1046 18 16 17.1046 16 16V4C16 2.89543 15.1046 2 14 2ZM6 0C3.79086 0 2 1.79086 2 4V16C2 18.2091 3.79086 20 6 20H14C16.2091 20 18 18.2091 18 16V4C18 1.79086 16.2091 0 14 0H6Z" fill="white"/>
<rect x="6" y="4" width="8" height="2" rx="1" fill="white"/>
<g opacity="0.5">
<path d="M6 15C6 14.4477 6.44772 14 7 14C7.55228 14 8 14.4477 8 15C8 15.5523 7.55228 16 7 16C6.44772 16 6 15.5523 6 15Z" fill="white"/>
<path d="M6 12C6 11.4477 6.44772 11 7 11C7.55228 11 8 11.4477 8 12C8 12.5523 7.55228 13 7 13C6.44772 13 6 12.5523 6 12Z" fill="white"/>
<path d="M6 9C6 8.44772 6.44772 8 7 8C7.55228 8 8 8.44772 8 9C8 9.55228 7.55228 10 7 10C6.44772 10 6 9.55228 6 9Z" fill="white"/>
<path d="M9 15C9 14.4477 9.44772 14 10 14C10.5523 14 11 14.4477 11 15C11 15.5523 10.5523 16 10 16C9.44772 16 9 15.5523 9 15Z" fill="white"/>
<path d="M9 12C9 11.4477 9.44772 11 10 11C10.5523 11 11 11.4477 11 12C11 12.5523 10.5523 13 10 13C9.44772 13 9 12.5523 9 12Z" fill="white"/>
<path d="M9 9C9 8.44772 9.44772 8 10 8C10.5523 8 11 8.44772 11 9C11 9.55228 10.5523 10 10 10C9.44772 10 9 9.55228 9 9Z" fill="white"/>
<path d="M12 12C12 11.4477 12.4477 11 13 11C13.5523 11 14 11.4477 14 12V15C14 15.5523 13.5523 16 13 16C12.4477 16 12 15.5523 12 15V12Z" fill="white"/>
<path d="M12 9C12 8.44772 12.4477 8 13 8C13.5523 8 14 8.44772 14 9C14 9.55228 13.5523 10 13 10C12.4477 10 12 9.55228 12 9Z" fill="white"/>
</g>
</svg>
