<svg width="20" height="20" viewBox="0 0 20 20" fill="none" xmlns="http://www.w3.org/2000/svg">
<path fill-rule="evenodd" clip-rule="evenodd" d="M11.1157 3.64385C10.7431 2.95337 9.75676 2.94141 9.36748 3.62264L2.57808 15.5041C2.19714 16.1707 2.67851 17.0002 3.44633 17.0002H4.99997C5.55225 17.0002 5.99997 17.4479 5.99997 18.0002C5.99997 18.5525 5.55225 19.0002 4.99997 19.0002H3.44633C1.14286 19.0002 -0.301241 16.5118 0.841598 14.5118L7.63099 2.63036C8.79882 0.586665 11.7579 0.622554 12.8758 2.69398L19.288 14.5754C20.3667 16.5742 18.9192 19.0002 16.6479 19.0002H15C14.4477 19.0002 14 18.5525 14 18.0002C14 17.4479 14.4477 17.0002 15 17.0002H16.6479C17.405 17.0002 17.8875 16.1916 17.528 15.5253L11.1157 3.64385Z" fill="white"/>
<g opacity="0.5">
<path d="M9 9.00024C9 8.44796 9.44772 8.00024 10 8.00024C10.5523 8.00024 11 8.44796 11 9.00024V14.0002C11 14.5525 10.5523 15.0002 10 15.0002C9.44772 15.0002 9 14.5525 9 14.0002V9.00024Z" fill="white"/>
<path d="M9 18.0002C9 17.448 9.44772 17.0002 10 17.0002C10.5523 17.0002 11 17.448 11 18.0002C11 18.5525 10.5523 19.0002 10 19.0002C9.44772 19.0002 9 18.5525 9 18.0002Z" fill="white"/>
</g>
</svg>
