<svg width="20" height="20" viewBox="0 0 20 20" fill="none" xmlns="http://www.w3.org/2000/svg">
<path fill-rule="evenodd" clip-rule="evenodd" d="M6.70711 4.29289C7.09763 4.68342 7.09763 5.31658 6.70711 5.70711L3.41421 9H18.9995C18.9996 9 19 9 19 10C19 11 19 11 18.9999 11H3.41461L6.70711 14.2929C7.09763 14.6834 7.09763 15.3166 6.70711 15.7071C6.31658 16.0976 5.68342 16.0976 5.29289 15.7071L0.292893 10.7071C0.105357 10.5196 0 10.2652 0 10C0 9.73478 0.105357 9.48043 0.292893 9.29289L5.29289 4.29289C5.68342 3.90237 6.31658 3.90237 6.70711 4.29289ZM19 10L18.9999 11C19.5522 11 20 10.5523 20 10C20 9.44772 19.5518 9 18.9995 9L19 10Z" fill="white"/>
</svg>
