<svg width="20" height="20" viewBox="0 0 20 20" fill="none" xmlns="http://www.w3.org/2000/svg">
<g clip-path="url(#clip0_13_408)">
<g opacity="0.5">
<path d="M0 1.00024C0 0.44796 0.447715 0.000244379 1 0.000244379C1.55228 0.000244379 2 0.44796 2 1.00024V3.00024C2 3.55253 1.55228 4.00024 1 4.00024C0.447715 4.00024 0 3.55253 0 3.00024V1.00024Z" fill="white"/>
<path d="M1 2.00024C0.447715 2.00024 2.41411e-08 1.55253 0 1.00024C0 0.44796 0.447715 0.000244379 1 0.000244379L3 0.000244141C3.55228 0.000244116 4 0.447959 4 1.00024C4 1.55253 3.55228 2.00024 3 2.00024L1 2.00024Z" fill="white"/>
<path d="M0 19.0002C0 19.5525 0.447715 20.0002 1 20.0002C1.55228 20.0002 2 19.5525 2 19.0002V17.0002C2 16.448 1.55228 16.0002 1 16.0002C0.447715 16.0002 0 16.448 0 17.0002V19.0002Z" fill="white"/>
<path d="M1 18.0002C0.447715 18.0002 2.41411e-08 18.448 0 19.0002C0 19.5525 0.447715 20.0002 1 20.0002H3C3.55228 20.0002 4 19.5525 4 19.0002C4 18.448 3.55228 18.0002 3 18.0002H1Z" fill="white"/>
<path d="M20 1.00024C20 0.44796 19.5523 0.000244379 19 0.000244379C18.4477 0.000244379 18 0.44796 18 1.00024V3.00024C18 3.55253 18.4477 4.00024 19 4.00024C19.5523 4.00024 20 3.55253 20 3.00024V1.00024Z" fill="white"/>
<path d="M19 2.00024C19.5523 2.00024 20 1.55253 20 1.00024C20 0.44796 19.5523 0.000244379 19 0.000244379L17 0.000244141C16.4477 0.000244116 16 0.447959 16 1.00024C16 1.55253 16.4477 2.00024 17 2.00024L19 2.00024Z" fill="white"/>
<path d="M20 19.0002C20 19.5525 19.5523 20.0002 19 20.0002C18.4477 20.0002 18 19.5525 18 19.0002V17.0002C18 16.448 18.4477 16.0002 19 16.0002C19.5523 16.0002 20 16.448 20 17.0002V19.0002Z" fill="white"/>
<path d="M19 18.0002C19.5523 18.0002 20 18.448 20 19.0002C20 19.5525 19.5523 20.0002 19 20.0002H17C16.4477 20.0002 16 19.5525 16 19.0002C16 18.448 16.4477 18.0002 17 18.0002H19Z" fill="white"/>
</g>
<path d="M3 7.00024C3 6.44796 3.44772 6.00024 4 6.00024C4.55228 6.00024 5 6.44796 5 7.00024V13.0002C5 13.5525 4.55228 14.0002 4 14.0002C3.44772 14.0002 3 13.5525 3 13.0002V7.00024Z" fill="white"/>
<path d="M7 7.00024C7 6.44796 7.44772 6.00024 8 6.00024C8.55228 6.00024 9 6.44796 9 7.00024V13.0002C9 13.5525 8.55228 14.0002 8 14.0002C7.44772 14.0002 7 13.5525 7 13.0002V7.00024Z" fill="white"/>
<path d="M11 7.00024C11 6.44796 11.4477 6.00024 12 6.00024C12.5523 6.00024 13 6.44796 13 7.00024V13.0002C13 13.5525 12.5523 14.0002 12 14.0002C11.4477 14.0002 11 13.5525 11 13.0002V7.00024Z" fill="white"/>
<path d="M15 7.00024C15 6.44796 15.4477 6.00024 16 6.00024C16.5523 6.00024 17 6.44796 17 7.00024V13.0002C17 13.5525 16.5523 14.0002 16 14.0002C15.4477 14.0002 15 13.5525 15 13.0002V7.00024Z" fill="white"/>
</g>
<defs>
<clipPath id="clip0_13_408">
<rect width="20" height="20" fill="white" transform="translate(0 0.000244141)"/>
</clipPath>
</defs>
</svg>
