<svg width="20" height="20" viewBox="0 0 20 20" fill="none" xmlns="http://www.w3.org/2000/svg">
<path fill-rule="evenodd" clip-rule="evenodd" d="M9 5.50024C9 2.46268 11.4624 0.000244141 14.5 0.000244141C17.5376 0.000244141 20 2.46268 20 5.50024C20 8.53781 17.5376 11.0002 14.5 11.0002C13.9477 11.0002 13.5 10.5525 13.5 10.0002C13.5 9.44796 13.9477 9.00024 14.5 9.00024C16.433 9.00024 18 7.43324 18 5.50024C18 3.56725 16.433 2.00024 14.5 2.00024C12.567 2.00024 11 3.56725 11 5.50024C11 6.46627 11.39 7.33928 12.0236 7.97363L10.6086 9.387C9.61574 8.39297 9 7.01756 9 5.50024Z" fill="white"/>
<path opacity="0.5" fill-rule="evenodd" clip-rule="evenodd" d="M0 14.5002C0 11.4627 2.46243 9.00024 5.5 9.00024C6.05228 9.00024 6.5 9.44796 6.5 10.0002C6.5 10.5525 6.05228 11.0002 5.5 11.0002C3.567 11.0002 2 12.5672 2 14.5002C2 16.4332 3.567 18.0002 5.5 18.0002C7.433 18.0002 9 16.4332 9 14.5002C9 13.6658 8.70924 12.902 8.22263 12.3006L9.77737 11.0425C10.5416 11.9869 11 13.1914 11 14.5002C11 17.5378 8.53757 20.0002 5.5 20.0002C2.46243 20.0002 0 17.5378 0 14.5002Z" fill="white"/>
<path fill-rule="evenodd" clip-rule="evenodd" d="M14.7071 5.29314C15.0976 5.68366 15.0976 6.31683 14.7071 6.70735L6.70711 14.7074C6.31658 15.0979 5.68342 15.0979 5.29289 14.7074C4.90237 14.3168 4.90237 13.6837 5.29289 13.2931L13.2929 5.29314C13.6834 4.90261 14.3166 4.90261 14.7071 5.29314Z" fill="white"/>
</svg>
