<svg width="20" height="20" viewBox="0 0 20 20" fill="none" xmlns="http://www.w3.org/2000/svg">
<g clip-path="url(#clip0_13_422)">
<path fill-rule="evenodd" clip-rule="evenodd" d="M1 5.00024C1 3.34339 2.34315 2.00024 4 2.00024H16C17.6569 2.00024 19 3.34339 19 5.00024V17.0002C19 18.6571 17.6569 20.0002 16 20.0002H4C2.34315 20.0002 1 18.6571 1 17.0002V5.00024ZM3 5.00024C3 4.44796 3.44772 4.00024 4 4.00024H16C16.5523 4.00024 17 4.44796 17 5.00024V6.00024L3 6.00024L3 5.00024ZM17 8.00024L3 8.00024V17.0002C3 17.5525 3.44772 18.0002 4 18.0002H16C16.5523 18.0002 17 17.5525 17 17.0002V8.00024Z" fill="white"/>
<g opacity="0.5">
<path d="M6 4.00024C5.99254 4.00024 5.9851 4.00016 5.97768 4H6.02232C6.0149 4.00016 6.00746 4.00024 6 4.00024Z" fill="white"/>
<path d="M7 2H5V1.00024C5 0.447959 5.44772 0.000244141 6 0.000244141C6.55228 0.000244141 7 0.447959 7 1.00024V2Z" fill="white"/>
<path d="M13.9777 4C13.9851 4.00016 13.9925 4.00024 14 4.00024C14.0075 4.00024 14.0149 4.00016 14.0223 4H13.9777Z" fill="white"/>
<path d="M15 2V1.00024C15 0.447959 14.5523 0.000244141 14 0.000244141C13.4477 0.000244141 13 0.447959 13 1.00024V2H15Z" fill="white"/>
<path d="M6 12.0002C5.44772 12.0002 5 11.5525 5 11.0002C5 10.448 5.44772 10.0002 6 10.0002C6.55228 10.0002 7 10.448 7 11.0002C7 11.5525 6.55228 12.0002 6 12.0002Z" fill="white"/>
<path d="M9 11.0002C9 11.5525 9.44772 12.0002 10 12.0002C10.5523 12.0002 11 11.5525 11 11.0002C11 10.448 10.5523 10.0002 10 10.0002C9.44772 10.0002 9 10.448 9 11.0002Z" fill="white"/>
<path d="M14 12.0002C13.4477 12.0002 13 11.5525 13 11.0002C13 10.448 13.4477 10.0002 14 10.0002C14.5523 10.0002 15 10.448 15 11.0002C15 11.5525 14.5523 12.0002 14 12.0002Z" fill="white"/>
<path d="M5 15.0002C5 15.5525 5.44772 16.0002 6 16.0002C6.55228 16.0002 7 15.5525 7 15.0002C7 14.448 6.55228 14.0002 6 14.0002C5.44772 14.0002 5 14.448 5 15.0002Z" fill="white"/>
<path d="M10 16.0002C9.44772 16.0002 9 15.5525 9 15.0002C9 14.448 9.44772 14.0002 10 14.0002C10.5523 14.0002 11 14.448 11 15.0002C11 15.5525 10.5523 16.0002 10 16.0002Z" fill="white"/>
<path d="M13 15.0002C13 15.5525 13.4477 16.0002 14 16.0002C14.5523 16.0002 15 15.5525 15 15.0002C15 14.448 14.5523 14.0002 14 14.0002C13.4477 14.0002 13 14.448 13 15.0002Z" fill="white"/>
</g>
</g>
<defs>
<clipPath id="clip0_13_422">
<rect width="20" height="20" fill="white" transform="translate(0 0.000244141)"/>
</clipPath>
</defs>
</svg>
