<svg width="20" height="20" viewBox="0 0 20 20" fill="none" xmlns="http://www.w3.org/2000/svg">
<path fill-rule="evenodd" clip-rule="evenodd" d="M4.83007 3.02823C5.27789 1.80653 6.45513 1.00024 7.75292 1.00024H12.2449C13.5667 1.00024 14.754 1.82926 15.1869 3.08202L15.3292 3.49375H16.1875C18.2764 3.49375 20 5.17023 20 7.26431V15.2297C20 17.3238 18.2764 19.0002 16.1875 19.0002H3.8125C1.72362 19.0002 0 17.3238 0 15.2297V7.26431C0 5.17023 1.72362 3.49375 3.8125 3.49375H4.65943L4.83007 3.02823C4.83007 3.02823 4.83007 3.02823 4.83007 3.02823ZM15.3996 3.69769C15.3996 3.69755 15.3997 3.69783 15.3996 3.69769V3.69769ZM7.75292 3.00024C7.27912 3.00024 6.86174 3.29684 6.70789 3.71656L6.4645 4.38054C6.21722 5.05495 5.57161 5.49375 4.86427 5.49375H3.8125C2.79976 5.49375 2 6.30302 2 7.26431V15.2297C2 16.191 2.79976 17.0002 3.8125 17.0002H16.1875C17.2002 17.0002 18 16.191 18 15.2297V7.26431C18 6.30302 17.2002 5.49375 16.1875 5.49375H15.1201C14.4005 5.49375 13.7482 5.04214 13.5093 4.35085L13.2966 3.73523C13.2966 3.73523 13.2966 3.73524 13.2966 3.73523C13.1473 3.30323 12.7296 3.00024 12.2449 3.00024H7.75292Z" fill="white"/>
<circle opacity="0.5" cx="10" cy="11.0002" r="3" stroke="white" stroke-width="2"/>
</svg>
