<svg width="1320" height="72" viewBox="0 0 1320 72" fill="none" xmlns="http://www.w3.org/2000/svg">
<rect width="1320" height="72" fill="#272E3B"/>
<path d="M41.2656 32.9648C41.2656 31.4883 41.7969 30.2617 42.8594 29.2852C43.9219 28.3008 45.25 27.8086 46.8438 27.8086C48.3516 27.8086 49.6289 28.2578 50.6758 29.1562C51.7227 30.0547 52.2461 31.1523 52.2461 32.4492C52.2461 33.3867 51.9883 34.2891 51.4727 35.1562C50.957 36.0234 49.9883 37.1914 48.5664 38.6602L44.2891 43.0781V43.125H52.5273V45H41.3711V43.5469L47.3242 37.2773C48.457 36.082 49.207 35.1758 49.5742 34.5586C49.9492 33.9414 50.1367 33.2812 50.1367 32.5781C50.1367 31.7656 49.8086 31.0742 49.1523 30.5039C48.5039 29.9336 47.7148 29.6484 46.7852 29.6484C45.793 29.6484 44.9648 29.9648 44.3008 30.5977C43.6367 31.2305 43.3047 32.0195 43.3047 32.9648V32.9766H41.2656V32.9648ZM60.8828 45.2812C58.9219 45.2812 57.3906 44.5 56.2891 42.9375C55.1953 41.3672 54.6484 39.2344 54.6484 36.5391C54.6484 33.8672 55.1992 31.7461 56.3008 30.1758C57.4102 28.5977 58.9375 27.8086 60.8828 27.8086C62.8281 27.8086 64.3477 28.5938 65.4414 30.1641C66.543 31.7266 67.0938 33.8477 67.0938 36.5273C67.0938 39.2227 66.5469 41.3555 65.4531 42.9258C64.3594 44.4961 62.8359 45.2812 60.8828 45.2812ZM57.8477 41.5898C58.5664 42.8242 59.5781 43.4414 60.8828 43.4414C62.1875 43.4414 63.1953 42.8281 63.9062 41.6016C64.6172 40.3672 64.9727 38.6797 64.9727 36.5391C64.9727 34.4297 64.6133 32.7578 63.8945 31.5234C63.1758 30.2812 62.1719 29.6602 60.8828 29.6602C59.5938 29.6602 58.5859 30.2812 57.8594 31.5234C57.1328 32.7656 56.7695 34.4336 56.7695 36.5273C56.7695 38.668 57.1289 40.3555 57.8477 41.5898ZM73.7852 40.3594H73.7383L70.7969 45H68.5352L72.6836 38.9062L68.6055 32.8125H70.8789L73.8086 37.3828H73.8555L76.75 32.8125H79.0234L74.9102 38.8242L78.9648 45H76.7031L73.7852 40.3594ZM80.6875 32.9648C80.6875 31.4883 81.2188 30.2617 82.2812 29.2852C83.3438 28.3008 84.6719 27.8086 86.2656 27.8086C87.7734 27.8086 89.0508 28.2578 90.0977 29.1562C91.1445 30.0547 91.668 31.1523 91.668 32.4492C91.668 33.3867 91.4102 34.2891 90.8945 35.1562C90.3789 36.0234 89.4102 37.1914 87.9883 38.6602L83.7109 43.0781V43.125H91.9492V45H80.793V43.5469L86.7461 37.2773C87.8789 36.082 88.6289 35.1758 88.9961 34.5586C89.3711 33.9414 89.5586 33.2812 89.5586 32.5781C89.5586 31.7656 89.2305 31.0742 88.5742 30.5039C87.9258 29.9336 87.1367 29.6484 86.207 29.6484C85.2148 29.6484 84.3867 29.9648 83.7227 30.5977C83.0586 31.2305 82.7266 32.0195 82.7266 32.9648V32.9766H80.6875V32.9648ZM100.305 45.2812C98.3438 45.2812 96.8125 44.5 95.7109 42.9375C94.6172 41.3672 94.0703 39.2344 94.0703 36.5391C94.0703 33.8672 94.6211 31.7461 95.7227 30.1758C96.832 28.5977 98.3594 27.8086 100.305 27.8086C102.25 27.8086 103.77 28.5938 104.863 30.1641C105.965 31.7266 106.516 33.8477 106.516 36.5273C106.516 39.2227 105.969 41.3555 104.875 42.9258C103.781 44.4961 102.258 45.2812 100.305 45.2812ZM97.2695 41.5898C97.9883 42.8242 99 43.4414 100.305 43.4414C101.609 43.4414 102.617 42.8281 103.328 41.6016C104.039 40.3672 104.395 38.6797 104.395 36.5391C104.395 34.4297 104.035 32.7578 103.316 31.5234C102.598 30.2812 101.594 29.6602 100.305 29.6602C99.0156 29.6602 98.0078 30.2812 97.2812 31.5234C96.5547 32.7656 96.1914 34.4336 96.1914 36.5273C96.1914 38.668 96.5508 40.3555 97.2695 41.5898Z" fill="white"/>
<path d="M1171.62 41.6741C1172.08 46.5614 1169.16 48.2772 1163.17 49.4713C1157.18 50.6653 1150.38 50.8854 1149.93 45.9981C1149.48 41.1107 1153.97 36.1809 1159.96 34.9868C1165.95 33.7928 1171.17 36.7868 1171.62 41.6741Z" fill="#EC9630"/>
<path d="M1158.21 34.3794C1156.28 34.3794 1154.42 36.0161 1153.73 36.8345L1153.73 48.6292L1169.84 49.0178C1171.58 41.98 1172.94 32.3564 1168.77 35.656C1163.56 39.7805 1160.61 34.3794 1158.21 34.3794Z" fill="#EFBC3A"/>
<path fill-rule="evenodd" clip-rule="evenodd" d="M1155.42 20C1153.57 20 1151.86 20.9876 1150.93 22.5909L1144.69 33.3959C1143.77 34.9992 1143.77 36.9745 1144.69 38.5777L1150.93 49.3828C1151.86 50.986 1153.57 51.9736 1155.42 51.9736H1167.9C1169.75 51.9736 1171.46 50.986 1172.38 49.3828L1178.62 38.5777C1179.55 36.9744 1179.55 34.9992 1178.62 33.3959L1172.38 22.5909C1171.46 20.9876 1169.75 20 1167.9 20H1155.42ZM1155.7 30.112C1155.42 30.7079 1155.28 31.341 1155.28 32.0114C1155.28 33.0543 1155.49 33.9016 1155.92 34.5533C1156.35 35.2051 1156.88 35.7358 1157.51 36.1455C1158.16 36.5366 1158.86 36.8438 1159.6 37.0673C1160.34 37.2907 1161.03 37.5049 1161.66 37.7097C1162.31 37.9146 1162.85 38.138 1163.28 38.3801C1163.7 38.6222 1163.92 38.9667 1163.92 39.4136C1163.92 39.8978 1163.71 40.3261 1163.3 40.6986C1162.91 41.0524 1162.33 41.2293 1161.55 41.2293C1159.88 41.2293 1159.04 40.4378 1159.04 38.855L1155.14 39.1343C1155.14 39.9723 1155.28 40.7451 1155.56 41.4527C1155.86 42.1417 1156.27 42.747 1156.81 43.2684C1157.37 43.7712 1158.05 44.1622 1158.85 44.4416C1159.64 44.7209 1160.55 44.8605 1161.55 44.8605C1162.59 44.8605 1163.52 44.7209 1164.33 44.4416C1165.15 44.1622 1165.84 43.7898 1166.4 43.3242C1166.95 42.8587 1167.37 42.3187 1167.65 41.7041C1167.95 41.071 1168.1 40.4006 1168.1 39.693C1168.1 38.6315 1167.88 37.7656 1167.45 37.0952C1167.03 36.4248 1166.49 35.8848 1165.84 35.4751C1165.21 35.0654 1164.52 34.7489 1163.78 34.5254C1163.03 34.3019 1162.34 34.0971 1161.69 33.9109C1161.06 33.706 1160.53 33.4919 1160.1 33.2684C1159.67 33.0449 1159.46 32.7191 1159.46 32.2908C1159.46 31.8625 1159.64 31.4807 1160.02 31.1455C1160.41 30.7917 1160.92 30.6148 1161.55 30.6148C1162.25 30.6148 1162.8 30.8103 1163.19 31.2014C1163.58 31.5924 1163.78 32.1418 1163.78 32.8494L1167.68 32.5701C1167.68 31.7693 1167.53 31.0338 1167.23 30.3634C1166.95 29.6744 1166.54 29.0785 1166.01 28.5757C1165.49 28.0729 1164.84 27.6818 1164.08 27.4025C1163.34 27.1232 1162.5 26.9835 1161.55 26.9835C1160.56 26.9835 1159.68 27.1232 1158.9 27.4025C1158.14 27.6818 1157.49 28.0543 1156.95 28.5198C1156.41 28.9667 1156 29.4975 1155.7 30.112Z" fill="white"/>
<path d="M1190.84 32.92C1190.84 32.344 1190.96 31.8 1191.2 31.288C1191.46 30.76 1191.82 30.304 1192.28 29.92C1192.74 29.52 1193.3 29.2 1193.96 28.96C1194.63 28.72 1195.39 28.6 1196.24 28.6C1197.06 28.6 1197.78 28.72 1198.42 28.96C1199.08 29.2 1199.63 29.536 1200.08 29.968C1200.54 30.4 1200.9 30.912 1201.14 31.504C1201.39 32.08 1201.52 32.712 1201.52 33.4L1198.16 33.64C1198.16 33.032 1197.99 32.56 1197.66 32.224C1197.32 31.888 1196.85 31.72 1196.24 31.72C1195.7 31.72 1195.26 31.872 1194.92 32.176C1194.6 32.464 1194.44 32.792 1194.44 33.16C1194.44 33.528 1194.62 33.808 1194.99 34C1195.36 34.192 1195.82 34.376 1196.36 34.552C1196.92 34.712 1197.52 34.888 1198.16 35.08C1198.8 35.272 1199.39 35.544 1199.94 35.896C1200.5 36.248 1200.96 36.712 1201.33 37.288C1201.7 37.864 1201.88 38.608 1201.88 39.52C1201.88 40.128 1201.75 40.704 1201.5 41.248C1201.26 41.776 1200.9 42.24 1200.42 42.64C1199.94 43.04 1199.34 43.36 1198.64 43.6C1197.94 43.84 1197.14 43.96 1196.24 43.96C1195.38 43.96 1194.6 43.84 1193.91 43.6C1193.22 43.36 1192.64 43.024 1192.16 42.592C1191.7 42.144 1191.34 41.624 1191.08 41.032C1190.84 40.424 1190.72 39.76 1190.72 39.04L1194.08 38.8C1194.08 40.16 1194.8 40.84 1196.24 40.84C1196.91 40.84 1197.42 40.688 1197.75 40.384C1198.1 40.064 1198.28 39.696 1198.28 39.28C1198.28 38.896 1198.1 38.6 1197.73 38.392C1197.36 38.184 1196.9 37.992 1196.34 37.816C1195.79 37.64 1195.2 37.456 1194.56 37.264C1193.92 37.072 1193.32 36.808 1192.76 36.472C1192.22 36.12 1191.76 35.664 1191.39 35.104C1191.02 34.544 1190.84 33.816 1190.84 32.92Z" fill="white"/>
<path d="M1210.41 43.84L1207.05 38.92V43.84H1203.81V28.72H1207.05V37.24L1210.05 32.8H1213.77L1210.05 38.08L1214.13 43.84H1210.41Z" fill="white"/>
<path d="M1218.44 43.84H1215.2V32.8H1218.44V43.84ZM1215.08 29.8C1215.08 29.32 1215.26 28.904 1215.61 28.552C1215.98 28.184 1216.4 28 1216.88 28C1217.36 28 1217.78 28.184 1218.13 28.552C1218.5 28.904 1218.68 29.32 1218.68 29.8C1218.68 30.28 1218.5 30.704 1218.13 31.072C1217.78 31.424 1217.36 31.6 1216.88 31.6C1216.4 31.6 1215.98 31.424 1215.61 31.072C1215.26 30.704 1215.08 30.28 1215.08 29.8Z" fill="white"/>
<path d="M1227.2 32.68C1227.86 32.68 1228.46 32.792 1229 33.016C1229.55 33.224 1230.01 33.536 1230.39 33.952C1230.79 34.352 1231.1 34.84 1231.31 35.416C1231.53 35.992 1231.64 36.64 1231.64 37.36V43.84H1228.4V37.96C1228.4 37.24 1228.21 36.68 1227.83 36.28C1227.46 35.88 1226.97 35.68 1226.36 35.68C1225.75 35.68 1225.26 35.88 1224.87 36.28C1224.51 36.68 1224.32 37.24 1224.32 37.96V43.84H1221.08V32.8H1223.48L1223.96 33.88C1224.22 33.656 1224.51 33.456 1224.85 33.28C1225.14 33.136 1225.48 33 1225.88 32.872C1226.28 32.744 1226.72 32.68 1227.2 32.68Z" fill="white"/>
<path d="M1241.85 29.6838C1241.1 29.6838 1240.38 29.8439 1239.7 30.1642C1239.02 30.4845 1238.42 30.9338 1237.9 31.5119C1237.38 32.0822 1236.96 32.7736 1236.66 33.5861C1236.36 34.3908 1236.21 35.2892 1236.21 36.2814C1236.21 37.2736 1236.36 38.1759 1236.66 38.9884C1236.96 39.7931 1237.38 40.4845 1237.9 41.0627C1238.42 41.633 1239.02 42.0783 1239.7 42.3986C1240.38 42.7189 1241.1 42.8791 1241.85 42.8791C1243.11 42.8791 1244.16 42.5002 1245 41.7423C1245.84 40.9845 1246.47 40.0041 1246.89 38.8009H1248.08C1247.84 39.5509 1247.53 40.2423 1247.15 40.8752C1246.76 41.508 1246.31 42.0548 1245.77 42.5158C1245.25 42.9689 1244.66 43.3244 1244 43.5822C1243.35 43.8322 1242.63 43.9572 1241.85 43.9572C1240.95 43.9572 1240.09 43.7697 1239.26 43.3947C1238.44 43.0197 1237.71 42.4963 1237.08 41.8244C1236.45 41.1525 1235.94 40.3439 1235.57 39.3986C1235.19 38.4533 1235 37.4142 1235 36.2814C1235 35.1486 1235.19 34.1095 1235.57 33.1642C1235.94 32.2189 1236.45 31.4103 1237.08 30.7384C1237.71 30.0666 1238.44 29.5431 1239.26 29.1681C1240.09 28.7931 1240.95 28.6056 1241.85 28.6056C1242.63 28.6056 1243.35 28.7345 1244 28.9923C1244.66 29.2423 1245.24 29.5978 1245.75 30.0588C1246.27 30.5119 1246.71 31.0548 1247.09 31.6877C1247.46 32.3205 1247.75 33.0119 1247.97 33.7619H1246.77C1246.4 32.5588 1245.81 31.5783 1244.98 30.8205C1244.16 30.0627 1243.11 29.6838 1241.85 29.6838Z" fill="white"/>
<path d="M1253.73 42.8791C1254.75 42.8791 1255.57 42.5744 1256.18 41.965C1256.79 41.3556 1257.09 40.5392 1257.09 39.5158V38.5548H1255.77C1254.84 38.5548 1254.07 38.6213 1253.45 38.7541C1252.83 38.8791 1252.34 39.0509 1251.97 39.2697C1251.61 39.4884 1251.34 39.7423 1251.19 40.0314C1251.04 40.3127 1250.97 40.6213 1250.97 40.9572C1250.97 41.4338 1251.2 41.8752 1251.66 42.2814C1252.13 42.6798 1252.82 42.8791 1253.73 42.8791ZM1254.33 33.1642C1254.91 33.1642 1255.43 33.258 1255.9 33.4455C1256.38 33.6252 1256.78 33.8791 1257.12 34.2072C1257.45 34.5353 1257.71 34.9259 1257.89 35.3791C1258.08 35.8322 1258.17 36.3322 1258.17 36.8791V43.84H1257.45L1257.09 42.2814H1256.97C1256.74 42.6017 1256.48 42.883 1256.18 43.1252C1255.91 43.3517 1255.56 43.547 1255.14 43.7111C1254.72 43.8752 1254.22 43.9572 1253.61 43.9572C1252.41 43.9572 1251.49 43.672 1250.85 43.1017C1250.21 42.5236 1249.89 41.8088 1249.89 40.9572C1249.89 40.4806 1249.99 40.0314 1250.19 39.6095C1250.4 39.1798 1250.74 38.8088 1251.2 38.4963C1251.67 38.1838 1252.27 37.9377 1253.02 37.758C1253.77 37.5705 1254.68 37.4767 1255.77 37.4767H1257.09V36.8791C1257.09 36.0978 1256.84 35.465 1256.34 34.9806C1255.85 34.4884 1255.18 34.2423 1254.33 34.2423C1253.48 34.2423 1252.83 34.4259 1252.38 34.7931C1251.94 35.1603 1251.63 35.6173 1251.45 36.1642H1250.37C1250.43 35.7814 1250.57 35.4064 1250.78 35.0392C1250.99 34.6642 1251.26 34.3439 1251.6 34.0783C1251.93 33.8048 1252.33 33.5861 1252.78 33.422C1253.24 33.2502 1253.75 33.1642 1254.33 33.1642Z" fill="white"/>
<path d="M1268.25 40.84C1268.25 41.2541 1268.16 41.6525 1267.98 42.0353C1267.81 42.4103 1267.57 42.7423 1267.25 43.0314C1266.94 43.3127 1266.56 43.5392 1266.12 43.7111C1265.68 43.8752 1265.19 43.9572 1264.65 43.9572C1264.07 43.9572 1263.56 43.8752 1263.09 43.7111C1262.64 43.5392 1262.25 43.3048 1261.92 43.008C1261.59 42.7111 1261.33 42.3673 1261.14 41.9767C1260.95 41.5861 1260.84 41.1681 1260.81 40.7228H1261.89C1262.01 41.3947 1262.29 41.922 1262.72 42.3048C1263.16 42.6877 1263.8 42.8791 1264.65 42.8791C1265.43 42.8791 1266.05 42.6759 1266.49 42.2697C1266.95 41.8634 1267.17 41.3869 1267.17 40.84C1267.17 40.3634 1267.02 39.9963 1266.72 39.7384C1266.41 39.4806 1266.03 39.2853 1265.58 39.1525C1265.13 39.0119 1264.64 38.8908 1264.1 38.7892C1263.57 38.6877 1263.08 38.5392 1262.63 38.3439C1262.18 38.1486 1261.81 37.8752 1261.5 37.5236C1261.2 37.172 1261.06 36.6759 1261.06 36.0353C1261.06 35.6525 1261.13 35.2853 1261.29 34.9338C1261.45 34.5822 1261.68 34.2775 1261.97 34.0197C1262.27 33.7541 1262.63 33.547 1263.06 33.3986C1263.5 33.2423 1263.99 33.1642 1264.54 33.1642C1265.05 33.1642 1265.52 33.2502 1265.94 33.422C1266.36 33.5861 1266.74 33.8048 1267.06 34.0783C1267.38 34.3439 1267.63 34.6603 1267.81 35.0275C1267.99 35.3947 1268.1 35.7736 1268.13 36.1642H1267.06C1266.93 35.6173 1266.66 35.1603 1266.24 34.7931C1265.82 34.4259 1265.25 34.2423 1264.54 34.2423C1263.75 34.2423 1263.16 34.422 1262.74 34.7814C1262.34 35.1408 1262.13 35.5588 1262.13 36.0353C1262.13 36.4963 1262.29 36.8439 1262.59 37.0783C1262.9 37.3127 1263.27 37.4963 1263.72 37.6291C1264.16 37.7541 1264.65 37.8713 1265.19 37.9806C1265.73 38.0822 1266.22 38.2345 1266.67 38.4377C1267.11 38.633 1267.49 38.9142 1267.79 39.2814C1268.1 39.6486 1268.25 40.1681 1268.25 40.84Z" fill="white"/>
<path d="M1275.43 33.1642C1276.03 33.1642 1276.58 33.2736 1277.1 33.4923C1277.62 33.7033 1278.07 34.0041 1278.43 34.3947C1278.81 34.7853 1279.1 35.2541 1279.31 35.8009C1279.53 36.3478 1279.64 36.9494 1279.64 37.6056V43.84H1278.56V37.6056C1278.56 37.1291 1278.48 36.6877 1278.31 36.2814C1278.14 35.8673 1277.91 35.508 1277.61 35.2033C1277.32 34.8986 1276.97 34.6642 1276.58 34.5002C1276.19 34.3283 1275.77 34.2423 1275.32 34.2423C1274.84 34.2423 1274.4 34.3283 1273.98 34.5002C1273.57 34.6642 1273.22 34.8986 1272.91 35.2033C1272.62 35.508 1272.38 35.8634 1272.21 36.2697C1272.05 36.6759 1271.97 37.1213 1271.97 37.6056V43.84H1270.88V28.7228H1271.97V34.84H1272.08C1272.28 34.5353 1272.53 34.2541 1272.84 33.9963C1273.12 33.7853 1273.47 33.5939 1273.89 33.422C1274.31 33.2502 1274.82 33.1642 1275.43 33.1642Z" fill="white"/>
</svg>
