<svg width="20" height="20" viewBox="0 0 20 20" fill="none" xmlns="http://www.w3.org/2000/svg">
<g clip-path="url(#clip0_13_460)">
<path fill-rule="evenodd" clip-rule="evenodd" d="M2.20338 11.8789C1.86778 11.1928 1.95234 10.3753 2.42131 9.77236L9.42131 0.772361C9.94587 0.0979313 10.8409 -0.168791 11.6491 0.108496C12.4573 0.385782 13 1.14583 13 2.00024V7.00024H16C16.7639 7.00024 17.461 7.43535 17.7966 8.12154C18.1323 8.80773 18.0477 9.62516 17.5787 10.2281L10.5787 19.2281C10.0542 19.9026 9.1591 20.1693 8.35094 19.892C7.54278 19.6147 7.00002 18.8547 7.00002 18.0002V13.0002H4.00002C3.23615 13.0002 2.53899 12.5651 2.20338 11.8789ZM11 9.00024H16L9.00002 18.0002V11.0002H4.00002L11 2.00024V9.00024Z" fill="white"/>
<path opacity="0.5" d="M9 18.0002V14.0002L13 9.00024H16L9 18.0002Z" fill="white"/>
</g>
<defs>
<clipPath id="clip0_13_460">
<rect width="20" height="20" fill="white" transform="translate(0 0.000244141)"/>
</clipPath>
</defs>
</svg>
