<svg width="20" height="20" viewBox="0 0 20 20" fill="none" xmlns="http://www.w3.org/2000/svg">
<path opacity="0.5" fill-rule="evenodd" clip-rule="evenodd" d="M8.66087 6.45605C8.91232 6.06813 9.39689 5.90313 9.83282 6.05698L18.3328 9.05698C18.5937 9.14904 18.8047 9.34503 18.9158 9.59834C19.0269 9.85165 19.0281 10.1397 18.9191 10.3939L17.4191 13.8939C17.4093 13.9168 17.3986 13.9394 17.3871 13.9616C17.2586 14.2086 17.1451 14.4432 17.0339 14.6731C16.6942 15.3755 16.3761 16.0331 15.7177 16.86C14.1372 18.8448 11.6216 20 8.99579 20H8.98155L8.97949 20C8.39885 19.9989 7.83063 19.9417 7.26253 19.826C6.79677 19.7311 6.46217 19.3214 6.46217 18.8461V18.3569H6.45073C4.16318 18.3569 1.914 17.4109 0.619557 15.7587C0.461444 15.5568 0.311013 15.3493 0.168945 15.1371C-0.0253821 14.8467 -0.0540691 14.476 0.0932762 14.1592C0.240622 13.8424 0.542631 13.6254 0.889899 13.587C3.64318 13.282 5.78664 11.6482 6.63214 9.61586C6.65531 9.56016 6.68348 9.50667 6.71629 9.45605L8.66087 6.45605ZM9.91043 8.20529L9.06125 9.51537L15.9624 12.2158L16.6602 10.5876L9.91043 8.20529ZM15.1186 14.0332L8.04307 11.2646C6.97477 13.1138 5.12828 14.5397 2.89175 15.2124C3.79208 15.911 5.06861 16.3569 6.45073 16.3569H7.46217C8.01446 16.3569 8.46217 16.8046 8.46217 17.3569V17.9791C8.63401 17.9927 8.80709 17.9996 8.98225 18H8.99545C11.0535 18 12.9771 17.091 14.1531 15.6143C14.6336 15.0106 14.8402 14.6067 15.1186 14.0332Z" fill="white"/>
<path fill-rule="evenodd" clip-rule="evenodd" d="M8.66086 6.45605C8.91231 6.06813 9.39689 5.90313 9.83282 6.05698L18.3328 9.05698C18.5937 9.14904 18.8047 9.34503 18.9158 9.59834C19.0269 9.85165 19.0281 10.1397 18.9191 10.3939L17.4191 13.8939C17.2065 14.3901 16.6384 14.6279 16.1356 14.4312L7.19103 10.9312C6.91126 10.8217 6.69554 10.5923 6.60351 10.3063C6.51147 10.0203 6.55288 9.70815 6.71629 9.45605L8.66086 6.45605ZM9.91043 8.20529L9.06124 9.51537L15.9624 12.2158L16.6602 10.5876L9.91043 8.20529Z" fill="white"/>
<path fill-rule="evenodd" clip-rule="evenodd" d="M17.5892 2.42794C17.2003 2.16868 16.6726 2.30141 16.4527 2.71382L13.3824 8.47058L11.6177 7.5294L14.6879 1.77264C15.4641 0.317342 17.3263 -0.151045 18.6986 0.763843C19.8966 1.56251 20.2904 3.14144 19.6078 4.40915L16.8805 9.47409L15.1196 8.52589L17.8468 3.46095C18.0403 3.1017 17.9287 2.65427 17.5892 2.42794Z" fill="white"/>
<g opacity="0.5">
<path d="M2 4C2 3.44772 2.44772 3 3 3C3.55228 3 4 3.44772 4 4V8C4 8.55228 3.55228 9 3 9C2.44772 9 2 8.55228 2 8V4Z" fill="white"/>
<path d="M1 7C0.447715 7 2.41411e-08 6.55228 0 6C-2.41411e-08 5.44772 0.447715 5 1 5L5 5C5.55228 5 6 5.44772 6 6C6 6.55228 5.55228 7 5 7L1 7Z" fill="white"/>
</g>
<path opacity="0.5" d="M9 3C9 3.55228 8.55228 4 8 4C7.44772 4 7 3.55228 7 3C7 2.44772 7.44772 2 8 2C8.55228 2 9 2.44772 9 3Z" fill="white"/>
</svg>
