<svg width="20" height="20" viewBox="0 0 20 20" fill="none" xmlns="http://www.w3.org/2000/svg">
<path fill-rule="evenodd" clip-rule="evenodd" d="M2.31015 13.3489L6.65114 17.6898C7.06467 18.1034 7.73515 18.1034 8.14869 17.6898L17.6898 8.14869C18.1034 7.73515 18.1034 7.06467 17.6898 6.65114L13.3489 2.31015C12.9353 1.89662 12.2648 1.89661 11.8513 2.31015L2.31015 11.8513C1.89662 12.2648 1.89662 12.9353 2.31015 13.3489ZM5.23692 19.1041C6.43151 20.2986 8.36832 20.2986 9.5629 19.1041L19.1041 9.5629C20.2986 8.36831 20.2986 6.43151 19.1041 5.23692L14.7631 0.895937C13.5685 -0.298648 11.6317 -0.298645 10.4371 0.895941L0.895939 10.4371C-0.298647 11.6317 -0.298646 13.5685 0.895939 14.7631L5.23692 19.1041Z" fill="white"/>
<path fill-rule="evenodd" clip-rule="evenodd" d="M6.29289 11.2929C6.68342 10.9024 7.31658 10.9024 7.70711 11.2929L8.70711 12.2929C9.09763 12.6834 9.09763 13.3166 8.70711 13.7071C8.31658 14.0976 7.68342 14.0976 7.29289 13.7071L6.29289 12.7071C5.90237 12.3166 5.90237 11.6834 6.29289 11.2929Z" fill="white"/>
<path fill-rule="evenodd" clip-rule="evenodd" d="M9.29289 14.2929C9.68342 13.9024 10.3166 13.9024 10.7071 14.2929L11.7071 15.2929C12.0976 15.6834 12.0976 16.3166 11.7071 16.7071C11.3166 17.0976 10.6834 17.0976 10.2929 16.7071L9.29289 15.7071C8.90237 15.3166 8.90237 14.6834 9.29289 14.2929Z" fill="white"/>
<path fill-rule="evenodd" clip-rule="evenodd" d="M3.29289 8.29289C3.68342 7.90237 4.31658 7.90237 4.70711 8.29289L5.70711 9.29289C6.09763 9.68342 6.09763 10.3166 5.70711 10.7071C5.31658 11.0976 4.68342 11.0976 4.29289 10.7071L3.29289 9.70711C2.90237 9.31658 2.90237 8.68342 3.29289 8.29289Z" fill="white"/>
<path opacity="0.5" fill-rule="evenodd" clip-rule="evenodd" d="M12.5 4.5C13.0523 4.5 13.5 4.94772 13.5 5.5V9.5C13.5 10.0523 13.0523 10.5 12.5 10.5C11.9477 10.5 11.5 10.0523 11.5 9.5V5.5C11.5 4.94772 11.9477 4.5 12.5 4.5Z" fill="white"/>
<path opacity="0.5" d="M11 7.5C11 8.05228 10.5523 8.5 10 8.5C9.44772 8.5 9 8.05228 9 7.5C9 6.94772 9.44772 6.5 10 6.5C10.5523 6.5 11 6.94772 11 7.5Z" fill="white"/>
<path opacity="0.5" d="M16 7.5C16 8.05228 15.5523 8.5 15 8.5C14.4477 8.5 14 8.05228 14 7.5C14 6.94772 14.4477 6.5 15 6.5C15.5523 6.5 16 6.94772 16 7.5Z" fill="white"/>
</svg>
