<svg width="20" height="20" viewBox="0 0 20 20" fill="none" xmlns="http://www.w3.org/2000/svg">
<rect opacity="0.5" x="6" y="4" width="8" height="2" rx="1" fill="white"/>
<path d="M16 13L16 3C16 2.44772 15.5523 2 15 2L5 2C4.44772 2 4 2.44772 4 3L4 17H2L2 3C2 1.34315 3.34315 -7.24234e-08 5 0L15 5.56323e-07C16.6569 6.28747e-07 18 1.34315 18 3V13C18 14.6569 16.6569 16 15 16H12.5V14H15C15.5523 14 16 13.5523 16 13Z" fill="white"/>
<path fill-rule="evenodd" clip-rule="evenodd" d="M2 17C2 15.3777 3.2772 14 4.92857 14H13C13.5523 14 14 14.4477 14 15C14 15.5523 13.5523 16 13 16H4.92857C4.4497 16 4 16.4131 4 17C4 17.5869 4.4497 18 4.92857 18H16.9996C17.5519 18 18 18.4477 18 19C18 19.5523 17.5523 20 17 20H4.92857C3.2772 20 2 18.6223 2 17Z" fill="white"/>
</svg>
