<svg width="20" height="20" viewBox="0 0 20 20" fill="none" xmlns="http://www.w3.org/2000/svg">
<path d="M10 17.0002C18 17.0002 20 10.0002 20 10.0002C20 10.0002 19.4922 8.22312 17.9651 6.45971L16.5408 7.87184C17.1181 8.56015 17.5097 9.24751 17.7568 9.76636C17.7964 9.84948 17.832 9.92769 17.8638 10.0002C17.832 10.0728 17.7964 10.151 17.7568 10.2341C17.5013 10.7706 17.0914 11.4871 16.4815 12.1987C15.2971 13.5805 13.324 15.0002 10 15.0002C9.80626 15.0002 9.61712 14.9954 9.43245 14.9861L7.63557 16.7774C8.35843 16.9203 9.14494 17.0002 10 17.0002Z" fill="white"/>
<path d="M10 3.00024C2 3.00024 0 10.0002 0 10.0002C0 10.0002 1.04595 13.6611 4.65065 15.6879L6 14.139C4.92152 13.6089 4.11874 12.8989 3.51851 12.1987C2.90864 11.4871 2.49867 10.7706 2.24322 10.2341C2.20364 10.151 2.16805 10.0728 2.13623 10.0002C2.16805 9.92769 2.20364 9.84948 2.24322 9.76636C2.49867 9.22991 2.90864 8.51334 3.51851 7.80183C4.70294 6.41999 6.67603 5.00024 10 5.00024C11.7154 5.00024 13.071 5.37835 14.1441 5.93423L15.3477 4.31162C13.968 3.53625 12.2137 3.00024 10 3.00024Z" fill="white"/>
<path d="M10 17.0003C18 17.0003 20 10.0003 20 10.0003C20 10.0003 19.4923 8.22312 17.9651 6.45972L16.5409 7.87185C17.1181 8.56016 17.5097 9.24751 17.7568 9.76637C17.7964 9.84949 17.832 9.9277 17.8638 10.0003C17.832 10.0728 17.7964 10.151 17.7568 10.2341C17.5014 10.7706 17.0914 11.4872 16.4815 12.1987C15.2971 13.5805 13.324 15.0003 10 15.0003C9.80631 15.0003 9.61716 14.9954 9.43249 14.9861L7.63561 16.7774C8.35847 16.9203 9.14498 17.0003 10 17.0003Z" fill="white"/>
<path opacity="0.5" d="M10 8.00024C8.89543 8.00024 8 8.89567 8 10.0002C8 10.6965 8.35577 11.3096 8.89543 11.6678L7.5 13.1229C6.58554 12.3899 6 11.2634 6 10.0002C6 7.79111 7.79086 6.00024 10 6.00024C11.1234 6.00024 12.1387 6.46339 12.8653 7.20916L11.3229 8.50024C10.9703 8.18906 10.5072 8.00024 10 8.00024Z" fill="white"/>
<path fill-rule="evenodd" clip-rule="evenodd" d="M18.7071 1.29314C19.0976 1.68366 19.0976 2.31683 18.7071 2.70735L2.70711 18.7074C2.31658 19.0979 1.68342 19.0979 1.29289 18.7074C0.902369 18.3168 0.902369 17.6837 1.29289 17.2931L17.2929 1.29314C17.6834 0.902613 18.3166 0.902613 18.7071 1.29314Z" fill="white"/>
</svg>
