<svg width="20" height="20" viewBox="0 0 20 20" fill="none" xmlns="http://www.w3.org/2000/svg">
<path d="M10.0005 16C6.3385 16 4.10196 14.4151 2.75974 12.8492C2.07981 12.056 1.62482 11.2602 1.34085 10.6638C1.21136 10.3919 1.1186 10.1639 1.05708 10C1.1186 9.8361 1.21136 9.60811 1.34085 9.33618C1.62482 8.73983 2.07981 7.94405 2.75974 7.15079C4.10196 5.58488 6.3385 4 10.0005 4C13.6625 4 15.899 5.58488 17.2412 7.15079C17.9212 7.94405 18.3762 8.73983 18.6601 9.33618C18.7896 9.60811 18.8824 9.83609 18.9439 10C18.8824 10.1639 18.7896 10.3919 18.6601 10.6638C18.3762 11.2602 17.9212 12.056 17.2412 12.8492C15.899 14.4151 13.6625 16 10.0005 16Z" stroke="white" stroke-width="2" stroke-linejoin="round"/>
<circle opacity="0.5" cx="10.0005" cy="10" r="3" stroke="white" stroke-width="2"/>
</svg>
