<svg width="20" height="20" viewBox="0 0 20 20" fill="none" xmlns="http://www.w3.org/2000/svg">
<g clip-path="url(#clip0_13_380)">
<path fill-rule="evenodd" clip-rule="evenodd" d="M11.5 16C13.9853 16 16 13.9853 16 11.5C16 9.01472 13.9853 7 11.5 7C9.01472 7 7 9.01472 7 11.5C7 13.9853 9.01472 16 11.5 16ZM11.5 18C15.0899 18 18 15.0899 18 11.5C18 7.91015 15.0899 5 11.5 5C7.91015 5 5 7.91015 5 11.5C5 15.0899 7.91015 18 11.5 18Z" fill="white"/>
<path fill-rule="evenodd" clip-rule="evenodd" d="M14.7929 14.7929C15.1834 14.4024 15.8166 14.4024 16.2071 14.7929L18.7071 17.2929C19.0976 17.6834 19.0976 18.3166 18.7071 18.7071C18.3166 19.0977 17.6834 19.0977 17.2929 18.7071L14.7929 16.2071C14.4024 15.8166 14.4024 15.1834 14.7929 14.7929Z" fill="white"/>
<path opacity="0.5" fill-rule="evenodd" clip-rule="evenodd" d="M0 2C0 1.44772 0.447715 1 1 1L19 1C19.5523 1 20 1.44772 20 2C20 2.55228 19.5523 3 19 3L1 3C0.447715 3 0 2.55228 0 2ZM0 6C0 5.44772 0.447715 5 1 5H4C4.55228 5 5 5.44772 5 6C5 6.55228 4.55228 7 4 7H1C0.447715 7 0 6.55228 0 6ZM0 10C0 9.44772 0.447715 9 1 9H2C2.55228 9 3 9.44772 3 10C3 10.5523 2.55228 11 2 11H1C0.447715 11 0 10.5523 0 10ZM0 14C0 13.4477 0.447715 13 1 13H2C2.55228 13 3 13.4477 3 14C3 14.5523 2.55228 15 2 15H1C0.447715 15 0 14.5523 0 14ZM0 18C0 17.4477 0.447715 17 1 17H5C5.55228 17 6 17.4477 6 18C6 18.5523 5.55228 19 5 19H1C0.447715 19 0 18.5523 0 18Z" fill="white"/>
</g>
<defs>
<clipPath id="clip0_13_380">
<rect width="20" height="20" fill="white"/>
</clipPath>
</defs>
</svg>
