<svg width="20" height="20" viewBox="0 0 20 20" fill="none" xmlns="http://www.w3.org/2000/svg">
<path d="M13.2929 4.29289C12.9024 4.68342 12.9024 5.31658 13.2929 5.70711L16.5858 9H1.00052C0.448235 9 0 9.44772 0 10C0 10.5523 0.447845 11 1.00013 11H16.5854L13.2929 14.2929C12.9024 14.6834 12.9024 15.3166 13.2929 15.7071C13.6834 16.0976 14.3166 16.0976 14.7071 15.7071L19.7071 10.7071C19.8946 10.5196 20 10.2652 20 10C20 9.73478 19.8946 9.48043 19.7071 9.29289L14.7071 4.29289C14.3166 3.90237 13.6834 3.90237 13.2929 4.29289Z" fill="white"/>
</svg>
