<svg width="20" height="20" viewBox="0 0 20 20" fill="none" xmlns="http://www.w3.org/2000/svg">
<path fill-rule="evenodd" clip-rule="evenodd" d="M10 18.0002C14.4183 18.0002 18 14.4185 18 10.0002C18 5.58197 14.4183 2.00024 10 2.00024C5.58172 2.00024 2 5.58197 2 10.0002C2 14.4185 5.58172 18.0002 10 18.0002ZM10 20.0002C15.5228 20.0002 20 15.5231 20 10.0002C20 4.4774 15.5228 0.000244141 10 0.000244141C4.47715 0.000244141 0 4.4774 0 10.0002C0 15.5231 4.47715 20.0002 10 20.0002Z" fill="white"/>
<g opacity="0.5">
<path fill-rule="evenodd" clip-rule="evenodd" d="M10 6.00024C8.89543 6.00024 8 6.89567 8 8.00024C8 8.55253 7.55228 9.00024 7 9.00024C6.44772 9.00024 6 8.55253 6 8.00024C6 5.79111 7.79086 4.00024 10 4.00024C12.2091 4.00024 14 5.79111 14 8.00024C14 8.88376 13.7486 9.57835 13.3113 10.1234C12.8996 10.6365 12.3746 10.9477 11.9867 11.1638C11.9028 11.2106 11.8267 11.2524 11.7573 11.2906C11.4544 11.4572 11.2787 11.5539 11.1388 11.6801C11.0408 11.7687 11 11.832 11 12.0002C11 12.5525 10.5523 13.0002 10 13.0002C9.44772 13.0002 9 12.5525 9 12.0002C9 11.1976 9.33423 10.6148 9.79866 10.1956C10.1302 9.89628 10.5578 9.66437 10.8631 9.49881C10.9175 9.46934 10.9679 9.44198 11.0133 9.41671C11.3754 9.21494 11.6004 9.05996 11.7512 8.87189C11.8764 8.71584 12 8.47435 12 8.00024C12 6.89567 11.1046 6.00024 10 6.00024Z" fill="white"/>
<path d="M11 15.0002C11 15.5525 10.5523 16.0002 10 16.0002C9.44772 16.0002 9 15.5525 9 15.0002C9 14.448 9.44772 14.0002 10 14.0002C10.5523 14.0002 11 14.448 11 15.0002Z" fill="white"/>
</g>
</svg>
