<svg width="20" height="20" viewBox="0 0 20 20" fill="none" xmlns="http://www.w3.org/2000/svg">
<path fill-rule="evenodd" clip-rule="evenodd" d="M7 17C7 15.3431 8.34315 14 10 14C11.6569 14 13 15.3431 13 17C13 18.6569 11.6569 20 10 20C8.34315 20 7 18.6569 7 17ZM10 16C9.44772 16 9 16.4477 9 17C9 17.5523 9.44772 18 10 18C10.5523 18 11 17.5523 11 17C11 16.4477 10.5523 16 10 16Z" fill="white"/>
<path fill-rule="evenodd" clip-rule="evenodd" d="M18 11V8C18 6.89543 17.1046 6 16 6C14.8954 6 14 6.89543 14 8V11C14 12.1046 14.8954 13 16 13C17.1046 13 18 12.1046 18 11ZM16 4C13.7909 4 12 5.79086 12 8V11C12 13.2091 13.7909 15 16 15C18.2091 15 20 13.2091 20 11V8C20 5.79086 18.2091 4 16 4Z" fill="white"/>
<path fill-rule="evenodd" clip-rule="evenodd" d="M6 11V8C6 6.89543 5.10457 6 4 6C2.89543 6 2 6.89543 2 8V11C2 12.1046 2.89543 13 4 13C5.10457 13 6 12.1046 6 11ZM4 4C1.79086 4 0 5.79086 0 8V11C0 13.2091 1.79086 15 4 15C6.20914 15 8 13.2091 8 11V8C8 5.79086 6.20914 4 4 4Z" fill="white"/>
<path opacity="0.5" fill-rule="evenodd" clip-rule="evenodd" d="M3 5.5C3 2.46243 5.46243 0 8.5 0H11.5C14.5376 0 17 2.46243 17 5.5H15C15 3.567 13.433 2 11.5 2H8.5C6.567 2 5 3.567 5 5.5H3Z" fill="white"/>
<path opacity="0.5" fill-rule="evenodd" clip-rule="evenodd" d="M12 16C13.6569 16 15 14.6569 15 13H17C17 15.7614 14.7614 18 12 18V16Z" fill="white"/>
</svg>
