<svg width="20" height="20" viewBox="0 0 20 20" fill="none" xmlns="http://www.w3.org/2000/svg">
<g opacity="0.5">
<path fill-rule="evenodd" clip-rule="evenodd" d="M10 3.00024C8.89543 3.00024 8 3.89567 8 5.00024C8 5.55253 7.55228 6.00024 7 6.00024C6.44772 6.00024 6 5.55253 6 5.00024C6 2.79111 7.79086 1.00024 10 1.00024C12.2091 1.00024 14 2.79111 14 5.00024C14 5.88376 13.7486 6.57835 13.3113 7.12344C12.8996 7.63652 12.3746 7.94774 11.9867 8.16384C11.9028 8.21058 11.8267 8.25245 11.7573 8.29064C11.4544 8.45721 11.2787 8.55388 11.1388 8.68015C11.0408 8.76868 11 8.83201 11 9.00024C11 9.55253 10.5523 10.0002 10 10.0002C9.44772 10.0002 9 9.55253 9 9.00024C9 8.19756 9.33423 7.61484 9.79866 7.19558C10.1302 6.89628 10.5578 6.66437 10.8631 6.49881C10.9175 6.46934 10.9679 6.44198 11.0133 6.41671C11.3754 6.21494 11.6004 6.05996 11.7512 5.87189C11.8764 5.71584 12 5.47435 12 5.00024C12 3.89567 11.1046 3.00024 10 3.00024Z" fill="white"/>
<path d="M11 12.0002C11 12.5525 10.5523 13.0002 10 13.0002C9.44772 13.0002 9 12.5525 9 12.0002C9 11.448 9.44772 11.0002 10 11.0002C10.5523 11.0002 11 11.448 11 12.0002Z" fill="white"/>
</g>
<path fill-rule="evenodd" clip-rule="evenodd" d="M2.45868 3.98326C2.94941 4.23665 3.1418 4.83988 2.88841 5.3306C1.3332 8.34242 1.81984 12.1339 4.343 14.6571C7.46719 17.7813 12.5325 17.7813 15.6567 14.6571C18.1799 12.1339 18.6665 8.34242 17.1113 5.3306C16.8579 4.83988 17.0503 4.23665 17.541 3.98326C18.0317 3.72986 18.635 3.92226 18.8884 4.41298C20.8313 8.17574 20.2273 12.9149 17.0709 16.0713C13.1657 19.9765 6.83402 19.9765 2.92878 16.0713C-0.227586 12.9149 -0.831628 8.17574 1.11134 4.41298C1.36473 3.92226 1.96796 3.72986 2.45868 3.98326Z" fill="white"/>
</svg>
