<svg width="20" height="20" viewBox="0 0 20 20" fill="none" xmlns="http://www.w3.org/2000/svg">
<g clip-path="url(#clip0_13_401)">
<path fill-rule="evenodd" clip-rule="evenodd" d="M10 18C14.4183 18 18 14.4183 18 10C18 5.58172 14.4183 2 10 2C5.58172 2 2 5.58172 2 10C2 14.4183 5.58172 18 10 18ZM10 20C15.5228 20 20 15.5228 20 10C20 4.47715 15.5228 0 10 0C4.47715 0 0 4.47715 0 10C0 15.5228 4.47715 20 10 20Z" fill="white"/>
<g opacity="0.5">
<path d="M9 10C9 9.44772 9.44772 9 10 9C10.5523 9 11 9.44772 11 10V14C11 14.5523 10.5523 15 10 15C9.44772 15 9 14.5523 9 14V10Z" fill="white"/>
<path d="M11 6C11 6.55228 10.5523 7 10 7C9.44772 7 9 6.55228 9 6C9 5.44772 9.44772 5 10 5C10.5523 5 11 5.44772 11 6Z" fill="white"/>
</g>
</g>
<defs>
<clipPath id="clip0_13_401">
<rect width="20" height="20" fill="white"/>
</clipPath>
</defs>
</svg>
