<svg width="20" height="20" viewBox="0 0 20 20" fill="none" xmlns="http://www.w3.org/2000/svg">
<circle cx="13" cy="7" r="6" stroke="white" stroke-width="2"/>
<circle opacity="0.5" cx="13" cy="7" r="2" stroke="white" stroke-width="2"/>
<path d="M1 15L0.292893 14.2929C0.105357 14.4804 0 14.7348 0 15H1ZM1 19H0V20H1V19ZM5 19V20C5.26522 20 5.51957 19.8946 5.70711 19.7071L5 19ZM6 18L6.70711 18.7071C6.89464 18.5196 7 18.2652 7 18H6ZM6 16V15H5V16H6ZM8 16V17C8.26522 17 8.51957 16.8946 8.70711 16.7071L8 16ZM6.79289 7.79289L0.292893 14.2929L1.70711 15.7071L8.20711 9.20711L6.79289 7.79289ZM0 15V19H2V15H0ZM1 20H5V18H1V20ZM5.70711 19.7071L6.70711 18.7071L5.29289 17.2929L4.29289 18.2929L5.70711 19.7071ZM7 18V16H5V18H7ZM6 17H8V15H6V17ZM8.70711 16.7071L12.2071 13.2071L10.7929 11.7929L7.29289 15.2929L8.70711 16.7071Z" fill="white"/>
</svg>
