<svg width="20" height="20" viewBox="0 0 20 20" fill="none" xmlns="http://www.w3.org/2000/svg">
<g clip-path="url(#clip0_13_458)">
<path opacity="0.5" d="M4 15V17C4 17.5523 4.44772 18 5 18C5.55228 18 6 17.5523 6 17V15H8V17C8 18.6569 6.65685 20 5 20C3.34315 20 2 18.6569 2 17V15H4Z" fill="white"/>
<path fill-rule="evenodd" clip-rule="evenodd" d="M6 6.99998H2V13H6V6.99998ZM2 4.99998C0.895431 4.99998 0 5.89541 0 6.99998V13C0 14.1045 0.895431 15 2 15H6C7.10457 15 8 14.1045 8 13V6.99998C8 5.89541 7.10457 4.99998 6 4.99998H2Z" fill="white"/>
<path fill-rule="evenodd" clip-rule="evenodd" d="M18 16.8236V3.17639C18 2.37297 17.1005 1.89757 16.4367 2.35016L10.6364 6.30488C9.9722 6.75775 9.18696 6.99997 8.38306 6.99997L8 6.99998V13L8.38306 13C9.18696 13 9.9722 13.2422 10.6364 13.6951L16.4367 17.6498C17.1005 18.1024 18 17.627 18 16.8236ZM6 4.99998V15L8.38306 15C8.78501 15 9.17763 15.1211 9.50973 15.3475L15.31 19.3022C17.3014 20.66 20 19.2338 20 16.8236V3.17639C20 0.766133 17.3014 -0.66008 15.31 0.697708L9.50973 4.65243C9.17763 4.87886 8.78501 4.99997 8.38306 4.99997L6 4.99998Z" fill="white"/>
<rect opacity="0.5" x="14" y="14" width="8" height="2" rx="1" transform="rotate(-90 14 14)" fill="white"/>
</g>
<defs>
<clipPath id="clip0_13_458">
<rect width="20" height="20" fill="white"/>
</clipPath>
</defs>
</svg>
