<svg width="20" height="20" viewBox="0 0 20 20" fill="none" xmlns="http://www.w3.org/2000/svg">
<g clip-path="url(#clip0_13_416)">
<path fill-rule="evenodd" clip-rule="evenodd" d="M1.3336 2.59575C1.91905 1.03453 3.41154 0.000244141 5.07892 0.000244141H9.28069L7.44347 7.34912C7.05395 8.9072 5.65401 10.0002 4.04797 10.0002H3.60741C1.16369 10.0002 -0.527785 7.55944 0.330263 5.27131L1.3336 2.59575ZM5.07892 2.00024C4.24523 2.00024 3.49898 2.51739 3.20626 3.298L2.20292 5.97356C1.83519 6.95419 2.56011 8.00024 3.60741 8.00024H4.04797C4.73627 8.00024 5.33625 7.5318 5.50319 6.86405L6.71914 2.00024H5.07892Z" fill="white"/>
<path fill-rule="evenodd" clip-rule="evenodd" d="M7.21914 0.000244141H12.7807L14.0382 5.0301C14.6693 7.55469 12.7599 10.0002 10.1576 10.0002H9.84224C7.23996 10.0002 5.33052 7.55469 5.96167 5.0301L7.21914 0.000244141ZM8.78069 2.00024L7.90196 5.51517C7.58638 6.77747 8.5411 8.00024 9.84224 8.00024H10.1576C11.4587 8.00024 12.4134 6.77747 12.0979 5.51518L11.2191 2.00024H8.78069Z" fill="white"/>
<path fill-rule="evenodd" clip-rule="evenodd" d="M10.7192 0.000244141H14.921C16.5883 0.000244141 18.0808 1.03454 18.6663 2.59575L19.6696 5.27131C20.5277 7.55944 18.8362 10.0002 16.3925 10.0002H15.9519C14.3459 10.0002 12.9459 8.9072 12.5564 7.34912L10.7192 0.000244141ZM13.2807 2.00024L14.4967 6.86405C14.6636 7.5318 15.2636 8.00024 15.9519 8.00024H16.3925C17.4398 8.00024 18.1647 6.95419 17.7969 5.97356L16.7936 3.298C16.5009 2.51739 15.7546 2.00024 14.921 2.00024H13.2807Z" fill="white"/>
<path fill-rule="evenodd" clip-rule="evenodd" d="M3.99994 8.00024V16.0002C3.99994 17.1048 4.89537 18.0002 5.99994 18.0002H13.9999C15.1045 18.0002 15.9999 17.1048 15.9999 16.0002V8.00024H17.9999V16.0002C17.9999 18.2094 16.2091 20.0002 13.9999 20.0002H5.99994C3.7908 20.0002 1.99994 18.2094 1.99994 16.0002V8.00024H3.99994Z" fill="white"/>
<path opacity="0.5" fill-rule="evenodd" clip-rule="evenodd" d="M7 13.0002C7 11.8957 7.89543 11.0002 9 11.0002H11C12.1046 11.0002 13 11.8957 13 13.0002V15.0002C13 16.1048 12.1046 17.0002 11 17.0002H9C7.89543 17.0002 7 16.1048 7 15.0002V13.0002ZM11 13.0002H9V15.0002H11V13.0002Z" fill="white"/>
</g>
<defs>
<clipPath id="clip0_13_416">
<rect width="20" height="20" fill="white" transform="translate(0 0.000244141)"/>
</clipPath>
</defs>
</svg>
