<svg width="20" height="20" viewBox="0 0 20 20" fill="none" xmlns="http://www.w3.org/2000/svg">
<path d="M1 4.00024C1 2.34339 2.34315 1.00024 4 1.00024H16C17.6569 1.00024 19 2.34339 19 4.00024V12.0002C19 13.6571 17.6569 15.0002 16 15.0002H8.06226C7.19212 15.0002 6.33705 15.2273 5.58156 15.659L1 18.2771V16.0002V4.00024Z" stroke="white" stroke-width="2"/>
<g opacity="0.5">
<path d="M7 8.00024C7 8.55253 6.55228 9.00024 6 9.00024C5.44772 9.00024 5 8.55253 5 8.00024C5 7.44796 5.44772 7.00024 6 7.00024C6.55228 7.00024 7 7.44796 7 8.00024Z" fill="white"/>
<path d="M11 8.00024C11 8.55253 10.5523 9.00024 10 9.00024C9.44772 9.00024 9 8.55253 9 8.00024C9 7.44796 9.44772 7.00024 10 7.00024C10.5523 7.00024 11 7.44796 11 8.00024Z" fill="white"/>
<path d="M15 8.00024C15 8.55253 14.5523 9.00024 14 9.00024C13.4477 9.00024 13 8.55253 13 8.00024C13 7.44796 13.4477 7.00024 14 7.00024C14.5523 7.00024 15 7.44796 15 8.00024Z" fill="white"/>
</g>
</svg>
