<svg width="20" height="20" viewBox="0 0 20 20" fill="none" xmlns="http://www.w3.org/2000/svg">
<path d="M1.00049 4C1.00049 2.89543 1.89592 2 3.00049 2H17.0005C18.1051 2 19.0005 2.89543 19.0005 4V12C19.0005 13.1046 18.1051 14 17.0005 14H3.00049C1.89592 14 1.00049 13.1046 1.00049 12V4Z" stroke="white" stroke-width="2"/>
<rect x="9.00049" y="14" width="2" height="4" rx="1" fill="white"/>
<g opacity="0.5">
<path d="M15.0005 5C15.5528 5 16.0005 5.44772 16.0005 6L16.0005 10C16.0005 10.5523 15.5528 11 15.0005 11L8.00049 11C7.4482 11 7.00049 10.5523 7.00049 10L7.00049 6C7.00049 5.44771 7.44821 5 8.00049 5L15.0005 5Z" fill="white"/>
<path d="M5.00049 5C5.55277 5 6.00049 5.44771 6.00049 6L6.00049 10C6.00049 10.5523 5.55277 11 5.00049 11C4.4482 11 4.00049 10.5523 4.00049 10L4.00049 6C4.00049 5.44771 4.4482 5 5.00049 5Z" fill="white"/>
</g>
<rect x="5.00049" y="17" width="10" height="2" rx="1" fill="white"/>
</svg>
