<svg width="20" height="20" viewBox="0 0 20 20" fill="none" xmlns="http://www.w3.org/2000/svg">
<path fill-rule="evenodd" clip-rule="evenodd" d="M6 4.00024C6 5.10481 5.10457 6.00024 4 6.00024C2.89543 6.00024 2 5.10481 2 4.00024C2 2.89567 2.89543 2.00024 4 2.00024C5.10457 2.00024 6 2.89567 6 4.00024ZM8 4.00024C8 6.20938 6.20914 8.00024 4 8.00024C1.79086 8.00024 -1.46517e-07 6.20938 -9.43879e-08 4.00024C-4.22589e-08 1.79111 1.79086 0.000244183 4 0.000244235C6.20914 0.000244287 8 1.79111 8 4.00024Z" fill="white"/>
<path fill-rule="evenodd" clip-rule="evenodd" d="M18 16.0002C18 17.1048 17.1046 18.0002 16 18.0002C14.8954 18.0002 14 17.1048 14 16.0002C14 14.8957 14.8954 14.0002 16 14.0002C17.1046 14.0002 18 14.8957 18 16.0002ZM20 16.0002C20 18.2094 18.2091 20.0002 16 20.0002C13.7909 20.0002 12 18.2094 12 16.0002C12 13.7911 13.7909 12.0002 16 12.0002C18.2091 12.0002 20 13.7911 20 16.0002Z" fill="white"/>
<g opacity="0.5">
<path fill-rule="evenodd" clip-rule="evenodd" d="M6 16.0002C6 17.1048 5.10457 18.0002 4 18.0002C2.89543 18.0002 2 17.1048 2 16.0002C2 14.8957 2.89543 14.0002 4 14.0002C5.10457 14.0002 6 14.8957 6 16.0002ZM8 16.0002C8 18.2094 6.20914 20.0002 4 20.0002C1.79086 20.0002 -2.88099e-07 18.2094 -2.3597e-07 16.0002C-1.83841e-07 13.7911 1.79086 12.0002 4 12.0002C6.20914 12.0002 8 13.7911 8 16.0002Z" fill="white"/>
<path d="M4 6.00024C3.44772 6.00024 3 6.44796 3 7.00024L3 13.0002C3 13.5525 3.44772 14.0002 4 14.0002C4.55228 14.0002 5 13.5525 5 13.0002L5 7.00024C5 6.44796 4.55228 6.00024 4 6.00024Z" fill="white"/>
</g>
<path d="M6 16.0002C6 16.5525 6.44772 17.0002 7 17.0002L13 17.0002C13.5523 17.0002 14 16.5525 14 16.0002C14 15.448 13.5523 15.0002 13 15.0002L7 15.0002C6.44772 15.0002 6 15.448 6 16.0002Z" fill="white"/>
<path d="M6 4.00024C6 4.55253 6.44772 5.00024 7 5.00024L13 5.00024C13.5523 5.00024 14 4.55253 14 4.00024C14 3.44796 13.5523 3.00024 13 3.00024L7 3.00024C6.44772 3.00024 6 3.44796 6 4.00024Z" fill="white"/>
<g opacity="0.5">
<path fill-rule="evenodd" clip-rule="evenodd" d="M18 4.00024C18 5.10481 17.1046 6.00024 16 6.00024C14.8954 6.00024 14 5.10481 14 4.00024C14 2.89567 14.8954 2.00024 16 2.00024C17.1046 2.00024 18 2.89567 18 4.00024ZM20 4.00024C20 6.20938 18.2091 8.00024 16 8.00024C13.7909 8.00024 12 6.20938 12 4.00024C12 1.79111 13.7909 0.000244183 16 0.000244235C18.2091 0.000244287 20 1.79111 20 4.00024Z" fill="white"/>
<path d="M16 13.0002C16.5523 13.0002 17 12.5525 17 12.0002L17 7.00024C17 6.44796 16.5523 6.00024 16 6.00024C15.4477 6.00024 15 6.44796 15 7.00024L15 12.0002C15 12.5525 15.4477 13.0002 16 13.0002Z" fill="white"/>
</g>
</svg>
