<svg width="20" height="20" viewBox="0 0 20 20" fill="none" xmlns="http://www.w3.org/2000/svg">
<g clip-path="url(#clip0_13_431)">
<path fill-rule="evenodd" clip-rule="evenodd" d="M16.0005 4H4.00049C2.89592 4 2.00049 4.89543 2.00049 6V14C2.00049 15.1046 2.89592 16 4.00049 16H16.0005C17.1051 16 18.0005 15.1046 18.0005 14V6C18.0005 4.89543 17.1051 4 16.0005 4ZM4.00049 2C1.79135 2 0.000488281 3.79086 0.000488281 6V14C0.000488281 16.2091 1.79135 18 4.00049 18H16.0005C18.2096 18 20.0005 16.2091 20.0005 14V6C20.0005 3.79086 18.2096 2 16.0005 2H4.00049Z" fill="white"/>
<path opacity="0.5" fill-rule="evenodd" clip-rule="evenodd" d="M2.87918 3.46448L7.87919 8.46448C9.05076 9.63606 10.9503 9.63606 12.1218 8.46448L17.1218 3.46448L18.536 4.87869L13.536 9.8787C11.5834 11.8313 8.41759 11.8313 6.46497 9.8787L1.46497 4.87869L2.87918 3.46448Z" fill="white"/>
</g>
<defs>
<clipPath id="clip0_13_431">
<rect width="20" height="20" fill="white" transform="translate(0.000488281)"/>
</clipPath>
</defs>
</svg>
