<svg width="20" height="20" viewBox="0 0 20 20" fill="none" xmlns="http://www.w3.org/2000/svg">
<g opacity="0.5">
<path d="M4 5C4 4.44772 4.44772 4 5 4H11C11.5523 4 12 4.44772 12 5V10C12 10.5523 11.5523 11 11 11H5C4.44772 11 4 10.5523 4 10V5Z" fill="white"/>
<path d="M4 14C4 13.4477 4.44772 13 5 13H11C11.5523 13 12 13.4477 12 14C12 14.5523 11.5523 15 11 15H5C4.44772 15 4 14.5523 4 14Z" fill="white"/>
</g>
<path d="M16 4V17C16 17.5523 16.4477 18 17 18C17.5523 18 18 17.5523 18 17V12H20V17C20 18.6569 18.6569 20 17 20C15.3431 20 14 18.6569 14 17V4H16Z" fill="white"/>
<path d="M13 2H3C2.44771 2 2 2.44772 2 3V17C2 17.5523 2.44772 18 3 18H17V20H3C1.34315 20 0 18.6569 0 17V3C0 1.34315 1.34315 0 3 0H13C14.6569 0 16 1.34315 16 3V5.5H14V3C14 2.44772 13.5523 2 13 2Z" fill="white"/>
<path d="M17 11H15V9H17C18.6569 9 20 10.3431 20 12V14.5H18V12C18 11.4477 17.5523 11 17 11Z" fill="white"/>
</svg>
