<svg width="20" height="20" viewBox="0 0 20 20" fill="none" xmlns="http://www.w3.org/2000/svg">
<path d="M6.25144 6.33473L9.05074 3.53549C11.098 1.48819 14.4174 1.48817 16.4647 3.53548C18.512 5.58278 18.512 8.90211 16.4647 10.9494L13.493 13.9211L14.8743 15.3682L17.8789 12.3636C20.7072 9.53527 20.7072 4.94961 17.8789 2.12126C15.0505 -0.707087 10.4649 -0.707088 7.63654 2.12126L4.87012 4.88763L6.25144 6.33473Z" fill="white"/>
<path d="M1.58579 5.58579C2.36683 4.80474 3.63317 4.80474 4.41421 5.58579L14.4142 15.5858C15.1953 16.3668 15.1953 17.6332 14.4142 18.4142C13.6332 19.1953 12.3668 19.1953 11.5858 18.4142L1.58579 8.41421C0.804738 7.63317 0.804738 6.36683 1.58579 5.58579Z" stroke="white" stroke-width="2" stroke-linecap="round"/>
<path opacity="0.5" d="M9.28414 16.2841L7.82325 14.8232C7.50943 15.5171 6.8111 16 6 16C4.89543 16 4 15.1045 4 14C4 13.1889 4.48283 12.4905 5.17675 12.1767L3.71586 10.7158C2.6787 11.4385 2 12.64 2 14C2 16.2091 3.79086 18 6 18C7.35997 18 8.56143 17.3213 9.28414 16.2841Z" fill="white"/>
<circle cx="18" cy="2" r="2" fill="white"/>
</svg>
