<svg width="20" height="20" viewBox="0 0 20 20" fill="none" xmlns="http://www.w3.org/2000/svg">
<path fill-rule="evenodd" clip-rule="evenodd" d="M16 13H4C3.44772 13 3 13.4477 3 14C3 14.5523 3.44772 15 4 15H16C16.5523 15 17 14.5523 17 14C17 13.4477 16.5523 13 16 13ZM4 11C2.34315 11 1 12.3431 1 14C1 15.6569 2.34315 17 4 17H16C17.6569 17 19 15.6569 19 14C19 12.3431 17.6569 11 16 11H4Z" fill="white"/>
<path fill-rule="evenodd" clip-rule="evenodd" d="M15 11V9C15 6.23858 12.7614 4 10 4C7.23858 4 5 6.23858 5 9V11H15ZM10 2C6.13401 2 3 5.13401 3 9V13H17V9C17 5.13401 13.866 2 10 2Z" fill="white"/>
<path d="M12 2C12 3.10457 11.1046 4 10 4C8.89543 4 8 3.10457 8 2C8 0.89543 8.89543 0 10 0C11.1046 0 12 0.89543 12 2Z" fill="white"/>
<path opacity="0.5" d="M6.12598 17C6.57002 18.7252 8.13612 20 9.99996 20C11.8638 20 13.4299 18.7252 13.8739 17H11.7324C11.3866 17.5978 10.7402 18 9.99996 18C9.25968 18 8.61333 17.5978 8.26752 17H6.12598Z" fill="white"/>
</svg>
