<svg width="20" height="20" viewBox="0 0 20 20" fill="none" xmlns="http://www.w3.org/2000/svg">
<g clip-path="url(#clip0_13_412)">
<path opacity="0.5" fill-rule="evenodd" clip-rule="evenodd" d="M12.4558 3.17694C11.0114 2.05349 8.98873 2.05349 7.54429 3.17694L1.61399 7.7894C1.17804 8.12847 0.549764 8.04993 0.210694 7.61398C-0.128376 7.17804 -0.0498418 6.54976 0.386105 6.21069L6.3164 1.59824C8.48307 -0.0869459 11.517 -0.0869441 13.6837 1.59824L19.614 6.21069C20.0499 6.54976 20.1285 7.17804 19.7894 7.61398C19.4503 8.04993 18.8221 8.12847 18.3861 7.7894L12.4558 3.17694Z" fill="white"/>
<path fill-rule="evenodd" clip-rule="evenodd" d="M18 9.16124L13.7482 12.5627C11.5569 14.3158 8.44314 14.3158 6.25183 12.5627L2 9.16124V16C2 17.1046 2.89543 18 4 18H16C17.1046 18 18 17.1046 18 16V9.16124ZM20 7.08061V16C20 18.2091 18.2091 20 16 20H4C1.79086 20 0 18.2091 0 16V7.08061C0 6.24211 0.969932 5.77593 1.6247 6.29974L7.50122 11.001C8.96209 12.1697 11.0379 12.1697 12.4988 11.001L18.3753 6.29974C19.0301 5.77593 20 6.24211 20 7.08061Z" fill="white"/>
</g>
<defs>
<clipPath id="clip0_13_412">
<rect width="20" height="20" fill="white"/>
</clipPath>
</defs>
</svg>
