<svg width="20" height="20" viewBox="0 0 20 20" fill="none" xmlns="http://www.w3.org/2000/svg">
<path fill-rule="evenodd" clip-rule="evenodd" d="M6.57192 2C5.62271 2 5.00049 2.65925 5.00049 3.45455V16.5455C5.00049 17.2802 5.64475 18 6.57192 18H13.4291C14.2926 18 15.0005 17.2589 15.0005 16.5455V3.45455C15.0005 2.65925 14.3783 2 13.4291 2H6.57192ZM3.00049 3.45455C3.00049 1.46802 4.60684 0 6.57192 0H13.4291C15.3941 0 17.0005 1.46802 17.0005 3.45455V16.5455C17.0005 18.4502 15.3084 20 13.4291 20H6.57192C4.5848 20 3.00049 18.4289 3.00049 16.5455V3.45455Z" fill="white"/>
<path opacity="0.5" d="M10.0005 16.0001C10.5528 16.0001 11.0005 15.5523 11.0005 15C11.0005 14.4477 10.5528 14 10.0005 14C9.4482 14 9.00049 14.4477 9.00049 15C9.00049 15.5523 9.4482 16.0001 10.0005 16.0001Z" fill="white"/>
<path opacity="0.5" fill-rule="evenodd" clip-rule="evenodd" d="M8.00049 5C8.00049 4.44772 8.4482 4 9.00049 4H11.0005C11.5528 4 12.0005 4.44772 12.0005 5C12.0005 5.55228 11.5528 6 11.0005 6H9.00049C8.4482 6 8.00049 5.55228 8.00049 5Z" fill="white"/>
</svg>
