<svg width="20" height="20" viewBox="0 0 20 20" fill="none" xmlns="http://www.w3.org/2000/svg">
<g clip-path="url(#clip0_13_414)">
<path fill-rule="evenodd" clip-rule="evenodd" d="M10 20L4.34315 14.1421C1.21895 10.9069 1.21895 5.66162 4.34315 2.42641C7.46734 -0.808802 12.5327 -0.808802 15.6569 2.42641C18.781 5.66162 18.781 10.9069 15.6569 14.1421L10 20ZM10 17.1209L14.2182 12.7528C16.5939 10.2926 16.5939 6.27591 14.2182 3.81572C11.8803 1.39476 8.11971 1.39476 5.78183 3.81572C3.40606 6.27591 3.40606 10.2926 5.78183 12.7528L10 17.1209Z" fill="white"/>
<path opacity="0.5" fill-rule="evenodd" clip-rule="evenodd" d="M10 10C11.1046 10 12 9.10457 12 8C12 6.89543 11.1046 6 10 6C8.89543 6 8 6.89543 8 8C8 9.10457 8.89543 10 10 10ZM10 12C12.2091 12 14 10.2091 14 8C14 5.79086 12.2091 4 10 4C7.79086 4 6 5.79086 6 8C6 10.2091 7.79086 12 10 12Z" fill="white"/>
</g>
<defs>
<clipPath id="clip0_13_414">
<rect width="20" height="20" fill="white"/>
</clipPath>
</defs>
</svg>
