<svg width="20" height="20" viewBox="0 0 20 20" fill="none" xmlns="http://www.w3.org/2000/svg">
<path fill-rule="evenodd" clip-rule="evenodd" d="M6.49831 17.0394C5.84782 16.6257 5.49998 16.3002 5.01099 15.6917C3.67282 14.0267 3.23946 11.8429 3.08611 10.3153C3.00249 9.48229 2.99274 8.73867 3.00414 8.19911C3.00987 7.92796 3.02103 7.70408 3.03159 7.5411C3.03634 7.46777 3.04104 7.40561 3.04521 7.35589V7.34888L3.04713 7.30506C3.17979 4.28188 4.35629 2.31266 5.98469 1.17983C7.50336 0.123331 9.12489 0 9.85283 0H10.1453C10.8699 0 12.4904 0.123767 14.0092 1.17925C15.6381 2.31119 16.8183 4.27993 16.951 7.30506L16.9529 7.34888V7.35393C16.9571 7.40305 16.9619 7.46409 16.9667 7.53583C16.9776 7.69838 16.9892 7.92163 16.9955 8.19207C17.0081 8.73025 16.9999 9.47206 16.9182 10.3038C16.7677 11.837 16.3367 14.0272 14.9967 15.7016C14.5 16.3222 14.2532 16.5739 13.508 17.0466C12.5043 17.6835 11.334 17.9913 10.0493 18L10.0357 18L9.96742 18L9.95397 17.9998C8.67059 17.9825 7.5025 17.6781 6.49831 17.0394ZM6.66308 14.5511C7.47644 15.5106 8.55496 15.9808 9.98088 16H10.0357C11.4523 15.9904 12.5401 15.5106 13.3535 14.5511C15.4099 12.1234 14.9621 7.49829 14.9529 7.45031V7.39274C14.7336 2.39342 11.2148 2 10.1453 2H9.85283C8.77432 2 5.26457 2.39342 5.04521 7.39274V7.45031C5.03616 7.49829 4.59735 12.1426 6.66308 14.5511Z" fill="white"/>
<path opacity="0.5" fill-rule="evenodd" clip-rule="evenodd" d="M6.49205 15.1293C6.97294 15.4009 7.14258 16.011 6.87098 16.4918C6.2393 17.6102 4.73252 18.929 1.28643 19.9582C0.75724 20.1163 0.200127 19.8154 0.0420825 19.2862C-0.115962 18.757 0.184909 18.1999 0.714098 18.0419C3.90491 17.0889 4.85349 15.997 5.12955 15.5083C5.40116 15.0274 6.01117 14.8577 6.49205 15.1293ZM13.5085 15.1293C13.9894 14.8577 14.5994 15.0274 14.871 15.5083C15.147 15.997 16.0956 17.0889 19.2864 18.0419C19.8156 18.1999 20.1165 18.757 19.9584 19.2862C19.8004 19.8154 19.2433 20.1163 18.7141 19.9582C15.268 18.929 13.7612 17.6102 13.1295 16.4918C12.8579 16.011 13.0276 15.4009 13.5085 15.1293Z" fill="white"/>
</svg>
