<svg width="20" height="20" viewBox="0 0 20 20" fill="none" xmlns="http://www.w3.org/2000/svg">
<g clip-path="url(#clip0_13_461)">
<path fill-rule="evenodd" clip-rule="evenodd" d="M4.34323 4.3434C2.56648 6.12016 1.79969 8.52357 2.04449 10.8448C2.10241 11.394 1.70412 11.8862 1.15488 11.9442C0.605641 12.0021 0.113439 11.6038 0.0555153 11.0545C-0.249875 8.1588 0.707412 5.1508 2.92902 2.92919C6.83426 -0.976052 13.1659 -0.976052 17.0712 2.92919C17.4974 3.35545 17.8776 3.81127 18.2115 4.29032C18.5273 4.74342 18.416 5.36673 17.9628 5.6825C17.5097 5.99828 16.8864 5.88696 16.5707 5.43385C16.3039 5.05109 15.9994 4.68591 15.6569 4.3434C12.5327 1.21921 7.46743 1.21921 4.34323 4.3434Z" fill="white"/>
<path fill-rule="evenodd" clip-rule="evenodd" d="M19.0001 6.00024V1.00024C19.0001 0.447959 18.5523 0.000244141 18.0001 0.000244141C17.4478 0.000243972 17.0001 0.447959 17.0001 1.00024L17.0001 4.00024H14.0001C13.4478 4.00024 13.0001 4.44796 13.0001 5.00024C13.0001 5.55253 13.4478 6.00024 14.0001 6.00024H19.0001Z" fill="white"/>
<g opacity="0.5">
<path fill-rule="evenodd" clip-rule="evenodd" d="M15.6569 15.6065C17.4336 13.8298 18.2004 11.4264 17.9556 9.10516C17.8977 8.55593 18.296 8.06372 18.8452 8.0058C19.3945 7.94788 19.8867 8.34617 19.9446 8.8954C20.25 11.7912 19.2927 14.7992 17.0711 17.0208C13.1659 20.926 6.83421 20.926 2.92897 17.0208C2.50271 16.5945 2.12248 16.1387 1.78862 15.6596C1.47285 15.2065 1.58417 14.5832 2.03728 14.2674C2.49038 13.9517 3.11368 14.063 3.42946 14.5161C3.69621 14.8989 4.00067 15.264 4.34318 15.6065C7.46737 18.7307 12.5327 18.7307 15.6569 15.6065Z" fill="white"/>
<path fill-rule="evenodd" clip-rule="evenodd" d="M1.00007 13.9497V18.9497C1.00007 19.502 1.44778 19.9497 2.00007 19.9497C2.55235 19.9497 3.00006 19.502 3.00006 18.9497L3.00007 15.9497H6.00007C6.55235 15.9497 7.00007 15.502 7.00007 14.9497C7.00007 14.3974 6.55235 13.9497 6.00007 13.9497H1.00007Z" fill="white"/>
</g>
</g>
<defs>
<clipPath id="clip0_13_461">
<rect width="20" height="20" fill="white" transform="translate(0 0.000244141)"/>
</clipPath>
</defs>
</svg>
