<svg width="20" height="20" viewBox="0 0 20 20" fill="none" xmlns="http://www.w3.org/2000/svg">
<g clip-path="url(#clip0_13_397)">
<path fill-rule="evenodd" clip-rule="evenodd" d="M10 18C14.4183 18 18 14.4183 18 10C18 5.58172 14.4183 2 10 2C5.58172 2 2 5.58172 2 10C2 14.4183 5.58172 18 10 18ZM10 20C15.5228 20 20 15.5228 20 10C20 4.47715 15.5228 0 10 0C4.47715 0 0 4.47715 0 10C0 15.5228 4.47715 20 10 20Z" fill="white"/>
<path opacity="0.5" d="M8 8C8 7.44772 7.55228 7 7 7C6.44772 7 6 7.44772 6 8C6 8.55228 6.44772 9 7 9C7.55228 9 8 8.55228 8 8Z" fill="white"/>
<path opacity="0.5" d="M14 8C14 7.44772 13.5523 7 13 7C12.4477 7 12 7.44772 12 8C12 8.55228 12.4477 9 13 9C13.5523 9 14 8.55228 14 8Z" fill="white"/>
<path opacity="0.5" fill-rule="evenodd" clip-rule="evenodd" d="M12.8284 14.2426C11.2663 12.6805 8.73368 12.6805 7.17158 14.2426C6.78106 14.6331 6.1479 14.6331 5.75737 14.2426C5.36685 13.8521 5.36685 13.2189 5.75737 12.8284C8.10052 10.4853 11.8995 10.4853 14.2427 12.8284C14.6332 13.2189 14.6332 13.8521 14.2427 14.2426C13.8521 14.6331 13.219 14.6331 12.8284 14.2426Z" fill="white"/>
</g>
<defs>
<clipPath id="clip0_13_397">
<rect width="20" height="20" fill="white"/>
</clipPath>
</defs>
</svg>
