<svg width="20" height="20" viewBox="0 0 20 20" fill="none" xmlns="http://www.w3.org/2000/svg">
<g opacity="0.5">
<path fill-rule="evenodd" clip-rule="evenodd" d="M14 2.00024H6L6 4.00024H14V2.00024ZM6 0.000244141C4.89543 0.000244141 4 0.895675 4 2.00024V4.00024C4 5.10481 4.89543 6.00024 6 6.00024H14C15.1046 6.00024 16 5.10481 16 4.00024V2.00024C16 0.895675 15.1046 0.000244141 14 0.000244141H6Z" fill="white"/>
<path d="M16 9.00024C16 9.55253 15.5523 10.0002 15 10.0002C14.4477 10.0002 14 9.55253 14 9.00024C14 8.44796 14.4477 8.00024 15 8.00024C15.5523 8.00024 16 8.44796 16 9.00024Z" fill="white"/>
<path d="M13 9.00024C13 9.55253 12.5523 10.0002 12 10.0002C11.4477 10.0002 11 9.55253 11 9.00024C11 8.44796 11.4477 8.00024 12 8.00024C12.5523 8.00024 13 8.44796 13 9.00024Z" fill="white"/>
</g>
<path fill-rule="evenodd" clip-rule="evenodd" d="M0 7.00024C0 5.34339 1.34315 4.00024 3 4.00024H17C18.6569 4.00024 20 5.34339 20 7.00024V15.0002C20 16.6571 18.6569 18.0002 17 18.0002H15V16.0002H17C17.5523 16.0002 18 15.5525 18 15.0002V7.00024C18 6.44796 17.5523 6.00024 17 6.00024H3C2.44772 6.00024 2 6.44796 2 7.00024V15.0002C2 15.5525 2.44772 16.0002 3 16.0002H5V18.0002H3C1.34315 18.0002 0 16.6571 0 15.0002V7.00024Z" fill="white"/>
<path fill-rule="evenodd" clip-rule="evenodd" d="M14 14.0002H6V18.0002H14V14.0002ZM6 12.0002C4.89543 12.0002 4 12.8957 4 14.0002V18.0002C4 19.1048 4.89543 20.0002 6 20.0002H14C15.1046 20.0002 16 19.1048 16 18.0002V14.0002C16 12.8957 15.1046 12.0002 14 12.0002H6Z" fill="white"/>
<path d="M3 13.0002C3 12.448 3.44772 12.0002 4 12.0002H16C16.5523 12.0002 17 12.448 17 13.0002C17 13.5525 16.5523 14.0002 16 14.0002H4C3.44772 14.0002 3 13.5525 3 13.0002Z" fill="white"/>
</svg>
