<svg width="20" height="20" viewBox="0 0 20 20" fill="none" xmlns="http://www.w3.org/2000/svg">
<g clip-path="url(#clip0_13_377)">
<path d="M18.013 8.0455L16.6029 7.86625C16.4866 7.5085 16.3434 7.1635 16.1761 6.83575L17.0469 5.7145C17.3994 5.26075 17.3582 4.62025 16.9554 4.23025L15.7741 3.049C15.3803 2.6425 14.7398 2.602 14.2853 2.95375L13.1655 3.8245C12.8377 3.65725 12.4927 3.514 12.1342 3.39775L11.955 1.99C11.8875 1.42525 11.4082 1 10.8404 1H9.16034C8.59257 1 8.1133 1.42525 8.04579 1.98775L7.86654 3.39775C7.50802 3.514 7.16301 3.6565 6.83524 3.8245L5.7147 2.95375C5.26168 2.602 4.62115 2.6425 4.23038 3.04525L3.04909 4.22575C2.64257 4.62025 2.60132 5.26075 2.95383 5.71525L3.82462 6.83575C3.65661 7.1635 3.5141 7.5085 3.39785 7.86625L1.99004 8.0455C1.42527 8.113 1 8.59225 1 9.16V10.84C1 11.4078 1.42527 11.887 1.98779 11.9545L3.39785 12.1338C3.5141 12.4915 3.65736 12.8365 3.82462 13.1643L2.95383 14.2855C2.60132 14.7393 2.64257 15.3798 3.04534 15.7698L4.22663 16.951C4.62115 17.3568 5.26093 17.3973 5.71545 17.0455L6.83599 16.1747C7.16376 16.3427 7.50877 16.486 7.86654 16.6015L8.04579 18.0085C8.1133 18.5747 8.59257 19 9.16034 19H10.8404C11.4082 19 11.8875 18.5748 11.955 18.0123L12.1342 16.6022C12.492 16.486 12.837 16.3427 13.1648 16.1755L14.2861 17.0463C14.7398 17.3988 15.3803 17.3575 15.7704 16.9548L16.9517 15.7735C17.3582 15.379 17.3994 14.7392 17.0469 14.2847L16.1761 13.1643C16.3441 12.8365 16.4874 12.4915 16.6029 12.1338L18.01 11.9545C18.5747 11.887 19 11.4078 19 10.84V9.16C19.0007 8.59225 18.5755 8.113 18.013 8.0455Z" stroke="white" stroke-width="2" stroke-linejoin="round"/>
<circle opacity="0.5" cx="10" cy="10" r="3" stroke="white" stroke-width="2"/>
</g>
<defs>
<clipPath id="clip0_13_377">
<rect width="20" height="20" fill="white"/>
</clipPath>
</defs>
</svg>
