<svg width="20" height="20" viewBox="0 0 20 20" fill="none" xmlns="http://www.w3.org/2000/svg">
<g clip-path="url(#clip0_531_20996)">
<path d="M0.292893 14.2929C0.683417 13.9024 1.31658 13.9024 1.70711 14.2929L4 16.5858L4 1.00052C4 0.448234 4.44771 -1.94416e-07 5 -2.18557e-07C5.55228 -2.42698e-07 6 0.447845 6 1.00013L6 16.5854L8.29289 14.2929C8.68342 13.9024 9.31658 13.9024 9.70711 14.2929C10.0976 14.6834 10.0976 15.3166 9.70711 15.7071L5.70711 19.7071C5.51957 19.8946 5.26522 20 5 20C4.73478 20 4.48043 19.8946 4.29289 19.7071L0.292893 15.7071C-0.0976313 15.3166 -0.0976313 14.6834 0.292893 14.2929Z" fill="white"/>
<path opacity="0.5" d="M19.7071 5.70711C19.3166 6.09763 18.6834 6.09763 18.2929 5.70711L16 3.41421L16 18.9995C16 19.5518 15.5523 20 15 20C14.4477 20 14 19.5522 14 18.9999L14 3.41461L11.7071 5.70711C11.3166 6.09763 10.6834 6.09763 10.2929 5.70711C9.90237 5.31658 9.90237 4.68342 10.2929 4.29289L14.2929 0.292893C14.4804 0.105357 14.7348 -2.3015e-07 15 -2.18557e-07C15.2652 -2.06964e-07 15.5196 0.105357 15.7071 0.292893L19.7071 4.29289C20.0976 4.68342 20.0976 5.31658 19.7071 5.70711Z" fill="white"/>
</g>
<defs>
<clipPath id="clip0_531_20996">
<rect width="20" height="20" fill="white"/>
</clipPath>
</defs>
</svg>
