<svg width="20" height="20" viewBox="0 0 20 20" fill="none" xmlns="http://www.w3.org/2000/svg">
<path d="M8 1L6.955 3.61249C6.34516 5.1371 5.1371 6.34516 3.61249 6.955L1 8" stroke="white" stroke-width="2" stroke-linecap="round"/>
<path d="M8 1L9.045 3.61249C9.65484 5.1371 10.8629 6.34516 12.3875 6.955L15 8" stroke="white" stroke-width="2" stroke-linecap="round"/>
<path d="M8 15L6.955 12.3875C6.34516 10.8629 5.1371 9.65484 3.61249 9.045L1 8" stroke="white" stroke-width="2" stroke-linecap="round"/>
<path d="M8 15L9.045 12.3875C9.65484 10.8629 10.8629 9.65484 12.3875 9.045L15 8" stroke="white" stroke-width="2" stroke-linecap="round"/>
<path opacity="0.5" fill-rule="evenodd" clip-rule="evenodd" d="M16.325 12.0543C16.3487 12.0625 16.3721 12.0715 16.3951 12.0814C16.5112 12.1313 16.6131 12.2007 16.6987 12.2842C16.7957 12.3788 16.8749 12.4948 16.9285 12.6287L16.9898 12.782C17.3964 13.7984 18.2018 14.6037 19.2182 15.0103L19.3627 15.0681C19.3892 15.0785 19.4153 15.0899 19.4409 15.1024C19.6552 15.2076 19.8329 15.3895 19.9285 15.6286C19.9773 15.7505 20.0003 15.8763 20.0003 16.0001C20.0003 16.1238 19.9773 16.2496 19.9285 16.3715C19.8721 16.5126 19.787 16.6338 19.6827 16.7311C19.6124 16.7968 19.5315 16.8532 19.4413 16.8975C19.4156 16.9101 19.3894 16.9216 19.3627 16.932L19.2182 16.9898C18.2018 17.3964 17.3964 18.2018 16.9898 19.2182L16.9285 19.3714C16.8749 19.5053 16.7957 19.6213 16.6987 19.7159C16.613 19.7995 16.511 19.869 16.3948 19.9188C16.3719 19.9287 16.3486 19.9377 16.325 19.9458C16.1071 20.0208 15.8793 20.0161 15.6751 19.9458C15.6514 19.9376 15.628 19.9286 15.605 19.9187C15.4889 19.8689 15.387 19.7994 15.3014 19.7159C15.2044 19.6213 15.1251 19.5053 15.0715 19.3714L15.0102 19.2182C14.6037 18.2018 13.7983 17.3964 12.7819 16.9898L12.6374 16.932C12.6107 16.9216 12.5844 16.9101 12.5587 16.8975C12.4685 16.8532 12.3877 16.7968 12.3173 16.7311C12.213 16.6338 12.128 16.5126 12.0715 16.3715C12.0228 16.2496 11.9997 16.1238 11.9998 16.0001C11.9997 15.8763 12.0228 15.7505 12.0715 15.6286C12.1672 15.3895 12.3448 15.2076 12.5592 15.1025C12.5847 15.0899 12.6108 15.0785 12.6373 15.0681L12.7819 15.0103C13.7983 14.6037 14.6037 13.7984 15.0102 12.782L15.0715 12.6287C15.1251 12.4948 15.2044 12.3788 15.3014 12.2842C15.3864 12.2012 15.4876 12.1322 15.6027 12.0824C15.6264 12.0721 15.6506 12.0628 15.6751 12.0543C15.8793 11.9841 16.1071 11.9793 16.325 12.0543ZM16 16.9788C16.2874 16.6159 16.6159 16.2874 16.9787 16.0001C16.6159 15.7127 16.2874 15.3842 16 15.0214C15.7127 15.3842 15.3842 15.7127 15.0213 16.0001C15.3842 16.2874 15.7127 16.6159 16 16.9788Z" fill="white"/>
</svg>
