<svg width="20" height="20" viewBox="0 0 20 20" fill="none" xmlns="http://www.w3.org/2000/svg">
<circle cx="10" cy="10.0002" r="9" stroke="white" stroke-width="2"/>
<g opacity="0.5">
<path d="M9 5.00024C9 4.44796 9.44772 4.00024 10 4.00024C10.5523 4.00024 11 4.44796 11 5.00024V10.0002C11 10.5525 10.5523 11.0002 10 11.0002C9.44772 11.0002 9 10.5525 9 10.0002V5.00024Z" fill="white"/>
<path d="M15 9.00024C15.5523 9.00024 16 9.44796 16 10.0002C16 10.5525 15.5523 11.0002 15 11.0002H10C9.44772 11.0002 9 10.5525 9 10.0002C9 9.44796 9.44772 9.00024 10 9.00024L15 9.00024Z" fill="white"/>
</g>
</svg>
