<svg width="20" height="20" viewBox="0 0 20 20" fill="none" xmlns="http://www.w3.org/2000/svg">
<path opacity="0.5" d="M13.024 11.0588H12.9874C12.5512 11.0531 12.1637 10.9859 11.8197 10.8549L11.5003 12.8538C11.9655 12.9862 12.4554 13.052 12.9613 13.0586L12.9744 13.0588L13.024 13.0588L13.0371 13.0588C13.9406 13.0528 14.7915 12.8517 15.5404 12.4252C16.1842 12.9782 17.1859 13.5152 18.7219 13.9605C19.2524 14.1142 19.807 13.8089 19.9608 13.2784C20.1146 12.748 19.8092 12.1933 19.2787 12.0395C18.119 11.7034 17.4375 11.3471 17.04 11.0613C17.9054 9.85906 18.1776 8.41255 18.2752 7.44787C18.3335 6.87188 18.3392 6.35997 18.3303 5.98878C18.3258 5.80179 18.3175 5.64617 18.3095 5.53075C18.3066 5.48884 18.3037 5.45146 18.301 5.41904L18.3001 5.39909C18.2022 3.23321 17.315 1.73995 16.0305 0.873538C14.8632 0.0862316 13.635 0 13.097 0H12.9021C12.3623 0 11.133 0.0858134 9.96554 0.874102C8.681 1.74143 7.79684 3.23519 7.69901 5.39909L7.69794 5.42272C7.69524 5.45548 7.69238 5.49335 7.68954 5.53587C7.68182 5.65155 7.67384 5.80757 7.66977 5.995C7.66167 6.36705 7.66852 6.88013 7.72818 7.45695L9.75539 7.56234C9.6025 6.47236 9.69363 5.54385 9.69697 5.52666V5.48941C9.84321 2.25457 12.183 2 12.9021 2H13.097C13.81 2 16.1559 2.25457 16.3021 5.48941V5.52666C16.3082 5.55771 16.6068 8.55041 15.2359 10.1213C15.2162 10.1438 15.1963 10.1659 15.1761 10.1876C15.0715 10.3003 14.9603 10.4019 14.8424 10.4927C14.3568 10.8662 13.7563 11.054 13.024 11.0588Z" fill="white"/>
<path fill-rule="evenodd" clip-rule="evenodd" d="M4.84798 16.2013C4.94183 16.301 5.04075 16.3919 5.145 16.4739C5.63323 16.8581 6.23841 17.049 6.98735 17.0588H7.02391C7.75623 17.054 8.35672 16.8662 8.84235 16.4927C8.96027 16.4019 9.07142 16.3003 9.17604 16.1876C9.1962 16.1659 9.21611 16.1438 9.23578 16.1213C10.6067 14.5504 10.3081 11.5577 10.3021 11.5267V11.4894C10.1558 8.25457 7.80995 8 7.09697 8H6.90198C6.18297 8 3.84314 8.25457 3.6969 11.4894V11.5267C3.69087 11.5577 3.39833 14.5628 4.77548 16.1213C4.7993 16.1485 4.82347 16.1752 4.84798 16.2013ZM2.96631 17.0572C2.10131 15.8604 1.82746 14.4175 1.72811 13.457C1.66845 12.8801 1.6616 12.367 1.6697 11.995C1.67378 11.8076 1.68175 11.6516 1.68947 11.5359C1.69231 11.4933 1.69517 11.4555 1.69788 11.4227L1.69894 11.3991C1.79677 9.23519 2.68094 7.74143 3.96547 6.8741C5.13294 6.08581 6.36221 6 6.90198 6H7.09697C7.63489 6 8.8631 6.08623 10.0304 6.87354C11.315 7.73995 12.2021 9.23321 12.3 11.3991L12.3009 11.419C12.3037 11.4515 12.3066 11.4888 12.3095 11.5308C12.3174 11.6462 12.3257 11.8018 12.3302 11.9888C12.3391 12.36 12.3334 12.8719 12.2751 13.4479C12.1775 14.4126 11.9054 15.8591 11.0399 17.0613C11.4374 17.3471 12.119 17.7034 13.2787 18.0395C13.8091 18.1933 14.1145 18.748 13.9607 19.2784C13.807 19.8089 13.2523 20.1142 12.7219 19.9605C11.1859 19.5152 10.1841 18.9782 9.54034 18.4252C8.79143 18.8517 7.94049 19.0528 7.03706 19.0588L7.02391 19.0588L6.97429 19.0588L6.96123 19.0586C6.06234 19.0469 5.21395 18.8482 4.46491 18.4211C3.82133 18.9755 2.8184 19.5141 1.27867 19.9605C0.74822 20.1142 0.193558 19.8089 0.0397968 19.2784C-0.113964 18.748 0.191401 18.1933 0.72185 18.0395C1.88713 17.7018 2.56964 17.3437 2.96631 17.0572Z" fill="white"/>
</svg>
