<svg width="20" height="20" viewBox="0 0 20 20" fill="none" xmlns="http://www.w3.org/2000/svg">
<g clip-path="url(#clip0_13_448)">
<path d="M13 12C13 10.8954 13.8954 10 15 10H18C18.5523 10 19 10.4477 19 11V13C19 13.5523 18.5523 14 18 14H15C13.8954 14 13 13.1046 13 12V12Z" stroke="white" stroke-width="2"/>
<path opacity="0.5" d="M5 16C5.55228 16 6 15.5523 6 15L6 9C6 8.44772 5.55228 8 5 8C4.44771 8 4 8.44772 4 9L4 15C4 15.5523 4.44772 16 5 16Z" fill="white"/>
<path fill-rule="evenodd" clip-rule="evenodd" d="M16 10V7C16 6.44771 15.5523 6 15 6L13 6L12.5 6L2.92857 6C2.6021 6 2.29025 5.94615 2 5.84721L2 17C2 17.5523 2.44772 18 3 18L15 18C15.5523 18 16 17.5523 16 17V14H18V17C18 18.6569 16.6569 20 15 20H3C1.34315 20 0 18.6569 0 17V3C0 1.37774 1.2772 0 2.92857 0H13.9998C14.5522 0 14.9999 0.447821 14.9998 1.00017C14.9997 1.55239 14.552 2 13.9998 2H2.92857C2.4497 2 2 2.41313 2 3C2 3.58687 2.4497 4 2.92857 4H12.5H13H15C16.6569 4 18 5.34314 18 7V10H16Z" fill="white"/>
</g>
<defs>
<clipPath id="clip0_13_448">
<rect width="20" height="20" fill="white" transform="matrix(1 0 0 -1 0 20)"/>
</clipPath>
</defs>
</svg>
