<svg width="20" height="20" viewBox="0 0 20 20" fill="none" xmlns="http://www.w3.org/2000/svg">
<g opacity="0.5">
<path d="M5 11C5 10.4477 5.44772 10 6 10C6.55228 10 7 10.4477 7 11V14C7 14.5523 6.55228 15 6 15C5.44772 15 5 14.5523 5 14V11Z" fill="white"/>
<path d="M9 11C9 10.4477 9.44772 10 10 10C10.5523 10 11 10.4477 11 11V14C11 14.5523 10.5523 15 10 15C9.44772 15 9 14.5523 9 14V11Z" fill="white"/>
<path d="M13 11C13 10.4477 13.4477 10 14 10C14.5523 10 15 10.4477 15 11V14C15 14.5523 14.5523 15 14 15C13.4477 15 13 14.5523 13 14V11Z" fill="white"/>
<path fill-rule="evenodd" clip-rule="evenodd" d="M8.70711 1.29289C9.09763 1.68342 9.09763 2.31658 8.70711 2.70711L3.70711 7.70711C3.31658 8.09763 2.68342 8.09763 2.29289 7.70711C1.90237 7.31658 1.90237 6.68342 2.29289 6.29289L7.29289 1.29289C7.68342 0.902369 8.31658 0.902369 8.70711 1.29289Z" fill="white"/>
<path fill-rule="evenodd" clip-rule="evenodd" d="M11.2929 1.29289C10.9024 1.68342 10.9024 2.31658 11.2929 2.70711L16.2929 7.70711C16.6834 8.09763 17.3166 8.09763 17.7071 7.70711C18.0976 7.31658 18.0976 6.68342 17.7071 6.29289L12.7071 1.29289C12.3166 0.902369 11.6834 0.902369 11.2929 1.29289Z" fill="white"/>
</g>
<path fill-rule="evenodd" clip-rule="evenodd" d="M16.5032 8H3.49686C2.88397 8 2.41529 8.5463 2.50849 9.15206L3.45496 15.3041C3.60506 16.2798 4.44456 17 5.4317 17H14.5684C15.5555 17 16.395 16.2798 16.5451 15.3041L17.4916 9.15206C17.5848 8.5463 17.1161 8 16.5032 8ZM3.49686 6C1.6582 6 0.252164 7.63889 0.531745 9.45617L1.47822 15.6082C1.77842 17.5596 3.45742 19 5.4317 19H14.5684C16.5426 19 18.2216 17.5596 18.5218 15.6082L19.4683 9.45617C19.7479 7.6389 18.3418 6 16.5032 6H3.49686Z" fill="white"/>
</svg>
